<?xml version="1.0" standalone="no"?>
<!DOCTYPE svg PUBLIC "-//W3C//DTD SVG 20010904//EN"
 "http://www.w3.org/TR/2001/REC-SVG-20010904/DTD/svg10.dtd">
<svg version="1.0" xmlns="http://www.w3.org/2000/svg"
 width="418.000000pt" height="418.000000pt" viewBox="0 0 418.000000 418.000000"
 preserveAspectRatio="xMidYMid meet">
<metadata>
Created by potrace 1.14, written by Peter Selinger 2001-2017
</metadata>
<g transform="translate(0.000000,418.000000) scale(0.100000,-0.100000)"
fill="#000000" stroke="none">
<path d="M1900 4168 c-347 -29 -705 -158 -997 -360 -172 -119 -360 -298 -471
-449 -26 -35 -49 -66 -53 -69 -17 -14 -134 -219 -178 -310 -48 -100 -124 -312
-135 -375 -3 -16 -10 -45 -15 -63 -5 -18 -10 -36 -10 -40 -1 -7 -5 -32 -16
-97 -25 -148 -26 -491 -1 -610 2 -11 7 -42 10 -68 21 -157 104 -402 198 -584
47 -92 156 -272 178 -293 3 -3 30 -36 61 -75 143 -179 396 -394 579 -493 218
-119 371 -177 615 -232 55 -13 189 -32 250 -36 81 -6 328 -6 360 0 17 2 53 7
80 11 95 12 120 16 225 42 376 91 707 278 980 554 126 128 135 138 219 254
150 209 256 431 320 675 16 63 32 131 35 150 3 19 8 44 10 56 21 104 29 464
13 589 -18 141 -72 368 -106 450 -5 11 -21 52 -37 90 -207 520 -661 959 -1197
1159 -95 36 -257 83 -314 91 -15 2 -41 7 -58 10 -115 20 -192 27 -335 29 -69
1 -163 -2 -210 -6z"/>
</g>
</svg>
