<?xml version="1.0" encoding="utf-8"?>
<!-- Generator: Adobe Illustrator 25.3.1, SVG Export Plug-In . SVG Version: 6.00 Build 0)  -->
<svg version="1.1" id="Layer_1" xmlns="http://www.w3.org/2000/svg" xmlns:xlink="http://www.w3.org/1999/xlink" x="0px" y="0px"
	 viewBox="0 0 643.4 377.2" style="enable-background:new 0 0 643.4 377.2;" xml:space="preserve">
<style type="text/css">
	
		.st0{opacity:0.4;fill:#FFFFFF;stroke:#000000;stroke-width:0.2;stroke-linecap:round;stroke-linejoin:round;enable-background:new    ;}
	
		.st1{opacity:0.4;fill:#FFFFFF;stroke:#17252A;stroke-width:0.2;stroke-linecap:round;stroke-linejoin:round;enable-background:new    ;}
	.st2{fill:#5CBFB8;}
	.st3{fill:#2F3B40;}
</style>
<polygon id="_x31_" class="st0" points="506.2,665.7 506.2,665.7 506.2,665.7 "/>
<path class="st1" d="M497.6,220.5l3.4,0.9l4.7-0.2l-3.3,2.6l-2,0.4l-5.5-2.7l-0.6-2.1l2.5-1.9L497.6,220.5z"/>
<path class="st1" d="M512,204.5l-2.4,0.1l-5.8-1.9l-3.5-3l1.9-0.5l5.9,1.6l4.2,2.6L512,204.5z"/>
<path class="st1" d="M204.1,208.2l-3.1,0.9l-6.3-2.8v-2.2l-2.9-2.2l0.3-1.8l-4.3-1.1l0.6-3.4l1.5-1.4l4.1,1.3l2.4,1l4.1,0.6l0.2,2.2
	l0.4,2.9l3.2,2.6L204.1,208.2z"/>
<path class="st1" d="M543.2,194.7l-5,5.4l3.9-2.1l2.9,1.4l-2.4,2.1l3.8,1.7l2.8-1.5l4.3,1.9l-2.8,4.6l3.8-1.1l-0.3,3.3l0.5,3.9
	l-3.6,5.6l-2.4,0.2l-2.9-1.2l2.5-5.1l-1.2-0.8l-7.3,5.4l-3-0.2l4.4-3l-4.4-1.5l-5.5,0.4l-9.6-0.2l-0.2-1.8l3.8-2.3l-1.7-1.6l5.4-3.8
	l8.2-9.9l4.2-3.5l5-2.1l2.1,0.2l-1.5,1.7L543.2,194.7z"/>
<path class="st1" d="M183.2,173.3l1.5,0.8l5-0.5l-7.2,6.9l0.3,5h-1.9l-0.7-2.8l0.5-2.9l-0.8-1.9l1.3-2.7L183.2,173.3z"/>
<path class="st1" d="M466.6,125.8l-3.6,3l-1.7-0.5l-0.1-1.7l0.4-0.4l2.8-1.7l1.7,0.1L466.6,125.8z"/>
<path class="st1" d="M456.9,122.6l-7.2,3.2l-3-0.2v-1.5l5-2.7l6,0.1L456.9,122.6z"/>
<path class="st1" d="M453.8,105.8l-0.9,2.5l2.7-0.9l1.5,1.5l3.5,2l3.8,1.7l-1.4,2.7l3.5-0.4l1.9,1.9l-5,1.8l-5.9-1.4l-0.8-2.6
	l-6.3,3.1l-8.2,2.9l0.7-3.3l-6.3,0.5l5.7-2.8l3.6-4.5l5.1-5.1L453.8,105.8z"/>
<path class="st1" d="M498.7,97.5l-4.9,0.3l0.7-2.7l3.8-3.1l4.3-0.7l2.3,1.5l-1.5,2.3l-0.9,0.8L498.7,97.5z"/>
<path class="st1" d="M424.2,86.8l-4.1,1.9l-4.2-1.6l-3.9,0.5l-3.4-2.4l5-1.7l4.9-2.3l3,1.5l1.6,1l0.4,1L424.2,86.8z"/>
<path class="st1" d="M549.2,176.5l-3.4-0.8v-5.2l-2.4-1.9l-6.9-1.6l-2.9-3.4l-4.8-3.4l3.4-3.8l-2-7.2l-2.6-7.5l-1.1-5.3l-4.2,2.7
	l-7.5,6.6l-8.2,3.3l-1.6-3.5l-3.8-1l2.3-7.4l2.6-4.9l-7.7-0.5l-0.2-2.2l-3.6-3.4l-3.1-2l-4.5,1.6l-4.2-0.6l-6.7-1.6l-3.8,1.4l-3.9,9
	l-1,5.3l-8.9,6.2l3.2,4.5l0.4,5.1l-1.7,4l-4.8,4.2l-7.5,4.2l-9,2.9l1.7,3.2l-2.3,9.6l-5.6,6.4l-4.7,2l-4.4-5.9l-0.1-6.9l1.7-6.1
	l3.6-5.2l-4.8-0.6l-7.6-0.4l-3.6-2.5l-4.9-1.7l-1.7-2.8l-3.3-2.3l-7-2.6l-7.3,1.2l0.8-4.6l1.5-5.5l-6-1l4.9-6.9l5-4.6l9.4-6.5
	l8.7-4.7l5.7-0.7l2.9-3.8l5.1-2.4l6.5-0.4l7.7-3.8l3-2.5l7.4-4.7l3.3-2.8l3.2,1.7l6.5-0.9l10.9-3.9l2.4-2.7l-0.9-2.9l5.1-2.9
	l1.7-2.7l-3.6-2.7l-5.4-0.8l-5.5-0.4l-4.7,5.9l-6.5,4.8l-7.3,3.9l-1.3-3.7l4.3-4l-2.2-3.5l-8.9,4.2l4.4-5.5l-6.7-1.1L446,81l-0.4-6
	l-2-2.3l-4.5-0.9l-8.2,3.8l-5.5,5.9l2.9,2.2l1.6,3.3l-6.4,5.5l-3.2-0.2l-6.2,4.4l4.3-5.2l-4.9-1.8l-4.5,0.9l-2.4,3.4l-6-0.1
	l-7.2,0.9l-5.3-2.5l-5,0.4l-1.5-2.9l-2.1-1.3l-3.9,0.5l-5.2,0.3l-4.5,1.8l2.1,2.4l-7.1,2.7l-1.4-3.3l-4.4,1l-11.9,0.6l-6.4-1.1
	l8.5-2.7l-2.9-2.8l-4.4,0.3l-4.7-0.9l-7.5-2l-3.9-2.2l-4.6-0.3l-3.2,1.5l-6,0.9l3.9-4.1l-9.5,3.7l-1.4-4.8l-2.1-0.6l-3.9,2.5
	l-4.5,1.3l-0.2-2.2l-8.2,1.3l-8.9,2.3L268,84l-7,1.7l-6.3,2.2l-3.7-0.5l-3.3-2.6l-6-1.3l-24.6,20.4l-35.6,32.7l4.2,0.2l2.8,1.6
	l0.5,2.6l0.3,3.8l7.6-3.3l6.5-1.9l-0.6,3.1l0.8,2.4l1.3,2.2l0.3,0.5l-1.1,4.2l-1.4,6.9l1.8,1.5l2.8,2.3l-2.8,3.3l-0.4,0.5l-4.6,2.6
	l-0.5,0.3l-2.5,3.2l2.1,4.4l-3.1,4.9l4.1,2.7l-3.6,3.7l-1.3,5.5l6,2.2l1,0.4l1.6,2.7l5.4,6.1h137.8l1.3-2.4h1.7l-0.9,3.4l1,1
	l3.3,0.4l4.6,1l3.9,1.9l4.4-0.8l5.4,1.7l3.1-2.5l3.3-1l1.8-1.5l1.5-0.8l4.1,1.2l3.3,0.2l0.8,0.8l0.1,3.6l5.2,0.9l-1.7,1.8l1.2,1.8
	l-1.9,2.4l1.8,0.8l-1.9,2.1l1.2,0.2l1.4-0.9l0.4,1.4l3.4,0.8h3.9l3.8,0.7l4,1.2l0.9,2l1.4,4.8l-2.4,2.1l-3.8-0.9l-1.1-3.9l-0.9,4
	l-3.8,3.5l-0.9,3l-1.1,1.8l-4.1,2.1l-3.7,3.5l-2,2.2l2.7,0.4l4.6-2l2.9-1.8l1.6-0.3l2.6,0.6l1.7-1l2.8-0.8l4.8-0.7l0.3-1.9h-0.3
	l-1.7,0.4l-1.8-0.7l2.3-2.1l1.9-0.8l3.9-0.9l4.7-0.8l1.8,1.1l1.9-1.3l2-0.9l0.9,0.4v0.1l6.8-4.4l2.7-1.1l7.8-0.1h9.3l1.1-1.5
	l1.7-0.3l2.5-1l2.8-2.9l3.2-4.9l5.5-4.7l1.1,1.6l3.7-1l1.6,1.8l-2.9,8.5l2.2,3.6l5.9-0.8l8.1-0.2l-10.4,5.3l-1.5,5.3l3.7,0.5
	l7.2-4.6l5.8-2.5l12.4-3.8l7.4-4.1l-2.5-2.3l1-4.6l-7.2,7.1l-8.6,0.9l-5.6-3.1l-0.1-4.8l0.6-6.7l6.1-4.2l-3.3-3.1l-7.6,0.6
	l-12.3,5.2l-10.9,8.3l-4.7,1l7.9-5.8l10.1-8.2l7.4-2.8l5.7-4.5l5.3-0.4h7.3l10.1,1.4l8.6-1.1l7.9-5l8.8-2.2l4.2-2.2l4.3-2.3l2-6.9
	L549.2,176.5z M209.7,159.5c0.1-0.4,0.3-0.8,0.5-1.2l2.6,2.2l1,0.8l1.9,1.6l1.9-1.6l1-0.8l2.6-2.2c0.2,0.4,0.4,0.8,0.5,1.2l-2.2,1.9
	l2.1,2c-0.1,0.4-0.3,0.8-0.6,1.2l-2.5-2.4l-2.9,2.3l-2.9-2.3l-2.5,2.4c-0.2-0.4-0.4-0.8-0.6-1.2l2.1-2L209.7,159.5z"/>
<path class="st1" d="M370.7,65.6L366,68l10.5-1.5l2.6,2.6l7.3-2.7l1.8,1.7l-2.2,5.1l4.3-2.1l2.8-5.3l4.3-0.8l3,0.8l2.2,2.1l-2.7,5.1
	l-2.4,3.7l4.2,2.6l5,2.6l-2.6,2.3l-7.1,0.5l0.8,2l-3.2,2l-6.7-0.8l-5.7-1.5l-5.1,0.3l-9.5,1.9l-11.3,0.8l-7.9,0.5l0.3-2.6l-4.1-1.4
	l-4.3,0.6l-0.6-4.3l3.3-0.6l7.3-0.9l5.5,0.3l6.2-1l-6.5-1.2l-9.1,0.4l-5.7-0.1v-1.9l11.7-2.2l-6.3,0.1l-5.4-1.4l7.8-3.9l5.2-2.1
	l14.2-3.1L370.7,65.6z"/>
<path class="st1" d="M410.2,64.1l-7,3.4l-2.3-3.6l2.1-0.8l5.5-0.2L410.2,64.1z"/>
<path class="st1" d="M518.8,65.7l-0.7,1.4L514,67l-4.1-0.1l-4.9,0.7l-0.9-0.4l-2.1-2.7l1.7-1.8l2.2-0.4l8.4,0.6L518.8,65.7z"/>
<path class="st1" d="M479,65.4l0.3,3.2l7.2-4.1l11.7-2.1l2.3,5.3l-3.2,3.4l9-1.5l5.3-2.1l6.8,2.6l3.7,2.5l-1.1,2.3l8.2-1.2l1.9,3.4
	l8.4,2.1l2.2,2.1l0.9,5.1l-9.1,2.5l7.7,3.6l5.9,1.2l3.3,5l6.5,0.4l-3.3,3.9l-10.9,6.5l-4-2.4l-3.8-5.4l-5.9,0.7l-2.3,3.3l2.7,3.2
	l4.5,2.6l1,1.5l-0.1,5.7l-3.6,4.1l-4.7-1.6l-8.6-4.5l3.6,4.9l2.8,3.5l-0.3,2l-10.9-2.3l-7.6-3.4l-3.8-2.7l2.4-1.7l-4.8-2.9l-4.7-2.7
	l-0.9,1.6l-13.1,0.9l-2.4-1.9l5.4-4.2l8.1-0.1l9.3-0.7l-0.2-2l3.1-2.8l8.8-5.4l0.4-2.5l-0.5-1.8l-4.7-2.7l-7.1-1.8l3.5-1.4l-2-3.4
	l-3.4-0.3l-1.9-1.8l-3.3,1.6l-7.9,0.7l-14-1.2l-7.4-1.6l-5.9-0.8l-1.9-1.9l6.3-2.4h-5.7l3.3-5.3l7.1-4.6l6-2.1l11.2-1.4L479,65.4z"
	/>
<path class="st1" d="M428.6,61.9l3.6,1.1l7.6-0.7l-0.5,1.5l-6.1,2.5l3.8,2.2l-5.2,4.7l-8.4,2l-3.4-0.4l-0.9-2l-5.9-4l1.7-1.7
	l7.4,0.6l-0.9-3.3L428.6,61.9z"/>
<path class="st1" d="M451.2,67.4l-7.8,3.9l-4.4-0.2l1.8-4.6l2.6-2.5l4.2-2.2l5.2-1.4l7.9,0.2l6.2,1.2l-10.1,4.6L451.2,67.4z"/>
<path class="st1" d="M335.4,74.6l-13.5,2.6l0.6-2.3l-6-2.8l4.4-2.2l7.5-3.8l7.6-3.4l0.4-3.1l14-0.8l4.2,1.1l9.5,0.3l1.9,1.4l1.6,2.2
	l-6.5,1.3l-13.9,3.6l-9.2,3.7L335.4,74.6z"/>
<path class="st1" d="M460.6,56.2l-4.1,1.9l-5.2-0.4l-3.2-1.3l4.5-2.2l6.9-1.4l1.4,1.8L460.6,56.2z"/>
<path class="st1" d="M451.8,47.5l0.2,2.3l-2.8,2.5l-5.8,3.8l-6.9,0.5l-3.2-0.8l3.4-2.9l-6.6,0.3l4.3-3.8l3.8,0.2l7.7-1.7l4.9,0.3
	L451.8,47.5z"/>
<path class="st1" d="M412.4,50.1l-0.7,1.7l4.4-0.8l3.6,0.2l-2.3,2.5l-5.1,2.3l-13.9,0.8L386.1,59l-6,0.1l1.5-1.6l10.7-2.3l-17.9,0.6
	l-4.2-0.9l11.7-4.8l5.4-1.4l8.3,1.7l2.9,2.9l6.1,0.4l0.7-4.7l5.8-1.8l3.1,0.5L412.4,50.1z"/>
<path class="st1" d="M468.1,45.7l2.3,1.6h7.4l1.4,1.6l-2.8,1.8l3.1,1.1l1.2,1.2l4.9,0.2l5.1,0.4l7.1-1l8.1-0.5l5.8,0.4l2.3,1.9l-1,2
	l-3.6,1.4l-6.7,1.1l-4.3-0.7L486.6,59l-8,0.1l-5.6-0.6l-8.6-1.6l1.6-2.8l2.1-2.4l-1.4-2.2l-7-0.6l-2.6-1.5l3.8-2L468.1,45.7z"/>
<path class="st1" d="M392.4,43.1l-5.8,3.7l-5.3,1.7l-3.8,0.2l-9.9,2.1l-7.1,0.8l-3.6-1.1l11.7-3.7l12.2-3.1l5.5,0.1L392.4,43.1z"/>
<path class="st1" d="M473.6,43.7l-1.8,0.1l-6.6-0.3l0.7-1.3l7.2,0.1l1.6,0.8L473.6,43.7z"/>
<path class="st1" d="M414.8,42.8l-8.8,1.4l-3.3-1.5l5.1-1.5l6-0.5l4.1,0.7L414.8,42.8z"/>
<path class="st1" d="M422.6,38.6l-5.7,0.9h-6l1-0.7l5.7-1.3l1.7,0.2L422.6,38.6z"/>
<path class="st1" d="M469.4,41.1l-6.6,1l-1.6-1.1l0.6-1.7l2.2-1.9l4.4,0.2l1.7,0.3l2.3,1.6L469.4,41.1z"/>
<path class="st1" d="M455.6,39.9l-1.1,1.9l-5.3-0.5l-4-1.5l-7.8-0.2l5.3-1.3l-2.8-1.1l2.2-1.8l6.1,0.6l7.5,1.7L455.6,39.9z"/>
<path class="st1" d="M509.7,33.8l2.7,1.5l-6.5,1.3l-10.6,3.5l-6.8,0.3l-6.8-0.6l-1.6-1.9l2.1-1.6l4.3-1.2h-6.6l-2-1.5l0.4-1.9
	l4.9-1.9l4.1-1.3l4-0.3l-0.3-1l8.3-0.2l1.6,2.2l4.7,0.9l4.8,0.9L509.7,33.8z"/>
<path class="st1" d="M588.9,19.8l8.7,0.3l6.7,0.5l5.2,1l-1.1,1l-9.8,1.7l-9,0.8l-4,0.9h7.5l-10.5,2.5l-6.8,1.2l-9.3,3.5l-8.1,0.7
	l-3.1,1L544,35.3l4.4,0.6l-3.3,0.8l0.7,2.3l-5,1.6l-6.9,1.3l-3.5,1.8l-6.6,1.5l-0.5,1.1l6.5-0.2l-1.1,1.2L516,50.2l-8.5-1.4
	l-11.7,0.8l-5-0.6l-6.8-0.3l2.1-2.3l8-1.1l2-3.4l2.6-0.3l7.5,2l-1.7-3l-4.9-0.9l5-1.8l7.6-1.1l2.8-1.6l-3-1.7l1.1-2.2l9.4,0.1
	l2.2,0.5l7.3-1.6l-7.3-0.5l-12.6,0.3l-4.4-1.4l-0.8-1.7l-2.5-1.2l1.1-1.3l6-0.8l4.2-0.1l7.4-0.6l6.8-1.5l3.9,0.2l2.4,1.1l5-2
	l5.2-0.6l6.5-0.4l10.4-0.2l1.3,0.4l10.3-0.6l7,0.2L588.9,19.8z"/>
<path class="st1" d="M371.2,211.4l-6.1,2l-4.7,2.5l-4.6,2.7l-0.5,0.9l5.7-1.3l2.1,2.1l4.6-1.5l4.9-2.1l5.4-2.1l-3.1,3.3l2.5,0.8
	l2.5,2.4l5.1-1.4l5.1-0.5l0.3,1.8l1.5,0.2l1.2,0.2l1.5,2.5l-4.7,0.6h-0.1l-3.7-0.7l-4.5,1.2l-3.7,0.6l-4.7,4.1l-3,2.3l0.4,0.7
	l5.5-4.1h0.7l-4.7,4.9l-2.9,4.4l-2.5,3.6l-0.6,3.1l-0.8,1.5l-0.6,1.7l0.1,3.3l0.3,0.5l1.8-0.1l1.6-0.7l1.4-0.8l3.3-3.1l1.8-4.2
	l-0.1-3.9l1.4-2.7l2.6-3.1l2.1-2.2l2.7-1.5l-0.4,2.1l2.2-3.1l1.3-0.6l1.7-2.4l3.8,1.3l2.8,2.4l-0.8,2.9l-1.6,2.9l-3.8,2.5l-0.4,1.6
	h1l4.3-2.7l1.6,0.6l-0.5,3.7l-0.7,2.6l-3.7,3.5l-2,2.2l-2.7,2.4l2.7,1.3l2.5,0.4l4-0.9l3.7-1.7l3-0.9l4.6-1.8l5.8-3.8l0.1-0.6
	l0.3-1.9l2.7-0.8l3.9,0.3l4,0.5l4.6-2.1l0.6-2.5l-0.2-0.9l6.8-4.4l2.7-1.1l7.8-0.1h9.3l1.1-1.5l1.7-0.3l2.5-1l2.8-2.9l3.2-4.9
	l5.5-4.7l1.1,1.6l3.7-1l1.6,1.8l-2.9,8.5l2.2,3.6l0.2,2.1l-6.4,3l-6,2.2l-6,1.9l-4,3.8l-1.3,1.4l-1.2,3.4l0.7,3.3l2.1,0.2l0.2-2.3
	l1.1,1.4l-1,1.8l-3.8,1l-2.5-0.1l-4.2,1.1l-2.3,0.3l-3.1,0.3l-5,1.9l8.1-1.2l1.1,1.2L436,258h-3.3l0.4-0.8L431,259l1.4,0.3l-2.5,4.6
	l-5.3,4.9l0.1-1.7l-1.1-0.3l-1.2-1.6v3.5l1,1.1l-0.6,2.4l-2.4,2.5l-4.5,5.1l-0.4-0.2l2.9-4.4l-2-2.4l1-5.4l-1.9,2.8v4.1l-3.2-1l3,2
	l-1.5,6.1l1.4,0.5v2.2l-1,6.4l-4.6,4.7l-6.1,1.9l-4.4,3.8l-2.8,0.4l-3.4,2.4l-1.3,2.1l-6.9,4.2l-3.8,3.1l-3.5,3.8l-1.9,4.5v4.5
	l0.6,5.5l1.5,4.5l-0.5,2.8l1.3,7.4l-1,4.4l-0.6,2.5l-2,3.9l-1.8,0.8l-2.6-0.8l-0.4-2.8l-1.8-1.5l-2-5.5l-1.6-4.9l-0.4-2.5l2-4.3
	l-0.8-3.5l-3.1-5.4l-1.9-1l-6.1,3l-0.9-0.4l-2-3l-3-1.6l-6.4,0.9l-4.6-0.8l-4.3,0.5l-2.5,1l0.6,1.7l-0.7,2.6l0.8,1.3l-1.2,0.8
	l-1.8-0.9l-2.3,1.2l-3.9-0.2l-3.3-3.4l-4.9,0.8l-3.6-1.5l-3.5,0.5l-5,1.5l-6.1,4.7l-6.1,2.8l-3.7,3l-1.9,2.9l-1,4.5l-0.4,3l0.6,2.2
	l-2.2,0.2l-3.6-1.4l-3.9-2l-0.9-3l-0.2-4.5l-2.4-3.6l-0.9-3.8l-1.6-4.4l-3.2-2.6l-4.5,0.2l-4.8,5l-4-1.9l-2.3-1.9l-0.4-3.6l-0.8-3.3
	l-2.4-2.8l-2.1-2.1l-1.3-2.3h-9.4l-0.8,2.7h-4.3h-10.8l-10.9-4.5l-7-3.1l0.9-1.3l-7.1,0.7l-6.3,0.5l0.3-3.2l-2.1-3.7l-2.2-0.8
	l0.1-1.8l-2.9-0.4l-1.2-1.7l-4.8-0.6l-0.9-1.1l0.8-3.5l-2.5-6.4l-0.5-8.9l0.9-1.5l-1.3-2.1l-1.5-5.4l1.8-5.2l-0.9-3.5l3.9-5.3
	l2.8-5.4l1.1-4.9l5.5-6l4-5.7l4-5.7l4.3-8.5l1.8-5.3l0.4-2.9l1.4-1.3l5.8,2.2l-1,5.9l2.2-1.7l2.5-5.1l1.6-5.1h14.1h14.7h4.8h15.1
	h14.7h14.8h14.9h16.8h17h10.2l1.3-2.4h1.7l-0.9,3.4l1,1l3.3,0.4l4.6,1l3.9,1.9l4.4-0.8L371.2,211.4z"/>
<path class="st1" d="M106.7,155.5l-7,2.3l-0.8-1.6l2.3-2.8l6.4-2.1l3.5-0.9l2.6,0.4v1.9L106.7,155.5z"/>
<path class="st1" d="M67.7,138.9l-3.9,0.9l-1.7-1.1l-0.8-1.6l5.7-1l3,0.6L67.7,138.9z"/>
<path class="st1" d="M68.9,116.5l1.2,1l3.5-0.5l1.6,1.5l3.3,0.7l-1.2,0.7l-4.9,1.2l-1.7-1.3l-0.3-1l-4.3,0.3l-0.3-0.5L68.9,116.5z"
	/>
<path class="st1" d="M241.7,83.5l-24.6,20.4l-35.6,32.7l4.2,0.2l2.8,1.6l0.5,2.6l0.3,3.8l7.6-3.3l6.5-1.9l-0.6,3.1l0.8,2.4l1.6,2.7
	l-1.1,4.2l-1.4,6.9l4.6,3.8l-3.2,3.8l-5.1,2.9l-0.6-2.2l-2.5-2l3.3-5.2l-1.6-4.9l2.7-5.6l-4.1-0.4l-7.1-0.1l-3.8-1.8l-3.3-6.1
	l-3.3-1.1l-5.7-2.1l-6.8,0.5l-6-2.7l-2.7-2.5l-6.3,1.2l-3.5,4.1l-2.9,0.4l-6.6,1.2l-6.2,2l-6.4,1.3l3.2-3.5l8.4-5.8l6.8-1.8l0.4-1.4
	l-9.4,3.2l-7.4,3.9l-11.2,4.2l0.2,2.9l-9,4.2l-7.7,2.5l-6.6,1.9l-4,2.6l-10.6,3.1l-4.5,2.8l-8.2,2.6l-2.7-0.4l-6.2,1.6l-7,2.1
	l-6.1,2l-10,1.8l0.4-1.1l8.2-2.8l6.6-1.9l8.6-3.3l6.5-0.6l5-2.5l10.4-3.6l2.3-1.2l5.7-2.1l5.8-4.5l6.2-3.5l-7.3,1.8l-0.3-1.1
	l-4.9,2.2l0.4-3l-3.6,2.1l1.6-2.9l-7.3,2.3h-2.8l3.7-3.5l3.3-2.2l-0.4-2.1l-7.2,1.2l-0.6-2.8l-1.3-1.4l4-3.3l-0.4-2.5l5.9-3.3
	l7.7-3.3l5.3-2.9l4.1-0.4l1.8,0.9l7.1-2.8l2.5,0.5l5.6-1.8l2.5-2.6l-1.1-1l6-2.2l-2.8,0.1L115,112l-2.9,1.3l-1.8-1.3l-6.9,0.7
	l-4.6-1.4l1.2-2.3l-1-3.2l9.2-2.4l13.2-2.7h3.5l-4.3,2.8l9.2-0.2l1.2-3.5l-2.3-2.1l0.8-2.8l-0.7-2.3l-3.3-1.7L132,88l7.5-0.2
	l8.8-2.4l4.8-2.6l7.9-2.6l4.8-0.6l11.2-2.4l3.1,0.4l10.4-2.8l4.4,1.1l-0.5,2.4l3.3-1l6.3,0.3l-1.9,1.2l4.9,0.9l4.9-0.5l6.2,1.6
	l7.2,0.6l2.2,0.6l6.6-0.8l4.1,1.6L241.7,83.5z"/>
<path id="BM" class="st1" d="M469,310.9h-0.3l-0.1,0.1l0.1,0.2l-0.4,0.2l-0.1-0.1l0.2-0.1h0.1l0.1-0.3l0.3-0.1L469,310.9L469,310.9z
	"/>
<circle class="st2" cx="189.7" cy="292.1" r="5"/>
<circle class="st2" cx="426.5" cy="224.9" r="5"/>
<circle class="st2" cx="361.7" cy="250.8" r="5"/>
<circle class="st2" cx="431.5" cy="256.7" r="5"/>
<circle class="st2" cx="491.5" cy="188.9" r="5"/>
<circle class="st3" cx="215.7" cy="193.9" r="15.2"/>
<path id="Icon_material-location-on" class="st2" d="M215.7,143.7c-4.1,0-7.8,1.4-10.8,3.7c-3.2,2.5-5.6,6-6.5,10.2
	c-0.3,1.2-0.5,2.5-0.5,3.8c0,0.2,0,0.5,0,0.7c0.1,2.2,0.7,4.7,1.6,7.1c1.6,4.4,4.2,8.9,6.8,12.9c0.2,0.2,0.3,0.5,0.5,0.7
	c4.5,6.5,8.9,11.4,8.9,11.4s4.8-5.3,9.4-12.2c4.3-6.4,8.5-14.3,8.5-20.7C233.3,151.6,225.4,143.7,215.7,143.7z M222,161.3
	c0,0.7-0.1,1.4-0.4,2c-0.1,0.4-0.3,0.8-0.6,1.2c-1.1,1.8-3.1,3.1-5.4,3.1c-2.3,0-4.3-1.2-5.4-3c-0.2-0.4-0.4-0.8-0.6-1.2
	c-0.2-0.6-0.3-1.3-0.3-2c0-0.6,0.1-1.3,0.3-1.8c0.1-0.4,0.3-0.8,0.5-1.2c1.1-1.9,3.1-3.2,5.5-3.2c2.3,0,4.4,1.3,5.5,3.2
	c0.2,0.4,0.4,0.8,0.5,1.2C221.9,160.1,222,160.7,222,161.3z"/>
<path class="st2" d="M219.5,161.3l2.1,2c-0.1,0.4-0.3,0.8-0.6,1.2l-2.5-2.4l-2.9,2.3l-2.9-2.3l-2.5,2.4c-0.2-0.4-0.4-0.8-0.6-1.2
	l2.1-2l-2.2-1.9c0.1-0.4,0.3-0.8,0.5-1.2l2.6,2.2l1,0.8l1.9,1.6l1.9-1.6l1-0.8l2.6-2.2c0.2,0.4,0.4,0.8,0.5,1.2L219.5,161.3z"/>
<path id="Icon_zocial-email" class="st3" d="M226.9,155.1l-5.2,4.4l-2.2,1.9l2.1,2l5.2,5c0-0.1,0.1-0.3,0.1-0.4v-12.5
	C226.9,155.3,226.9,155.2,226.9,155.1z M221.1,164.5l-2.5-2.4l-2.9,2.3l-2.9-2.3l-2.5,2.4l-4.9,4.7c0.1,0,0.2,0.1,0.4,0.1h19.8
	c0.1,0,0.2,0,0.4-0.1L221.1,164.5z M225.6,154.1h-19.8c-0.1,0-0.2,0-0.4,0.1l4.8,4.1l2.6,2.2l1,0.8l1.9,1.6l1.9-1.6l1-0.8l2.6-2.2
	l4.8-4.1C225.8,154.2,225.7,154.1,225.6,154.1z M209.7,159.5l-5.2-4.4c0,0.3-0.1,0.4-0.1,0.4v12.5c0,0.2,0,0.3,0.1,0.4l5.2-5l2.1-2
	L209.7,159.5z"/>
</svg>
