<?xml version="1.0" encoding="utf-8"?>
<!-- Generator: Adobe Illustrator 25.3.1, SVG Export Plug-In . SVG Version: 6.00 Build 0)  -->
<svg version="1.1" id="Layer_1" xmlns="http://www.w3.org/2000/svg" xmlns:xlink="http://www.w3.org/1999/xlink" x="0px" y="0px"
	 viewBox="0 0 2000 588" style="enable-background:new 0 0 2000 588;" xml:space="preserve">
<style type="text/css">
	
		.st0{opacity:0.1;fill:#FFFFFF;stroke:#2F3B40;stroke-width:0.2;stroke-linecap:round;stroke-linejoin:round;enable-background:new    ;}
	
		.st1{opacity:0.4;fill:#FFFFFF;stroke:#2F3B40;stroke-width:0.2;stroke-linecap:round;stroke-linejoin:round;enable-background:new    ;}
	.st2{fill:#5CBFB8;}
	.st3{fill:#2F3B40;}
</style>
<path id="AF" class="st0" d="M1383,308.6l1.5,1.8l-2.9,0.8l-2.4,1.1l-5.9,0.8l-5.3,1.3l-2.4,2.8l1.9,2.7l1.4,3.2l-2,2.7l0.8,2.5
	l-0.9,2.3l-5.2-0.2l3.1,4.2l-3.1,1.7l-1.4,3.8l1.1,3.9l-1.8,1.8l-2.1-0.6l-4,0.9l-0.2,1.7h-4.1l-2.3,3.7l0.8,5.4l-6.6,2.7l-3.9-0.6
	l-0.9,1.4l-3.4-0.8l-5.3,1l-9.6-3.3l3.9-5.8l-1.1-4.1l-4.3-1.1l-1.2-4.1l-2.7-5.1l1.6-3.5l-2.5-1l0.5-4.7l0.6-8l5.9,2.5l3.9-0.9
	l0.4-2.9l4-0.9l2.6-2l-0.2-5.1l4.2-1.3l0.3-2.2l2.9,1.7l1.6,0.2h3l4.3,1.4l1.8,0.7l3.4-2l2.1,1.2l0.9-2.9l3.2,0.1l0.6-0.9l-0.2-2.6
	l1.7-2.2l3.3,1.4l-0.1,2l1.7,0.3l0.9,5.4l2.7,2.1l1.5-1.4l2.2-0.6l2.5-2.9l3.8,0.5H1383L1383,308.6z"/>
<polygon class="st0" points="1079.2,587.9 1056.3,587.9 1058.4,587.1 1060.1,587.2 1062.1,586.5 1078.8,586.6 "/>
<path class="st0" d="M1055.3,586l-1.5-4.8l2.3-2.8l1.7-1.1l2.1,2.2l-2,1.4l-1,1.6l-0.2,2.8L1055.3,586z"/>
<path id="AL" class="st0" d="M1088,275l0.4,1.2l1.4-0.6l1.2,1.7l1.3,0.7l0.6,2.3l-0.5,2.2l1,2.7l2.3,1.5l0.1,1.7l-1.7,0.9l-0.1,2.1
	l-2.2,3.1l-0.9-0.4l-0.2-1.4l-3.1-2.2l-0.7-3l0.1-4.4l0.5-1.9l-0.9-1l-0.5-2.1L1088,275L1088,275z"/>
<path id="AE" class="st0" d="M1296.2,383.7l1.3,5.1h-2.8v4.2l1.1,0.9l-2.4,1.3l0.2,2.6l-1.3,2.6v2.6l-1,1.4l-16.9-3.2l-2.7-6.6
	l-0.3-1.4l0.9-0.4l0.4,1.8l4.2-1l4.6,0.2l3.4,0.2l3.3-4.4l3.7-4.1l3-4L1296.2,383.7L1296.2,383.7z"/>
<path id="AM" class="st0" d="M1230.8,300l-1.8,0.2l-2.8-3.7l-0.2-1h-2.3l-1.9-1.7l-1,0.1l-2.4-1.8l-4.2-1.6l-0.1-3.1l-1.3-2.2l7-1
	l1.4,1.6l2.2,1.1l-0.7,1.6l3.2,2.2l-1.1,2.1l2.6,1.7l2.5,1L1230.8,300L1230.8,300z"/>
<path id="AT" class="st0" d="M1070.6,237.8l-0.3,0.8l0.7,2.1l-0.2,2.6h-2.8l1.1,1.4l-1.3,4l-0.9,1.1l-4.4,0.1l-2.4,1.5l-4.2-0.5
	l-7.3-1.7l-1.3-2.1l-4.9,1.1l-0.5,1.2l-3.1-0.9l-2.6-0.2l-2.3-1.2l0.7-1.5l-0.2-1.1l1.4-0.3l2.7,1.7l0.6-1.7l4.4,0.3l3.5-1.1
	l2.4,0.2l1.7,1.3l0.4-1.1l-1-4.1l1.7-0.8l1.6-2.9l3.8,2.1l2.6-2.6l1.7-0.5l4,1.9l2.3-0.3L1070.6,237.8L1070.6,237.8z"/>
<path class="st0" d="M1229,300.2l-3.8-0.9l-3.2-2.9l-1.2-2.5l1-0.1l1.9,1.7h2.3l0.2,1L1229,300.2z"/>
<path class="st0" d="M1235.3,283.2l2.5-2.6l3.5,3.3l3.6,4.6l2.5,0.3l1.9,1.7l-4.2,0.5l0.1,5l-0.4,2.2l-1.7,1.5l0.8,3.1l-1.3,0.4
	l-3.9-3.4l1.2-3.1l-1.9-1.9l-1.9,0.5l-5.3,4.7l-0.9-4.5l-2.5-1l-2.6-1.7l1.1-2.1l-3.2-2.2l0.7-1.6l-2.2-1.1l-1.4-1.6l1.1-1.1
	l4.2,1.9l2.9,0.3l0.6-0.7l-3.3-3.5l1.2-0.8l1.5,0.2l4.3,3.8l2.4,0.5L1235.3,283.2z"/>
<path id="BI" class="st0" d="M1154.9,577.4l-0.6,0.1v-0.3l-2-6.1V571l-0.1-1l-1.4-2.9l3.5,0.5l1.7-3.7l3.1,0.4l0.3,2.5l1.2,1.5v2.1
	l-1.4,1.3l-2.3,3.4L1154.9,577.4L1154.9,577.4z"/>
<path id="BE" class="st0" d="M1016.5,224.1l-0.4,4.2l-1.3,0.2l-0.4,3.5l-4.4-2.9l-2.5,0.5l-3.5-2.9l-2.4-2.5l-2.2-0.1l-0.8-2.2
	l3.9-1.2l3.6,0.5l4.5-1.3l3.1,2.7L1016.5,224.1L1016.5,224.1z"/>
<path id="BJ" class="st0" d="M1006.7,474l-0.2,2.1l1.3,3.8l-1.1,2.6l0.6,1.7l-2.8,4l-1.7,2l-1.1,4l0.2,4.1l-0.3,10.3l-4.7,0.8
	l-1.4-4.4l0.3-14.8l-1.2-1.3l-0.2-3.2l-2-2.2l-1.7-1.9l0.7-3.4l2-0.7l1.1-2.8l2.8-0.6l1.2-1.9l1.9-1.9h2L1006.7,474L1006.7,474z"/>
<path id="BF" class="st0" d="M988.5,453l-0.5,3.1l0.8,2.9l3.1,4.2l0.2,3.1l6.5,1.5l-0.1,4.4l-1.2,1.9l-2.8,0.6l-1.1,2.8l-2,0.7
	l-4.9-0.1l-2.6-0.5l-1.8,1l-2.5-0.5l-9.8,0.3l-0.2,3.7l0.8,4.8l-3.9-1.6l-2.6,0.2l-2,1.6l-2.5-1.3l-1-2.2l-2.5-1.4l-0.4-3.7l1.6-2.7
	l-0.2-2.2l4.5-5.3l0.9-4.4l1.5-1.6l2.7,0.9l2.4-1.3l0.8-1.7l4.3-2.8l1.1-2l5.3-2.7l3.1-0.9l1.4,1.2H988.5L988.5,453z"/>
<path id="BD" class="st0" d="M1500.6,407.3l0.6,4.6l-2.1-1l1.1,5.2l-2.1-3.3l-0.8-3.3l-1.5-3.1l-2.8-3.7l-5.2-0.3l0.9,2.7l-1.2,3.5
	l-2.6-1.3l-0.6,1.2l-1.7-0.7l-2.2-0.6l-1.6-5.3l-2.6-4.8l0.3-3.9l-3.7-1.7l0.9-2.3l3-2.4l-4.6-3.4l1.2-4.4l4.9,2.8l2.7,0.3l1.2,4.5
	l5.4,0.9l5.1-0.1l3.4,1.1l-1.6,5.4l-2.4,0.4l-1.2,3.6l3.6,3.4l0.3-4.2h1.5L1500.6,407.3L1500.6,407.3z"/>
<path id="BG" class="st0" d="M1132.6,268.6l-2.3,2.6l-1.3,4.5l2.1,3.6l-4.6-0.8l-5,2l0.3,3.2l-4.6,0.6l-3.9-2.3l-4,1.8l-3.8-0.2
	l-0.8-4.2l-2.8-2.1l0.7-0.8l-0.6-0.8l0.6-2l1.8-2l-2.8-2.7l-0.7-2.4l1.1-1.4l1.8,2.6l1.9-0.4l4,0.9l7.6,0.4l2.3-1.6l5.9-1.5l4,2.3
	L1132.6,268.6L1132.6,268.6z"/>
<path id="BA" class="st0" d="M1083,261.3l1.9-0.1l-1.1,2.8l2.7,2.5l-0.5,2.9l-1.1,0.3l-0.9,0.6l-1.6,1.5l-0.4,3.5l-4.8-2.4l-2.1-2.7
	l-2.1-1.4l-2.5-2.4l-1.3-1.9l-2.7-3l0.8-2.6l2,1.5l1-1.4l2.3-0.1l4.5,1.1l3.5-0.1L1083,261.3L1083,261.3z"/>
<path id="BY" class="st0" d="M1141.6,209.7l-3.9-0.2l-0.8,0.6l1.5,2l2,4l-4.1,0.3l-1.3,1.4l0.3,3.1l-2.1-0.6l-4.3,0.3l-1.5-1.5
	l-1.7,1.1l-1.9-0.9l-3.9-0.1l-5.7-1.5l-4.9-0.5l-3.8,0.2l-2.4,1.6l-2.3,0.3l-0.5-2.8l-1.9-2.8l2.8-1.3l-0.4-2.4l-1.7-2.3l-0.6-2.7
	h4.7l4.8-2.3l0.5-3.4l3.6-2l-1-2.7l2.7-1l4.6-2.3l5.3,1.5l0.9,1.5l2.4-0.7l4.8,1.4l1.1,2.9l-0.7,1.6l3.8,4l2.1,1.1v1.1l3.4,1.1
	l1.7,1.6L1141.6,209.7L1141.6,209.7z"/>
<path id="BZ" class="st0" d="M487.8,446.8h-1.7l1.3-7.2l0.7-5.1l0.1-1l0.7-0.3l0.9,0.8l2.5-3.9l1.1-0.1l-0.1,1h1l-0.3,1.8l-1.3,2.7
	l0.4,1l-0.9,2.3l0.3,0.6l-1,3.3l-1.3,1.7l-1.1,0.2L487.8,446.8L487.8,446.8z"/>
<polygon class="st0" points="787.9,587.9 572,587.9 572,587.9 573.4,585.7 573.7,582.7 580,578.3 584.6,577.1 585.4,576.1 
	590.5,576.4 592.7,558.8 592.8,556 591.9,552.4 589.3,550 589.4,545.3 592.6,544.3 593.7,545 593.9,542.5 590.6,541.8 590.6,537.8 
	601.6,538 603.5,535.7 605.1,537.8 606.1,541.6 607.2,540.8 610.3,544.2 614.7,543.8 615.8,541.8 620,540.3 622.4,539.2 
	623.1,536.5 627.2,534.7 626.9,533.3 622.1,532.8 621.4,528.7 621.7,524.4 619.2,522.8 620.3,522.2 624.4,523 628.9,524.6 
	630.6,523.1 634.7,522.1 641.1,519.7 643.2,517.2 642.5,515.4 645.5,515.2 646.7,516.6 645.9,519.5 647.9,520.4 649.1,523.4 
	647.5,525.7 646.5,531.1 647.9,534.4 648.2,537.4 651.7,540.4 654.5,540.7 655.1,539.4 656.9,539.1 659.5,538 661.3,536.3 
	664.5,536.9 665.8,536.6 668.9,537.2 669.5,535.8 668.5,534.6 669.1,532.7 671.4,533.3 674.1,532.6 677.3,534 679.8,535.3 
	681.5,533.6 682.8,533.8 683.6,535.6 686.3,535.2 688.5,532.7 690.3,528 693.7,522.1 695.7,521.8 697,525.4 700,536.6 703.1,537.7 
	703.2,542.1 698.9,547.4 700.6,549.3 710.7,550.3 710.9,556.8 715.2,552.6 722.3,554.9 731.8,558.8 734.6,562.5 733.7,566.1 
	740.3,564.1 751.3,567.5 759.8,567.3 768.2,572.6 775.6,579.8 780,581.6 784.8,581.9 786.9,583.9 "/>
<path id="BN" class="st0" d="M1633.1,519.8l2.2-2.4l4.6-3.6l-0.1,3.2l-0.1,4.1l-2.7-0.2l-1.1,2.2L1633.1,519.8L1633.1,519.8z"/>
<path id="BT" class="st0" d="M1488.8,370.5l2.6,2.1l0.5,3.9l-4.5,0.2l-4.7-0.4l-3.2,1l-5.5-2.5l-0.4-1.2l2.6-4.8l2.6-1.6l4.3,1.4
	l2.9,0.2L1488.8,370.5L1488.8,370.5z"/>
<path id="CF" class="st0" d="M1121.3,493.5l3.9,2.5l3.1,2.6l0.1,2.1l3.9,3.3l2.4,2.8l1.4,3.8l4.3,2.6l0.9,2l-1.8,0.7l-3.7-0.1
	l-4.2-0.7l-2.1,0.5l-0.9,1.6l-1.8,0.2l-2.2-1.4l-6.3,3.2l-2.6-0.6l-0.8,0.5l-1.6,3.9l-4.3-1.3l-4.1-0.6l-3.6-2.4l-4.7-2.2l-3,2.1
	l-2.2,3.2l-0.5,4.5l-3.6-0.3l-3.9-1.1l-3.3,3.4l-3,6l-0.6-1.9l-0.3-2.9l-2.6-2.1l-2.1-3.3l-0.5-2.3l-2.7-3.4l0.5-1.9l-0.6-2.7l0.4-5
	l1.4-1.1l2.8-6.5l4.6-0.5l1-1.7l1,0.2l1.4,1.4l7.1-2.4l2.4-2.5l2.9-2.3l-0.6-2.2l1.6-0.6l5.5,0.4l5.2-3l4-7l2.8-2.6l3.6-1.1l0.7,2.7
	l3.3,4v2.7l-0.8,2.6l0.4,2l1.9,1.9L1121.3,493.5L1121.3,493.5z"/>
<path class="st1" d="M665.9,250.6l3.4,0.9l4.7-0.2l-3.3,2.6l-2,0.4l-5.5-2.7l-0.6-2.1l2.5-1.9L665.9,250.6z"/>
<path class="st1" d="M680.3,234.6l-2.4,0.1l-5.8-1.9l-3.5-3l1.9-0.5l5.9,1.6l4.2,2.6L680.3,234.6z"/>
<path class="st1" d="M372.4,238.3l-3.1,0.9l-6.3-2.8v-2.2l-2.9-2.2l0.3-1.8l-4.3-1.1l0.6-3.4l1.5-1.4l4.1,1.3l2.4,1l4.1,0.6l0.2,2.2
	l0.4,2.9l3.2,2.6L372.4,238.3z"/>
<path class="st1" d="M711.5,224.8l-5,5.4l3.9-2.1l2.9,1.4l-2.4,2.1l3.8,1.7l2.8-1.5l4.3,1.9l-2.8,4.6l3.8-1.1l-0.3,3.3l0.5,3.9
	l-3.6,5.6l-2.4,0.2l-2.9-1.2l2.5-5.1l-1.2-0.8l-7.3,5.4l-3-0.2l4.4-3l-4.4-1.5l-5.5,0.4L690,244l-0.2-1.8l3.8-2.3l-1.7-1.6l5.4-3.8
	l8.2-9.9l4.2-3.5l5-2.1l2.1,0.2l-1.5,1.7L711.5,224.8z"/>
<path class="st1" d="M351.5,203.4l1.5,0.8l5-0.5l-7.2,6.9l0.3,5h-1.9l-0.7-2.8l0.5-2.9l-0.8-1.9l1.3-2.7L351.5,203.4z"/>
<path class="st1" d="M634.9,155.9l-3.6,3l-1.7-0.5l-0.1-1.7l0.4-0.4l2.8-1.7l1.7,0.1L634.9,155.9z"/>
<path class="st1" d="M625.2,152.7l-7.2,3.2l-3-0.2v-1.5l5-2.7l6,0.1L625.2,152.7z"/>
<path class="st1" d="M622.1,135.9l-0.9,2.5l2.7-0.9l1.5,1.5l3.5,2l3.8,1.7l-1.4,2.7l3.5-0.4l1.9,1.9l-5,1.8l-5.9-1.4l-0.8-2.6
	l-6.3,3.1l-8.2,2.9l0.7-3.3l-6.3,0.5l5.7-2.8l3.6-4.5l5.1-5.1L622.1,135.9z"/>
<path class="st1" d="M667,127.6l-4.9,0.3l0.7-2.7l3.8-3.1l4.3-0.7l2.3,1.5l-1.5,2.3l-0.9,0.8L667,127.6z"/>
<path class="st1" d="M592.5,116.9l-4.1,1.9l-4.2-1.6l-3.9,0.5l-3.4-2.4l5-1.7l4.9-2.3l3,1.5l1.6,1l0.4,1L592.5,116.9z"/>
<path class="st1" d="M645.5,259.5l-2.2-3.6l2.9-8.5l-1.6-1.8l-3.7,1l-1.1-1.6l-5.5,4.7l-3.2,4.9l-2.8,2.9l-2.5,1l-1.7,0.3l-1.1,1.5
	h-9.3l-7.8,0.1l-2.7,1.1l-6.8,4.4v-0.1l-0.9-0.4l-2,0.9l-1.9,1.3l-1.8-1.1l-4.7,0.8l-3.9,0.9l-1.9,0.8l-2.3,2.1l1.8,0.7l1.7-0.4h0.3
	l-0.3,1.9l-4.8,0.7l-2.8,0.8l-1.7,1l-2.6-0.6l-1.6,0.3l-2.9,1.8l-4.6,2l-2.7-0.4l2-2.2l3.7-3.5l4.1-2.1l1.1-1.8l0.9-3l3.8-3.5l0.9-4
	l1.1,3.9l3.8,0.9l2.4-2.1l-1.4-4.8l-0.9-2l-4-1.2l-3.8-0.7h-3.9l-3.4-0.8l-0.4-1.4l-1.4,0.9l-1.2-0.2l1.9-2.1l-1.8-0.8l1.9-2.4
	l-1.2-1.8l1.7-1.8l-5.2-0.9l-0.1-3.6l-0.8-0.8l-3.3-0.2l-4.1-1.2l-1.5,0.8l-1.8,1.5l-3.3,1l-3.1,2.5l-5.4-1.7l-4.4,0.8l-3.9-1.9
	l-4.6-1l-3.3-0.4l-1-1l0.9-3.4h-1.7l-1.3,2.4h-10.2h-17h-16.8h-14.9h-14.8h-14.7h-15.1h-4.8h-14.7h-14.1H377l-5.4-6.1l-1.6-2.7
	l-7-2.6l1.3-5.5l3.6-3.7l-4.1-2.7l3.1-4.9l-2.1-4.4l2.5-3.2l5.1-2.9l3.2-3.8L371,189l1.4-6.9l1.1-4.2l-1.6-2.7l-0.8-2.4l0.6-3.1
	l-6.5,1.9l-7.6,3.3l-0.3-3.8l-0.5-2.6l-2.8-1.6l-4.2-0.2l35.6-32.7l24.6-20.4l6,1.3l3.3,2.6l3.7,0.5l6.3-2.2l7-1.7l5.3,0.6l8.9-2.3
	l8.2-1.3l0.2,2.2l4.5-1.3l3.9-2.5l2.1,0.6l1.4,4.8l9.5-3.7l-3.9,4.1l6-0.9l3.2-1.5l4.6,0.3l3.9,2.2l7.5,2l4.7,0.9l4.4-0.3l2.9,2.8
	l-8.5,2.7l6.4,1.1l11.9-0.6l4.4-1l1.4,3.3l7.1-2.7l-2.1-2.4l4.5-1.8l5.2-0.3l3.9-0.5l2.1,1.3l1.5,2.9l5-0.4l5.3,2.5l7.2-0.9l6,0.1
	l2.4-3.4l4.5-0.9l4.9,1.8l-4.3,5.2l6.2-4.4l3.2,0.2l6.4-5.5l-1.6-3.3l-2.9-2.2l5.5-5.9l8.2-3.8l4.5,0.9l2,2.3l0.4,6l-5.8,2.6
	l6.7,1.1l-4.4,5.5l8.9-4.2l2.2,3.5l-4.3,4l1.3,3.7l7.3-3.9l6.5-4.8l4.7-5.9l5.5,0.4l5.4,0.8l3.6,2.7l-1.7,2.7l-5.1,2.9l0.9,2.9
	l-2.4,2.7l-10.9,3.9l-6.5,0.9l-3.2-1.7l-3.3,2.8l-7.4,4.7l-3,2.5l-7.7,3.8l-6.5,0.4l-5.1,2.4l-2.9,3.8l-5.7,0.7l-8.7,4.7l-9.4,6.5
	l-5,4.6l-4.9,6.9l6,1l-1.5,5.5l-0.8,4.6l7.3-1.2l7,2.6l3.3,2.3l1.7,2.8l4.9,1.7l3.6,2.5l7.6,0.4l4.8,0.6l-3.6,5.2l-1.7,6.1l0.1,6.9
	l4.4,5.9l4.7-2l5.6-6.4l2.3-9.6l-1.7-3.2l9-2.9l7.5-4.2l4.8-4.2l1.7-4L630,180l-3.2-4.5l8.9-6.2l1-5.3l3.9-9l3.8-1.4l6.7,1.6
	l4.2,0.6l4.5-1.6l3.1,2l3.6,3.4l0.2,2.2l7.7,0.5l-2.6,4.9l-2.3,7.4l3.8,1l1.6,3.5l8.2-3.3l7.5-6.6l4.2-2.7l1.1,5.3l2.6,7.5l2,7.2
	l-3.4,3.8l4.8,3.4l2.9,3.4l6.9,1.6l2.4,1.9v5.2l3.4,0.8l1.1,2.3l-2,6.9l-4.3,2.3l-4.2,2.2l-8.8,2.2l-7.9,5l-8.6,1.1l-10.1-1.4h-7.3
	l-5.3,0.4l-5.7,4.5l-7.4,2.8l-10.1,8.2l-7.9,5.8l4.7-1l10.9-8.3l12.3-5.2l7.6-0.6l3.3,3.1l-6.1,4.2l-0.6,6.7l0.1,4.8l5.6,3.1
	l8.6-0.9l7.2-7.1l-1,4.6l2.5,2.3l-7.4,4.1l-12.4,3.8l-5.8,2.5l-7.2,4.6l-3.7-0.5l1.5-5.3l10.4-5.3l-8.1,0.2L645.5,259.5z"/>
<path class="st1" d="M539,95.7l-4.7,2.4l10.5-1.5l2.6,2.6l7.3-2.7l1.8,1.7l-2.2,5.1l4.3-2.1l2.8-5.3l4.3-0.8l3,0.8l2.2,2.1l-2.7,5.1
	l-2.4,3.7l4.2,2.6l5,2.6l-2.6,2.3l-7.1,0.5l0.8,2l-3.2,2l-6.7-0.8l-5.7-1.5l-5.1,0.3l-9.5,1.9l-11.3,0.8l-7.9,0.5l0.3-2.6l-4.1-1.4
	l-4.3,0.6l-0.6-4.3l3.3-0.6l7.3-0.9l5.5,0.3l6.2-1l-6.5-1.2l-9.1,0.4l-5.7-0.1v-1.9l11.7-2.2l-6.3,0.1l-5.4-1.4l7.8-3.9l5.2-2.1
	l14.2-3.1L539,95.7z"/>
<path class="st1" d="M578.5,94.2l-7,3.4l-2.3-3.6l2.1-0.8l5.5-0.2L578.5,94.2z"/>
<path class="st1" d="M687.1,95.8l-0.7,1.4l-4.1-0.1l-4.1-0.1l-4.9,0.7l-0.9-0.4l-2.1-2.7l1.7-1.8l2.2-0.4l8.4,0.6L687.1,95.8z"/>
<path class="st1" d="M647.3,95.5l0.3,3.2l7.2-4.1l11.7-2.1l2.3,5.3l-3.2,3.4l9-1.5l5.3-2.1l6.8,2.6l3.7,2.5l-1.1,2.3l8.2-1.2
	l1.9,3.4l8.4,2.1l2.2,2.1l0.9,5.1l-9.1,2.5l7.7,3.6l5.9,1.2l3.3,5l6.5,0.4l-3.3,3.9l-10.9,6.5l-4-2.4l-3.8-5.4l-5.9,0.7l-2.3,3.3
	l2.7,3.2l4.5,2.6l1,1.5l-0.1,5.7l-3.6,4.1l-4.7-1.6l-8.6-4.5l3.6,4.9l2.8,3.5l-0.3,2l-10.9-2.3l-7.6-3.4l-3.8-2.7l2.4-1.7l-4.8-2.9
	l-4.7-2.7l-0.9,1.6l-13.1,0.9l-2.4-1.9l5.4-4.2l8.1-0.1l9.3-0.7l-0.2-2l3.1-2.8l8.8-5.4l0.4-2.5l-0.5-1.8l-4.7-2.7l-7.1-1.8l3.5-1.4
	l-2-3.4l-3.4-0.3l-1.9-1.8l-3.3,1.6l-7.9,0.7l-14-1.2l-7.4-1.6l-5.9-0.8l-1.9-1.9l6.3-2.4h-5.7l3.3-5.3l7.1-4.6l6-2.1l11.2-1.4
	L647.3,95.5z"/>
<path class="st1" d="M596.9,92l3.6,1.1l7.6-0.7l-0.5,1.5l-6.1,2.5l3.8,2.2l-5.2,4.7l-8.4,2l-3.4-0.4l-0.9-2l-5.9-4l1.7-1.7l7.4,0.6
	l-0.9-3.3L596.9,92z"/>
<path class="st1" d="M619.5,97.5l-7.8,3.9l-4.4-0.2l1.8-4.6l2.6-2.5l4.2-2.2l5.2-1.4l7.9,0.2l6.2,1.2l-10.1,4.6L619.5,97.5z"/>
<path class="st1" d="M503.7,104.7l-13.5,2.6l0.6-2.3l-6-2.8l4.4-2.2l7.5-3.8l7.6-3.4l0.4-3.1l14-0.8l4.2,1.1l9.5,0.3l1.9,1.4
	l1.6,2.2l-6.5,1.3l-13.9,3.6l-9.2,3.7L503.7,104.7z"/>
<path class="st1" d="M628.9,86.3l-4.1,1.9l-5.2-0.4l-3.2-1.3l4.5-2.2l6.9-1.4l1.4,1.8L628.9,86.3z"/>
<path class="st1" d="M620.1,77.6l0.2,2.3l-2.8,2.5l-5.8,3.8l-6.9,0.5l-3.2-0.8L605,83l-6.6,0.3l4.3-3.8l3.8,0.2l7.7-1.7l4.9,0.3
	L620.1,77.6z"/>
<path class="st1" d="M580.7,80.2l-0.7,1.7l4.4-0.8l3.6,0.2l-2.3,2.5l-5.1,2.3l-13.9,0.8l-12.3,2.2l-6,0.1l1.5-1.6l10.7-2.3
	l-17.9,0.6l-4.2-0.9l11.7-4.8l5.4-1.4l8.3,1.7l2.9,2.9l6.1,0.4l0.7-4.7l5.8-1.8l3.1,0.5L580.7,80.2z"/>
<path class="st1" d="M636.4,75.8l2.3,1.6h7.4l1.4,1.6l-2.8,1.8l3.1,1.1l1.2,1.2l4.9,0.2l5.1,0.4l7.1-1l8.1-0.5l5.8,0.4l2.3,1.9l-1,2
	l-3.6,1.4L671,89l-4.3-0.7l-11.8,0.8l-8,0.1l-5.6-0.6l-8.6-1.6l1.6-2.8l2.1-2.4l-1.4-2.2l-7-0.6l-2.6-1.5l3.8-2L636.4,75.8z"/>
<path class="st1" d="M560.7,73.2l-5.8,3.7l-5.3,1.7l-3.8,0.2l-9.9,2.1l-7.1,0.8l-3.6-1.1l11.7-3.7l12.2-3.1l5.5,0.1L560.7,73.2z"/>
<path class="st1" d="M641.9,73.8l-1.8,0.1l-6.6-0.3l0.7-1.3l7.2,0.1l1.6,0.8L641.9,73.8z"/>
<path class="st1" d="M583.1,72.9l-8.8,1.4l-3.3-1.5l5.1-1.5l6-0.5l4.1,0.7L583.1,72.9z"/>
<path class="st1" d="M590.9,68.7l-5.7,0.9h-6l1-0.7l5.7-1.3l1.7,0.2L590.9,68.7z"/>
<path class="st1" d="M637.7,71.2l-6.6,1l-1.6-1.1l0.6-1.7l2.2-1.9l4.4,0.2l1.7,0.3l2.3,1.6L637.7,71.2z"/>
<path class="st1" d="M623.9,70l-1.1,1.9l-5.3-0.5l-4-1.5l-7.8-0.2l5.3-1.3l-2.8-1.1l2.2-1.8l6.1,0.6l7.5,1.7L623.9,70z"/>
<path class="st1" d="M678,63.9l2.7,1.5l-6.5,1.3l-10.6,3.5l-6.8,0.3l-6.8-0.6l-1.6-1.9l2.1-1.6l4.3-1.2h-6.6l-2-1.5l0.4-1.9l4.9-1.9
	l4.1-1.3l4-0.3l-0.3-1l8.3-0.2l1.6,2.2l4.7,0.9l4.8,0.9L678,63.9z"/>
<path class="st1" d="M757.2,49.9l8.7,0.3l6.7,0.5l5.2,1l-1.1,1l-9.8,1.7l-9,0.8l-4,0.9h7.5l-10.5,2.5l-6.8,1.2l-9.3,3.5l-8.1,0.7
	l-3.1,1l-11.3,0.4l4.4,0.6l-3.3,0.8l0.7,2.3l-5,1.6l-6.9,1.3l-3.5,1.8l-6.6,1.5l-0.5,1.1l6.5-0.2l-1.1,1.2l-12.7,2.9l-8.5-1.4
	l-11.7,0.8l-5-0.6l-6.8-0.3l2.1-2.3l8-1.1l2-3.4l2.6-0.3l7.5,2l-1.7-3l-4.9-0.9l5-1.8l7.6-1.1l2.8-1.6l-3-1.7l1.1-2.2l9.4,0.1
	L693,62l7.3-1.6l-7.3-0.5l-12.6,0.3l-4.4-1.4l-0.8-1.7l-2.5-1.2l1.1-1.3l6-0.8l4.2-0.1l7.4-0.6l6.8-1.5l3.9,0.2l2.4,1.1l5-2l5.2-0.6
	l6.5-0.4l10.4-0.2l1.3,0.4l10.3-0.6l7,0.2L757.2,49.9z"/>
<path id="CH" class="st0" d="M1034.4,244.5l0.2,1.1l-0.7,1.5l2.3,1.2l2.6,0.2l-0.3,2.5l-2.1,1.1l-3.8-0.8l-1,2.5l-2.4,0.2l-0.9-1
	l-2.7,2.2l-2.5,0.3l-2.2-1.4l-1.8-2.7l-2.4,1v-2.9l3.6-3.5l-0.2-1.6l2.3,0.6l1.3-1.1h4.2l1-1.3L1034.4,244.5L1034.4,244.5z"/>
<path class="st0" d="M1602.2,428.9l-4.3,3.1l-4.9-2l-1-5.5l2.2-2.9l5.8-1.8l3.3,0.1l1.6,2.5l-2,2.8L1602.2,428.9z"/>
<path class="st0" d="M1625.6,232.5l9,4.5l6,5.8h7.6l2.6-2.4l6.9-1.9l1.3,5.7l-0.3,2.3l2.8,6.8l0.6,6.2l-6.9-1.1l-2.9,2.2l4.7,5.4
	l3.9,7.5l-2.5,0.1l1.9,3.3l-5.5-3.8v3.6l-6.4,2.7l2.8,3.4l-4.6-0.3l-3.6-2l-1.1,4.6l-3.9,3.4l-2.1,4.1l-6.3,1.8l-2.4,3l-4.8,1.8
	l1.3-3l-2.3-2.5l2-4.3l-4.5-3.3l-3.4,2.2l-3.6,4.5l-1.3,4.1l-5,0.3l-1.3,3l4.8,4.3l4.8,1.1l1.4,2.8l5.1,1.9l3.8-4.6l5.9,2.5l3.5,0.2
	l2.3,3.3l-6.7,1.8l-1,3.5l-3.8,3.2l-0.9,4.5l7.1,3.5l4.6,6.3l5.5,5.9l5.5,4.9l1.6,4.8l-2.8,1.8l2.4,3.4l3.9,2l0.8,5.2l0.1,5.1
	l-2.8,0.6l-2.1,6.9l-2.3,8.5l-3.4,7.6l-6.4,5.9l-6.6,5.5l-6.1,0.7l-2.9,2.8l-2.3-2l-2.5,3.1l-7.2,3.3l-5.8,0.9l-0.7,6.8l-3.1,0.4
	l-2.2-4.7l0.9-2.4l-7.8-2.1l-2.4,1.1l-5.9-1.7l-3.1-2.6l0.3-3.7l-5.3-1.2l-3.1-2.4l-4.1,3.4l-5.3,0.8l-4.4-0.1l-2.7,1.6l-2.7,0.9
	l2,7.4l-3-0.2l-0.8-1.5l-0.5-2.7l-3.8,1.9l-2.6-1.2l-4.5-2.4l0.8-5.3l-3.7-1.3l-2.4-5.9l-5.6,1.1l-0.7-7.6l4.2-5.4l-0.9-5.3
	l-1.3-4.9l-2.7-1.5l-2.7-3.8l-3.1,0.5l-6.1-1l1.2-2.7l-3.6-4l-3.2,2.7l-4.9-1.5l-5.4,4l-3.9,4.8l-4.2,0.8l-2.8-1.7l-2.9-0.2
	l-4.3-1.4l-2.6,1.6l-2.6,4.8l-1.5-5.1l-3.1,1.4l-6.5-0.7l-6.5-1.4l-5-2.9l-4.5-1.2l-2.5-3.1l-3.3-0.9l-6.4-4.2l-4.8-2l-1.9,1.5
	l-8.6-4.5l-6.2-4l-3.2-7.1l4.1,0.9l-0.6-3.3l-3-3.3l-0.8-5.2l-7.7-7.6l-9.5-2.5l-2.9-5l-4.7-3l-1.5-1.8l-1.8-3.6l-0.5-2.5l-3.7-1.5
	l-1.5,0.7l-3.1-6l1.1-1.4l-1.2-1.5l4.1-3l3.2-1.3l5.8,0.9l0.6-4.1l6.4-0.7l1-2.6l6.9-3.4l0.2-1.4l-1.7-3.7l2.9-1.6l-8.8-11l9.1-2.5
	l2-1.4l-1-11.3l10.8,2.1l1.6-2.9l-2.5-6.2l3.8-0.6l1.9-4.2l1.7-0.5l3.3,4.4l5.7,3.3l8.2,2.3l5.8,5.1l1.4,7.3l3,2.8l6.5,1.1l7.2,0.8
	l8,4l3.4,0.7l5,5.8l4.7,3.8l5.6-0.2l11.3,1.5l6.4-0.9l5.6,0.9l9.4,3.9h6.2l3.3,1.9l4.4-3.4l7.2-2.2l7.6-0.2l4.9-2.2l2-3.4l2.4-2.2
	l-1.9-2.1l-2.9-2.4l0.5-4.1l3.2,0.6l5.9,1.3l3.2-3.4l6.4-2.4l1.3-4.2l2.5-1.8l6.8-0.8l4.4,0.7l-0.8-2.2l-7.2-4.4l-5.2-2l-2.5,2.3
	l-5.5-1l-2.3,0.8l-2.8-2.5l-0.3-6.3l-0.6-4.7l7.4,2.4l4.4-3.9l-1.9-2.8l-0.2-6.5l1.3-2l-2.5-3.4l-3.7-1.4l1.7-3.1l5.1-1.1l6.2-0.2
	l8.6,1.9l6,2.2l7.7,6.2l3.8,2.7l4.5,3.8l6.2,6L1625.6,232.5z"/>
<path id="CI" class="st0" d="M955.9,482.2l2.5,1.4l1,2.2l2.5,1.3l2-1.6l2.6-0.2l3.9,1.6l1.5,9.2l-2.4,5.3l-1.5,7.3l2.4,5.5l-0.2,2.6
	h-2.6l-3.9-1.2H960l-6.7,1.2l-3.9,1.8l-5.6,2.4l-1.1-0.2l0.4-5.3l0.6-0.8l-0.2-2.5l-2.4-2.7l-1.8-0.4l-1.6-1.8l1.2-2.9l-0.5-3.1
	l0.2-1.8h0.9l0.4-2.8l-0.4-1.3l0.5-0.9l2.1-0.7l-1.4-5.2l-1.3-2.6l0.5-2.2l1.1-0.5l0.8-0.6l1.5,1h4.4l1-1.8l1,0.1l1.6-0.7l0.9,2.7
	l1.3-0.8L955.9,482.2z"/>
<path id="CM" class="st0" d="M1072.8,501.2l-2.8,6.5l-1.4,1.1l-0.4,5l0.6,2.7l-0.5,1.9l2.7,3.4l0.5,2.3l2.1,3.3l2.6,2.1l0.3,2.9
	l0.6,1.9l-0.4,3.4l-4.5-1.5l-4.6-1.7l-7.1-0.2l-0.7-0.4l-3.4,0.8l-3.4-0.8l-2.7,0.4l-9.3-0.1l0.9-5.1l-2.3-4.3l-2.6-1l-1.1-2.9
	l-1.5-0.9l0.1-1.8l1.4-4.6l2.7-6.2h1.6l3.4-3.8l2.1-0.1l3.2,2.7l3.9-2.2l0.5-2.7l1.3-2.6l0.8-3.2l3-2.6l1.1-4.5l1.2-1.5l0.8-3.3
	l1.4-4.1l4.7-5l0.3-2.1l0.6-1.2l-2.3-2.5l0.2-2.1l1.5-0.3l2.3,4.1l0.5,4.2l-0.2,4.3l3.2,5.8h-3.2l-1.6,0.4l-2.6-0.6l-1.2,3l3.4,3.8
	l2.5,1.1l0.8,2.6l1.8,4.4L1072.8,501.2L1072.8,501.2z"/>
<polygon class="st0" points="1163.1,534.7 1161.2,536.9 1159.1,538.7 1156.9,542 1155.7,545 1155.4,550.1 1154.1,552.6 1154,557.4 
	1152.4,559.2 1152.2,563 1151.4,563.5 1150.8,567.1 1152.2,570 1152.3,571 1152.3,571 1152.3,571.1 1151.1,581.3 1152.6,584.9 
	1151.6,587.6 1151.7,587.9 1079.2,587.9 1078.8,586.6 1062.1,586.5 1060.1,587.2 1058.4,587.1 1056.3,587.9 1056.1,588 
	1056.1,587.9 1055.3,586 1056.7,585.3 1056.9,582.5 1057.9,580.9 1059.9,579.5 1061.4,580.2 1063.4,577.7 1066.5,577.8 
	1066.8,579.6 1068.9,580.7 1072.3,576.7 1075.6,573.6 1077,571.5 1076.9,566.2 1079.4,560 1082,556.7 1085.7,553.6 1086.4,551.6 
	1086.5,549.2 1087.4,547 1087.1,543.3 1087.8,537.6 1088.9,533.6 1090.6,530.2 1090.9,526.3 1091.4,521.8 1093.6,518.6 
	1096.6,516.5 1101.3,518.7 1104.9,521.1 1109,521.7 1113.3,523 1114.9,519.1 1115.7,518.6 1118.3,519.2 1124.6,516 1126.8,517.4 
	1128.6,517.2 1129.5,515.6 1131.6,515.1 1135.8,515.8 1139.5,515.9 1141.3,515.2 1144.8,520.5 1147.4,521.3 1148.9,520.2 
	1151.5,520.6 1154.6,519.3 1156,522 1161.1,526.3 1160.8,533.8 "/>
<path id="CG" class="st0" d="M1090.9,526.3l-0.3,3.9l-1.7,3.4l-1.1,4l-0.7,5.7l0.3,3.7l-0.9,2.2l-0.1,2.4l-0.7,2l-3.7,3.1l-2.6,3.3
	l-2.5,6.2l0.1,5.3l-1.4,2.1l-3.3,3.1l-3.4,4l-2.1-1.1l-0.3-1.8l-3.1-0.1l-2,2.5l-1.5-0.7l-2.1-2.2l-1.7,1.1l-2.3,2.8l-4.6-6.8
	l4.3-3.6l-2.1-4.2l2-1.6l3.8-0.8l0.4-2.9l3.1,3.1l5,0.3l1.7-3l0.7-4.3l-0.6-5l-2.7-3.8l2.5-7.5l-1.4-1.2l-4.2,0.5l-1.6-3.3l0.4-2.8
	l7.1,0.2l4.6,1.7l4.5,1.5l0.4-3.4l3-6l3.3-3.4l3.9,1.1L1090.9,526.3L1090.9,526.3z"/>
<path id="CO" class="st0" d="M584.4,473.2l-3.7,1.1l-1.6,3.2l-2.3,1.8l-1.8,2.4l-0.9,4.6l-1.8,3.8l2.9,0.4l0.6,2.9l1.2,1.5l0.3,2.5
	l-0.7,2.4l0.1,1.4l1.4,0.5l1.2,2.2l7.3-0.6l3.3,0.8l3.8,5.6l2.3-0.7l4.1,0.3l3.2-0.7l2,1.1l-1.2,3.4l-1.3,2.2l-0.6,4.6l1.1,4.3
	l1.5,1.9l0.2,1.4l-2.9,3.2l2,1.4l1.5,2.3l1.6,6.4l-1.1,0.8l-1-3.8l-1.6-2.1l-1.9,2.3l-11-0.2v4l3.3,0.7l-0.2,2.5l-1.1-0.7l-3.2,1
	l-0.1,4.7l2.6,2.4l0.9,3.6l-0.1,2.8l-2.2,17.6l-2.9-3.4l-1.7-0.1l3.5-6.6l-4.4-3l-3.4,0.6l-2.1-1.1l-3.1,1.7l-4.2-0.9l-3.5-6.7
	l-2.6-1.6l-1.8-3.1l-3.8-3l-1.5,0.6l-2.4-1.5l-2.8-2.1l-1.6,1l-4.8-0.9l-1.4-2.8l-1.1,0.1l-5.6-3.6l-0.7-2l2.1-0.5l-0.2-3.2l1.4-2.4
	l2.8-0.4l2.5-4l2.2-3.4l-2-1.5l1.2-3.7l-1.1-5.9l1.3-1.7l-0.7-5.4l-2.2-3.5l0.9-3.1l1.8,0.5l1.1-1.9l-1.1-3.8l0.7-0.9l2.9,0.2
	l4.5-4.5l2.4-0.7l0.1-2.1l1.4-5.5l3.4-2.9l3.5-0.2l0.6-1.3l4.4,0.5l4.6-3.2l2.3-1.4l2.9-3.1l2,0.4l1.3,1.7L584.4,473.2L584.4,473.2z
	"/>
<path id="CR" class="st0" d="M514.6,478.6l1.2,3.5l2,2.6l2.5,2.7l-2.2,0.6l-0.1,2.6l1.1,0.9l-0.9,0.8l0.2,1.1l-0.6,1.3l-0.3,1.3
	l-3-1.4l-1.1-1.4l0.7-1.1l-0.1-1.4l-1.5-1.5l-2.2-1.3l-1.8-0.8l-0.3-1.9l-1.4-1.1l0.2,1.8l-1.2,1.6l-1.2-1.8l-1.7-0.7l-0.7-1.2
	l0.1-2l0.9-2l-1.5-0.9l1.4-1.3l0.9-0.8l3.6,1.7l1.3-0.8l1.8,0.5l0.8,1.3l1.7,0.5L514.6,478.6L514.6,478.6z"/>
<path id="CU" class="st0" d="M544.8,402.7l1.9,2.3l5.2-0.7l1.8,1.5l4.2,4l3.2,2.9l1.8-0.1l3.2,1.3l-0.6,1.8l4,0.3l3.9,2.6l-0.8,1.5
	l-3.8,0.8l-3.8,0.3l-3.7-0.5l-8.1,0.6l4.2-3.5l-2.1-1.7l-3.6-0.4l-1.7-1.9l-0.8-3.6l-3.2,0.2l-5-1.7l-1.5-1.4l-7.1-1l-1.8-1.2
	l2.3-1.6l-5.4-0.3l-4.4,3.3l-2.3,0.1l-1,1.6l-2.8,0.7l-2.3-0.7l3.2-1.9l1.5-2.4l2.7-1.4l3-1.2l4.3-0.6l1.4-0.8l4.7,0.5l4.4,0.1
	L544.8,402.7L544.8,402.7z"/>
<path id="CZ" class="st0" d="M1059.7,222.2l2.5,2l3.7,0.5l-0.2,1.7l2.8,1.3l0.6-1.6l3.4,0.7l0.7,2l3.7,0.3l2.6,3.1h-1.5l-0.7,1.1
	l-1.1,0.3l-0.2,1.4l-0.9,0.3l-0.1,0.6l-1.6,0.6l-2.2-0.1l-0.6,1.4l-2.4-1.2l-2.3,0.3l-4-1.9l-1.7,0.5l-2.6,2.6l-3.8-2.1l-3-2.6
	l-2.6-1.5l-0.7-2.7l-1-1.8l3.4-1.3l1.7-1.6l3.5-1.2l1.1-1.2l1.3,0.7L1059.7,222.2L1059.7,222.2z"/>
<path id="DE" class="st0" d="M1053.9,205.9l1.4,3.1l-1.2,1.7l1.9,2.1l1.5,3.3l-0.2,2.2l2.4,3.9l-2.2,0.6l-1.3-0.7l-1.1,1.2l-3.5,1.2
	l-1.7,1.6l-3.4,1.3l1,1.8l0.7,2.7l2.6,1.5l3,2.6l-1.6,2.9l-1.7,0.8l1,4.1l-0.4,1.1l-1.7-1.3l-2.4-0.2l-3.5,1.1l-4.4-0.3l-0.6,1.7
	l-2.7-1.7l-1.4,0.3l-5.5-1.9l-1,1.3h-4.2l0.4-4.5l2.4-4.2l-7.2-1.2l-2.4-1.6l0.2-2.7l-1-1.4l0.4-4.2l-1.1-6.5h2.9l1.2-2.3l0.9-5.6
	l-0.9-2.1l0.8-1.3l4-0.3l1,1.3l3.1-3l-1.3-2.3l-0.4-3.4l3.7,0.8l2.9-0.9l0.3,2.3l4.9,1.4l0.1,2.2l4.7-1.2l2.6-1.6l5.6,2.4
	L1053.9,205.9L1053.9,205.9z"/>
<path id="DJ" class="st0" d="M1229.5,475.2l-1.9,3.5l-1.3-1.2l-1.3,0.5l-3.2-0.1l-0.2-2l-0.5-1.8l1.8-3l1.9-2.8l2.4,0.6l1.7-1.6
	l1.4,2l-0.1,2.6l-3.1,1.6L1229.5,475.2L1229.5,475.2z"/>
<path class="st0" d="M1046.1,194.7l-2.4,4.9l-5.2-3.5l-0.9-2.5l6.8-2L1046.1,194.7z"/>
<path class="st0" d="M1033.3,198.5l-2.9,0.9l-3.7-0.8l-2.1-3.4l-0.4-6.1l0.6-1.7l1.3-1.8l4-0.3l1.6-1.7l3.6-1.7v3.1l-1.2,2l0.7,1.6
	l2.6,0.9l-1,2.3l-1.4-0.6l-3.1,4.3L1033.3,198.5z"/>
<path id="DO" class="st0" d="M585.7,433l0.3-1.8l-1.3-1.9l1.5-1.1l0.7-2.5l-0.1-3.4l0.8-1.1h4.3l3.2,1.6l1.5-0.1l0.7,2.3l3.1-0.2
	l-0.4,1.9l2.5,0.3l2.5,2.3l-2.3,2.6l-2.6-1.4l-2.6,0.3l-1.8-0.3l-1.1,1.2l-2.2,0.4l-0.7-1.6l-1.9,0.9l-2.7,4.4l-1.3-1L585.7,433
	L585.7,433z"/>
<path id="DZ" class="st0" d="M1031,311.6l-1,3.3l1,6.1l-1.1,5.3l-3.2,3.6l0.6,4.8l4.5,3.9l0.1,1.5l3.4,2.6l2.6,11.5l1.9,5.7l0.4,3
	l-0.8,5.2l0.4,3l-0.6,3.5l0.6,4l-2.2,2.7l3.4,4.7l0.2,2.7l2.1,3.6l2.5-1.2l4.5,3l2.5,4l-18.8,12.3l-16,12.6l-7.8,2.8l-6.2,0.7
	l-0.1-4.1l-2.6-1.1l-3.5-1.8l-1.3-3l-18.7-14l-18.6-14l-20.5-15.6l0.1-1.2l0.1-0.4l0.1-7.6l8.9-4.8l5.4-1l4.5-1.7l2.1-3.2l6.4-2.5
	l0.3-4.8l3.1-0.6l2.5-2.3l7.1-1.1l1-2.5l-1.4-1.4L977,331l-0.3-3.9l-1.9-4.1l5.1-3.5l5.8-1.1l3.3-2.6l5.1-2l9-1.1l8.8-0.5l2.7,0.9
	l4.9-2.5l5.7-0.1l2.2,1.5L1031,311.6L1031,311.6z"/>
<path id="EC" class="st0" d="M559,549.8l0.8,4.9l-1.7,4.1l-6.1,6.8l-6.7,2.5l-3.4,5.6L541,578l-3.1,2.7l-2.5-3.3l-2.3-0.7l-2.3,0.5
	l-0.3-2.3l1.6-1.5l-0.7-2.7l2.9-4.8l-1.3-2.8l-2.1,3l-3.5-2.9l1.1-1.8l-1-5.8l2-1l1-4l2.1-4.1l-0.3-2.6l3.1-1.4l3.9-2.5l5.6,3.6
	l1.1-0.1l1.4,2.8l4.8,0.9l1.6-1l2.8,2.1L559,549.8L559,549.8z"/>
<path id="EG" class="st0" d="M1172.1,348.4l3.9,9.4l0.7,1.6l-1.3,2.6l-0.7,4.8l-1.2,3.4l-1.2,1.1l-2-2.1l-2.7-2.8l-4.7-9.2l-0.5,0.6
	l2.8,6.7l3.9,6.5l4.9,10l2.3,3.5l2,3.6l5.4,7.1l-1,1.1l0.4,4.2l6.8,5.8l1.1,1.3h-22.1h-21.5h-22.3l-1-23.7l-1.3-22.8l-2-5.2l1.1-3.9
	l-1-2.8l1.7-3.1l7.2-0.1l5.4,1.7l5.5,1.9l2.6,1l4-2l2.1-1.8l4.7-0.6l3.9,0.8l1.8,3.2l1.1-2.1l4.4,1.5l4.3,0.4L1172.1,348.4
	L1172.1,348.4z"/>
<path id="ER" class="st0" d="M1228.9,467.3l-1.7,1.6l-2.4-0.6l-2-2.1l-2.5-3.7l-2.6-2.1l-1.5-2.2l-5-2.6l-3.9-0.1l-1.4-1.3l-3.2,1.5
	l-3.6-2.9l-1.5,4.8l-6.6-1.4l-0.7-2.5l2-9.5l0.3-4.2l1.7-2l4-1.1l2.7-3.6l3.6,7.4l1.9,5.9l3.2,3.1l8,6.1l3.3,3.6l3.2,3.8l1.8,2.2
	L1228.9,467.3L1228.9,467.3z"/>
<path id="EE" class="st0" d="M1113.7,171.6l0.9,1l-2.6,3.4l2.4,5.6l-1.6,1.9l-3.8-0.1l-4.4-2.2l-2.1-0.7l-3.8,1l-0.1-3.5l-1.5,0.8
	l-3.3-2.1l-1-3.4l5.5-1.7l5.6-0.8l5.1,0.9L1113.7,171.6L1113.7,171.6z"/>
<path id="ET" class="st0" d="M1207.3,455.5l3.9,0.1l5,2.6l1.5,2.2l2.6,2.1l2.5,3.7l2,2.1l-1.9,2.8l-1.8,3l0.5,1.8l0.2,2l3.2,0.1
	l1.3-0.5l1.3,1.2l-1.2,2.2l2.2,3.6l2.2,3.1l2.2,2.3l18.7,7.6l4.8-0.1l-15.6,19.3l-7.3,0.3l-5,4.5l-3.6,0.1l-1.5,2.1h-3.9l-2.3-2.2
	l-5.2,2.7l-1.6,2.7l-3.8-0.6l-1.3-0.7l-1.3,0.2l-1.8-0.1l-7.2-5.4h-4l-1.9-2.1l-0.1-3.6l-2.9-1.1l-3.5-7l-2.6-1.5l-1-2.6l-3-3.1
	l-3.5-0.5l1.9-3.6l3-0.2l0.8-1.9l-0.2-5v-0.8l1.5-6.7l2.6-1.8l0.5-2.6l2.3-5l3.3-3.1l2-6.4l0.7-5.5l6.6,1.4l1.5-4.8l3.6,2.9l3.2-1.5
	L1207.3,455.5L1207.3,455.5z"/>
<path id="FI" class="st0" d="M1104.1,117.1l0.4,3.8l7.3,3.7l-2.9,4.2l6.5,6.3l-1.7,4.8l4.9,4.2l-0.9,3.8l7.4,3.9l-0.9,2.9l-3.4,3.4
	l-8,7.4l-8,0.5l-7.6,2.1l-7.1,1.3l-3.2-3.2l-4.7-1.9l0.1-5.8l-3-5.2l1.6-3.4l3.3-3.5l8.8-6.2l2.6-1.2l-0.9-2.4l-6.5-2.6l-1.8-2.2
	l-1.8-8.5l-7.2-3.7l-6-2.7l2.2-1.4l5.1,2.8l5.3-0.2l4.7,1.3l3.4-2.4l1.1-4l5.9-1.8l5.8,2.1L1104.1,117.1L1104.1,117.1z"/>
<path id="GA" class="st0" d="M1060.5,534.3l-0.4,2.8l1.6,3.3l4.2-0.5l1.4,1.2l-2.5,7.5l2.7,3.8l0.6,5l-0.7,4.3l-1.7,3l-5-0.3
	l-3.1-3.1l-0.4,2.9l-3.8,0.8l-2,1.6l2.1,4.2l-4.3,3.6l-5.8-6.5l-3.7-5.3l-3.5-6.6l0.2-2.2l1.3-2l1.3-4.7l1.2-4.8l1.9-0.3h8.2v-7.7
	l2.7-0.4l3.4,0.8l3.4-0.8L1060.5,534.3L1060.5,534.3z"/>
<path class="st0" d="M956.7,205.2l-3.5-1.2l-3,0.1l1.2-3.3l-0.9-3.2l4-0.3l4.9,3.8L956.7,205.2z"/>
<path class="st0" d="M972.6,176.5l-5.1,6.5l4.7-0.8h5.1l-1.3,4.9l-4.3,5.4l4.9,0.3l0.3,0.7l4.2,7.1l3.2,1l2.9,7l1.4,2.4l5.9,1.1
	l-0.6,4l-2.4,1.8l1.9,3.2l-4.4,3.2l-6.5-0.1l-8.4,1.8l-2.2-1.3l-3.3,2.9l-4.5-0.7l-3.6,2.4l-2.5-1.2l7.3-6.5l4.4-1.4l-7.6-1
	l-1.3-2.5l5.1-1.9l-2.5-3.3l1-4l7.1,0.6l0.8-3.6l-3.1-3.7l-0.1-0.1l-5.7-1.1l-1.1-1.6l1.8-2.7l-1.5-1.7l-2.6,2.9l-0.1-5.9l-2.2-3
	l1.9-6.2l3.8-4.8l3.6,0.4L972.6,176.5z"/>
<path id="GE" class="st0" d="M1215.7,274.9l5.1,1.3l2.1,2.6l3.6,1.5l-1.2,0.8l3.3,3.5l-0.6,0.7l-2.9-0.3l-4.2-1.9l-1.1,1.1l-7,1
	l-5.6-3.2l-5.5,0.3l0.3-2.7l-2.1-4.3l-3.4-2.4l-3-0.7l-2.2-1.9l0.4-0.8l4.6,1.1l7.7,1l7.6,3.1l1.2,1.2L1215.7,274.9L1215.7,274.9z"
	/>
<path id="GH" class="st0" d="M986.5,478.1l-0.4,2l2.3,3.3v4.7l0.6,5l1.4,2.4l-1.3,5.7l0.5,3.2l1.5,4.1l1.3,2.3l-8.9,3.7l-3.2,2.2
	l-5.1,1.9l-5-1.8l0.2-2.6l-2.4-5.5l1.5-7.3l2.4-5.3l-1.5-9.2l-0.8-4.8l0.2-3.7l9.8-0.3l2.5,0.5l1.8-1L986.5,478.1L986.5,478.1z"/>
<path id="GN" class="st0" d="M921.5,468.9l0.3,2.4h0.9l1.5-0.9l0.9,0.2l1.6,1.7l2.4,0.5l1.5-1.4l1.9-0.9l1.3-0.9l1.1,0.2l1.3,1.4
	l0.6,1.8l2.3,2.7l-1.1,1.6l-0.3,2.1l1.2-0.6l0.7,0.7l-0.3,1.9l1.7,1.9l-1.1,0.5l-0.5,2.2l1.3,2.6l1.4,5.2l-2.1,0.7l-0.5,0.9l0.4,1.3
	l-0.4,2.8h-0.9l-1.6-0.2l-1.1,2.6h-1.6l-1.1-1.4l0.4-2.6l-2.4-3.9l-1.4,0.7l-1.3,0.2l-1.5,0.3l0.1-2.3l-0.9-1.7l0.2-1.9l-1.2-2.7
	l-1.6-2.3h-4.5l-1.3,1.2l-1.6,0.2l-1,1.4l-0.6,1.7l-3.1,2.9l-2.4-3.8l-2.2-2.5l-1.4-0.9l-1.4-1.3l-0.6-2.8l-0.8-1.4l-1.7-1.1
	l2.6-3.1l1.7,0.1l1.5-1l1.2-0.1l0.9-0.8l-0.4-2.1l0.6-0.7l0.1-2.2l2.7,0.1l4.1,1.5l1.2-0.1l0.4-0.7l3.1,0.5L921.5,468.9L921.5,468.9
	z"/>
<path id="GM" class="st0" d="M891.6,464.4l0.8-2.9l6.1-0.1l1.3-1.6l1.8-0.1l2.2,1.6h1.7l1.9-1l1.1,1.8l-2.5,1.5l-2.4-0.2l-2.4-1.3
	l-2.1,1.5h-1l-1.4,0.9L891.6,464.4L891.6,464.4z"/>
<path id="GW" class="st0" d="M909.2,468l-0.1,2.2l-0.6,0.7l0.4,2.1l-0.9,0.8l-1.2,0.1l-1.5,1l-1.7-0.1l-2.6,3.1l-2.9-2.6l-2.4-0.5
	l-1.3-1.8l0.1-1l-1.7-1.3l-0.4-1.4l3-1l1.9,0.2l1.5-0.8L909.2,468L909.2,468z"/>
<path id="GQ" class="st0" d="M1050.3,534.3v7.7h-8.2l-1.9,0.3l-1.1-0.9l1.9-7.2L1050.3,534.3L1050.3,534.3z"/>
<path class="st0" d="M1112.7,319.6l3.1,2.2l4.1-0.4l4,0.4v1.2l2.8-0.8l-0.5,1.9l-7.6,0.5l-0.1-1l-6.6-1.3L1112.7,319.6z"/>
<path class="st0" d="M1121.9,286.9l-3.2-0.2l-2.7-0.6l-6.2,1.6l4,3.6l-2.5,1.1h-2.9l-3.1-3.3l-0.9,1.4l1.6,3.8l2.9,3l-1.9,1.4
	l3.2,2.9l2.8,1.9l0.4,3.6l-5-1.7l1.8,3.3l-3.3,0.6l2.5,5.7l-3.5,0.1l-4.6-2.8l-2.4-5.1l-1.3-4.3l-2.3-2.9l-3-3.7l-0.5-1.8l2.2-3.1
	l0.1-2.1l1.7-0.9l-0.1-1.7l3.4-0.5l1.8-1.4l2.8,0.1l0.8-1.1l1-0.2l3.8,0.2l4-1.8l3.9,2.3l4.6-0.6l-0.3-3.2l2.7,1.7l-1.1,4
	L1121.9,286.9z"/>
<path id="GL" class="st0" d="M896.3,48.4l19.9,3l-6.7,1.4l-13,0.2L878,53.4l1.4,0.7l12.3-0.5l9.7,1.4l7-1.2l2.4,1.4l-4.5,2.4
	l9.2-1.6l17.1-1.5l10,0.8l1.7,1.7l-14.8,2.9l-2.2,1l-11.4,0.8l8.1,0.2l-4.9,3.2l-3.6,2.9l-1.2,5.2l3.7,3.2l-5.9,0.1l-6.5,1.6
	l6.3,2.6l-0.1,4.2l-4.2,0.5l4.1,4.3l-8.7,0.4l4,2l-1.6,1.8l-5.7,0.8l-5.5,0.1l4.2,3.4l-0.5,2.4l-7.3-2.2l-2.4,1.4l5,1.3l4.6,3.2
	l0.6,4.3l-7.4,1l-2.7-2.1l-4.2-3l0.5,3.6l-5.4,2.8l10.7,0.2l5.5,0.3l-11.9,4.7l-12.2,4.3l-12.7,1.8l-4.6,0.1l-4.9,2.1l-7.5,5.8
	l-10.2,3.9l-3,0.3l-6.1,1.3l-6.6,1.4l-4.8,3.4l-1.4,4l-3.4,3.8l-8.6,4.6l0.3,4.5l-3.6,4.8l-4.1,5.7l-6.5,0.4l-5-4.8l-9-0.1l-3.2-3.2
	l-0.8-5.6l-4.8-7.2l-0.7-3.7l1.5-5.1l-3.7-5.1l3.3-4.1l-1.9-2l7-6.4l7.2-2.1l2.6-2.2l2.8-4.2l-5.5,1.9l-2.6,0.8l-4.1,0.7l-4.2-1.7
	l1.5-3.7l3-2.8l3.8-0.1l7.6,1.5l-5.3-3.4l-2.7-1.8l-4.4,0.7l-2.6-1.3l7-4.8l-1.3-2L768,93l-1.4-5.4l-3.6-1.9l1.4-2.1l-8.1-2.9
	l-7.7-0.4l-10.1,0.2l-9.5,0.4l-3.1-1.6l-3.8-3.1l11-1.5l7.6-0.2l-14.6-1.3l-6.5-1.9l2.2-1.8l15.7-2.2l15-2.2l2.8-1.6l-8.1-1.6
	l4.6-1.7l14.7-2.9l5.4-0.4l0.2-1.8l9-1.1l11-0.6h10.4l2.8,1.2l10.6-2.2l7.1,1.5l4.6,0.3l6.2,1.3l-6.7-2.1l1.6-1.7l12.7-2.2l11.6,0.2
	l5.1-1.4L870,48L896.3,48.4L896.3,48.4z"/>
<path id="GT" class="st0" d="M488.1,434.5l-0.7,5.1l-1.3,7.2h1.7l1.7,1.2l0.6-1l1.5,0.8l-2.8,2.5l-2.9,1.8l-0.5,1.2l0.3,1.3
	l-1.3,1.6l-1.4,0.4l0.3,0.8l-1.2,0.7l-2,1.6l-0.3,0.9l-2.8-1.1l-3.5-0.1l-2.4-1.3l-2.8-2.6l0.4-1.9l0.8-1.5l-0.7-1.2l3.3-5.2h7.2
	l0.4-2.2l-0.8-0.4l-0.5-1.4l-1.9-1.5l-1.8-2.1l2.5-0.1l0.5-3.6h5.2L488.1,434.5L488.1,434.5z"/>
<path id="GY" class="st0" d="M662.9,510.5l-1,5.8l-3.5,1.6l0.3,1.5l-1.1,3.4l2.4,4.6h1.8l0.7,3.6l3.3,5.6l-1.3,0.3l-3.2-0.6
	l-1.8,1.7l-2.6,1.1l-1.8,0.3l-0.6,1.3l-2.8-0.3l-3.5-3l-0.3-3l-1.4-3.3l1-5.4l1.6-2.3l-1.2-3l-2-0.9l0.8-2.9l-1.2-1.4l-3,0.2
	l-3.7-4.8l1.6-1.8v-3l3.5-1l1.4-1.2l-1.8-2.4l0.5-2.3l4.7-3.8l3.6,2.4l3.3,4.1l0.1,3.4l2.1,0.1l3,3.1L662.9,510.5L662.9,510.5z"/>
<path id="HN" class="st0" d="M519.6,452.5l-1.9-0.1l-0.9,0.9l-2,0.8h-1.4l-1.3,0.8l-1.1-0.2l-0.9-1l-0.6,0.2l-0.9,1.5l-0.5-0.1
	l-0.2,1.4l-2.1,1.7l-1.2,0.8L504,460l-1.5-1.3l-1.4,1.7h-1.2l-1.3,0.1l-0.2,3.2h-0.8l-0.8,1.5l-1.8,0.3l-0.8-2l-1.7-0.6l0.7-2.6
	l-0.7-0.7l-1.2-0.4l-2.5,0.7l-0.1-0.8l-1.6-1.1l-1.1-1.2l-1.6-0.6l1.3-1.6l-0.3-1.3l0.5-1.2l2.9-1.8l2.8-2.5l0.6,0.3l1.3-1.1
	l1.6-0.1l0.5,0.5l0.9-0.3l2.6,0.6l2.6-0.2l1.8-0.7l0.8-0.7l1.7,0.3l1.3,0.4l1.5-0.1l1.2-0.6l2.5,0.9l0.8,0.2l1.6,1.2l1.5,1.4l1.9,1
	L519.6,452.5L519.6,452.5z"/>
<path id="HR" class="st0" d="M1081.5,254.6l1.5,2.5l1.7,1.8l-1.7,2.4l-2.4-1.4l-3.5,0.1l-4.5-1.1l-2.3,0.1l-1,1.4l-2-1.5l-0.8,2.6
	l2.7,3l1.3,1.9l2.5,2.4l2.1,1.4l2.1,2.7l4.8,2.4l-0.5,1l-5-2.3l-3.2-2.3l-4.8-1.9l-4.7-4.6l1-0.5l-2.5-2.7l-0.3-2.1l-3.3-1l-1.4,2.7
	l-1.6-2.1v-2.2l0.1-0.1l3.6,0.2l0.8-1l1.8,1l2,0.1l-0.1-1.7l1.7-0.7l0.3-2.5l3.9-1.7l1.6,0.8l4,2.7l4.3,1.2L1081.5,254.6
	L1081.5,254.6z"/>
<path id="HT" class="st0" d="M586.8,422.3l0.1,3.4l-0.7,2.5l-1.5,1.1l1.3,1.9l-0.3,1.8l-3.6-1.1l-2.7,0.4l-3.4-0.4l-2.7,1.2l-2.8-2
	l0.7-2.1l5.1,0.9l4.1,0.5l2.2-1.4l-2.3-2.8l0.4-2.5l-3.5-1l1.5-1.7l3.4,0.2L586.8,422.3z"/>
<path id="HU" class="st0" d="M1096.2,238.9l3,1.7l0.5,1.7l-2.9,1.3l-1.9,4.2l-2.6,4.3l-3.9,1.2l-3.2-0.3l-3.7,1.6l-1.8,1l-4.3-1.2
	l-4-2.7l-1.6-0.8l-1.2-2.1l-0.8-0.1l1.3-4l-1.1-1.4h2.8l0.2-2.6l2.7,1.7l1.9,0.6l4.1-0.7l0.3-1.3l1.9-0.2l2.3-0.9l0.6,0.4l2.3-0.8
	l1-1.5l1.6-0.4l5.5,1.9L1096.2,238.9L1096.2,238.9z"/>
<polygon class="st0" points="1594.8,587.9 1585.8,587.9 1586.6,586.7 1593.4,587.1 "/>
<polygon class="st0" points="1748.9,585.7 1748.8,587.9 1745.5,587.9 1746.4,586 1747.7,583.8 "/>
<path class="st0" d="M1707.3,571l-2.2,2.2l-3.8-1.2l-1-2.8l5.7-0.3L1707.3,571z"/>
<path class="st0" d="M1725.7,568.7l1.8,4.9l-4.6-2.7l-4.7-0.5l-3.3,0.4l-3.9-0.2l1.5-3.5l7-0.3L1725.7,568.7z"/>
<polygon class="st0" points="1785.5,565.5 1784.5,586.4 1784.4,587.9 1769.1,587.9 1767.2,583.5 1756.5,578 1751.9,577.5 
	1743.6,571.5 1741.8,574.7 1739.6,575.2 1738.5,572.9 1738.6,570.1 1734.4,566.9 1740.6,564.6 1744.6,564.7 1744.2,563 1735.9,563 
	1733.7,559.2 1728.7,558 1726.4,554.8 1734,553.3 1736.9,551.2 1746,553.8 1746.9,556.2 1748.2,566.6 1753.9,570.4 1758.9,563.6 
	1765.5,559.8 1770.5,559.8 1775.3,562 1779.4,564.3 "/>
<path class="st0" d="M1696.4,539.7l-4.5,6.4l-4.3,1.2l-5.4-1.2l-9.5,0.3l-4.9,0.9l-0.8,4.9l5,5.7l3.1-2.9l10.6-2.2l-0.5,2.9
	l-2.5-0.9l-2.5,3.8l-5.1,2.5l5.1,8.2l-1.1,2.2l4.8,7.4l-0.3,4.2l-3.1,1.9l-2.1-2.3l3-5.2l-5.7,2.5l-1.3-1.8l0.8-2.5l-3.9-3.8
	l0.7-6.2l-3.9,1.9l0.2,7.5l-0.2,9.2l-3.7,0.9l-2.3-1.8l1.9-5.9l-0.6-6.2l-2.4-0.1l-1.6-4.4l2.5-4.2l0.9-5.1l3-9.7l1.1-2.6l4.8-4.8
	l4.5,1.9l7.1,0.9l6.5-0.3l5.6-4.6L1696.4,539.7z"/>
<path class="st0" d="M1716,541.6l-0.3,5.6l-2.9-0.7l-0.9,3.9l2.3,3.4l-1.6,0.8l-2.2-4.1l-1.7-8.2l1-5.1l1.8-2.3l0.5,3.5l3.4,0.5
	L1716,541.6z"/>
<path class="st0" d="M1608,535.9l1,4.3l3.9,3.7l3.7-1.3l3.6,0.4l3.3-3.2l2.7-0.6l5.4,1.8l4.6-1.4l2.6-8.9l2.1-2.2l1.7-7.3h6.5l5,1.1
	l-3,5.8l4.4,6l-0.9,3l6.4,5.9l-6.7,0.8l-1.8,4.4l0.2,5.8l-5.5,4.4l-0.4,6.4l-2.5,9.8l-0.7-2.3l-6.6,2.9l-2.1-3.9l-4-0.4l-2.8-2.1
	l-6.8,2.4l-1.9-3.2l-3.8,0.4l-4.6-0.7l-0.6-8.6l-2.8-1.8l-2.7-5.5l-0.8-5.6l0.6-6L1608,535.9z"/>
<path class="st0" d="M1585.2,586.4l-6.2,0.1l-4.5-5.3l-7.1-5.3l-2.3-3.9l-4.1-5.2l-2.7-4.8l-4.2-9l-4.9-5.4l-1.7-5.5l-2.2-5l-5.2-4
	l-3.1-5.5l-4.4-3.6l-6.2-7.1l-0.6-3.3l3.6,0.3l8.9,1.2l5.2,6.3l4.6,4.4l3.2,2.6l5.5,6.9l5.8,0.1l4.8,4.4l3.4,5.4l4.3,3l-2.3,5.2
	l3.3,2.2l2,0.2l0.9,4.5l1.9,3.5l4.1,0.6l2.6,4.1l-1.7,8L1585.2,586.4z"/>
<path id="IN" class="st0" d="M1427.6,355l-2.8,3l-0.9,6l5.8,2.4l5.8,3.1l7.8,3.6l7.7,0.9l3.8,3.2l4.3,0.6l6.9,1.5l4.6-0.1l0.1-2.5
	l-1.5-4.1l-0.2-2.7l3.1-1.4l1.5,5.1l0.4,1.2l5.5,2.5l3.2-1l4.7,0.4l4.5-0.2l-0.5-3.9l-2.6-2.1l4.2-0.8l3.9-4.8l5.4-4l4.9,1.5
	l3.2-2.7l3.6,4l-1.2,2.7l6.1,1l1,2.4l-1.7,1.2l1.4,3.9l-4.2-1.1l-6.2,4.4l0.9,3.7l-2,5.4l0.3,3.1l-1.6,5.3l-4.6-1.5l0.9,6.7l-1,2.2
	l1,2.7l-2.5,1.5l-4.4-10.2h-1.5l-0.3,4.2l-3.6-3.4l1.2-3.6l2.4-0.4l1.6-5.4l-3.4-1.1l-5.1,0.1l-5.4-0.9l-1.2-4.5l-2.7-0.3l-4.9-2.8
	l-1.2,4.4l4.6,3.4l-3,2.4l-0.9,2.3l3.7,1.7l-0.3,3.9l2.6,4.8l1.6,5.3l-0.5,2.4l-3.8-0.1l-6.6,1.3l0.9,4.8l-2.4,3.8l-7.5,4.4
	l-5.3,7.5l-3.8,4.1l-5,4.2l0.3,2.9l-2.6,1.6l-4.8,2.3l-2.6,0.3l-1.2,4.9l1.9,8.4l0.7,5.3l-1.9,6.1l0.7,10.9l-2.9,0.3l-2.3,4.9
	l1.9,2.2l-5.1,1.8l-1.7,4.3l-2.2,1.9l-5.6-6l-3.1-9l-2.5-6.5l-2.2-3l-3.4-6.2l-2-8l-1.4-4l-5.9-8.8l-3.5-12.5l-2.6-8.2l-0.8-7.8
	l-1.7-6l-7.7,3.9l-4-0.8l-8.1-7.8l2.4-2.3l-1.9-2.5l-7.1-5.5l3.2-4.3h12.1l-1.8-5.5l-3.5-3.2l-1.4-5l-4-2.8l4.9-6.8l6.5,0.5l4.5-6.7
	l2.2-6.5l3.9-6.5l-1-4.6l3.8-3.7l-5.1-3.1l-2.9-4.4l-3.3-5.6l2-2.8l8.5,1.6l5.7-1l3.8-5.4l7.7,7.6l0.8,5.2l3,3.3l0.6,3.3l-4.1-0.9
	l3.2,7.1l6.2,4L1427.6,355L1427.6,355z"/>
<path id="IE" class="st0" d="M956.7,205.2l0.7,4.4l-3.9,5.5l-8.8,3.6l-6.8-0.9l4.3-6.4l-2.1-6.2l6.7-4.8l3.7-2.8l0.9,3.2l-1.2,3.3
	l3-0.1L956.7,205.2L956.7,205.2z"/>
<path id="IR" class="st0" d="M1229,300.2l1.8-0.2l5.3-4.7l1.9-0.5l1.9,1.9l-1.2,3.1l3.9,3.4l1.3-0.4l2.5,4.8l5.3,1.3l4.3,3.2
	l7.7,1.1l8-1.7l0.2-1.5l4.4-1.2l3-3.7l3.6,0.2l2-1.2l3.9,0.6l6.6,3.3l4.3,0.7l7.3,5.6l4,0.3l1.7,5.3l-0.6,8l-0.5,4.7l2.5,1l-1.6,3.5
	l2.7,5.1l1.2,4.1l4.3,1.1l1.1,4.1l-3.9,5.8l3.2,3.4l2.8,3.9l5.7,2.8l1,5.6l2.7,1.1l0.9,2.9l-7.5,3.4l-1.1,7.4l-10.6-1.9l-6.2-1.5
	l-6.3-0.8l-3.3-7.9l-2.8-1.1l-4.1,1.1l-5.1,3.1l-7-2.1l-6.1-5l-5.5-1.8l-4.4-6.1l-5.2-8.5l-2.8,1l-3.7-2.1l-1.7,2.5l-3.5-3.4
	l-0.5-3.4h-1.7l0.2-4.7l-3.5-4.8l-7.1-3.6l-4.6-6.1l0.5-5l2.3-2.2l-0.9-3.7l-3.8-2l-4.7-7.6l-3.8-5.1l0.7-2l-2.9-7.3l3.3-1.9
	l1.2,2.5l3.2,2.9L1229,300.2L1229,300.2z"/>
<path id="IQ" class="st0" d="M1223.5,310.2l4.7,7.6l3.8,2l0.9,3.7l-2.3,2.2l-0.5,5l4.6,6.1l7.1,3.6l3.5,4.8l-0.2,4.7h1.7l0.5,3.4
	l3.5,3.4l-3.3-0.3l-3.7-0.6l-3.3,6.2l-10.2-0.5l-16.8-12.9l-8.6-4.5l-6.8-1.8l-3.1-7.8l11-6.7l1-7.7l-1.2-4.7l2.7-1.6l2.1-4l2.1-1
	l6.3,0.9l2.1,1.6L1223.5,310.2L1223.5,310.2z"/>
<path id="IS" class="st0" d="M924.8,131.5l-1.4,3.6l4.4,3.8l-6.1,4.3l-13.1,3.9l-3.9,1.1l-5.6-0.9l-11.9-1.8l4.8-2.5l-9-2.7l7.9-1.1
	l0.1-1.7l-8.8-1.3l3.6-3.7l6.6-0.8l6,3.8l7-3l5.1,1.5l7.3-2.9L924.8,131.5L924.8,131.5z"/>
<path id="IL" class="st0" d="M1179.1,335.2l0.4,2.6l-0.6,1h0.1l-0.7,2l-2.1-0.8l-0.7,4.2l1.5,0.7l-1.3,0.9l-0.1,1.7l2.5-0.8l0.4,2.5
	l-1.8,10.2l-0.7-1.6l-3.9-9.4l1.4-2.1l-0.4-0.4l1.1-3l0.6-4.8l0.6-1.7h0.1h1.8l0.4-1.1L1179.1,335.2L1179.1,335.2z"/>
<path class="st0" d="M1068.2,303.4l-1.7,5.1l0.9,1.9l-0.9,3.3l-4.2-2.4l-2.7-0.7l-7.5-3.2l0.5-3.3l6.2,0.6l5.4-0.7L1068.2,303.4z"/>
<path class="st0" d="M1034.2,284.4l3.3,4.5l-0.4,8.5l-2.4-0.4l-2.1,2.1l-2-1.7l-0.5-7.7l-1.3-3.6l2.9,0.3L1034.2,284.4z"/>
<path class="st0" d="M1055.9,250.9l-0.4,3.1l1.4,2.7l-4.1-1l-3.9,2.3l0.4,3.1l-0.5,1.8l1.9,3.2l5,3.2l2.9,5.3l6.1,5.1l4-0.1l1.4,1.4
	l-1.4,1.3l4.8,2.3l4,1.9l4.7,3.4l0.6,1.1l-0.8,2.3l-3.1-3l-4.6-1l-1.9,4.1l3.9,2.4l-0.4,3.3l-2.1,0.4l-2.5,5.5l-2.2,0.5l-0.1-2
	l0.9-3.4l1.1-1.4l-2.3-3.7l-1.8-3.2l-2.2-0.8l-1.8-2.7l-3.4-1.2l-2.4-2.6l-3.8-0.4l-4.3-2.8l-4.9-4.2l-3.7-3.6l-1.9-6.3l-2.6-0.7
	l-4.2-2.1l-2.3,0.8l-2.9,3l-2.1,0.4l0.5-2.7l-2.8-0.8l-1.5-4.9l1.7-1.9l-1.5-2.4l0.1-1.8l2.2,1.4l2.5-0.3l2.7-2.2l0.9,1l2.4-0.2
	l1-2.5l3.8,0.8l2.1-1.1l0.3-2.5l3.1,0.9l0.5-1.2l4.9-1.1l1.3,2.1L1055.9,250.9z"/>
<path id="JM" class="st0" d="M556.5,434.1l-1.8,1.1l-3-1.1l-2.9-2.3l0.8-1.5l2.4-0.4l1.3,0.2l3.7,0.6l2.7,1.5l0.8,1.8L556.5,434.1
	L556.5,434.1z"/>
<path id="JO" class="st0" d="M1198.1,342.3l-0.9,1l-10.4,3.2l6,6.5l-1.6,1l-0.7,2.2l-4.1,0.9l-1.1,2.3l-2.1,2l-6.2-1.1l-0.3-0.9
	l1.8-10.2l-0.4-2.5l0.6-1.9l-0.4-4l0.7-2l6.3,2.6l9.7-6.9L1198.1,342.3z"/>
<path class="st0" d="M1708.5,329.6l1.6,2.2l-1.3,3.9l-3.1-2.1l-2.1,1.5l0.1,3.7l-4.3-1.8l-1.2-3l1.3-3.9l3.4,0.8l1-2.7L1708.5,329.6
	z"/>
<path class="st0" d="M1733.1,310.4l0.6,5.1l2.5,3.2l-0.6,4.5l-5.4,3l-9.2,0.4l-4.4,7.4l-4.7-2.5l-2.4-4.8l-8.6,1.4l-5.1,3l-6.2,0.2
	l7.4,4.7l0.8,10.9l-2.5,2.7l-3.6-2.5l-0.9-5.8l-4.1-1.8l-4-4.4l4.3-2l1.1-4.1l3.9-3.3l2-4.4l9.7-1.9l6.3,1.3v-11.4l5.1,3.1l4.5-6.4
	l1.7-2.5l-1-7.8l-5.1-7.2l-0.2-4l4.8-1.2l8.2,8.9l2.8,5.1l-1.3,6.5L1733.1,310.4z"/>
<path class="st0" d="M1721.2,265.6l4.5,1.3l1.8-2.6l6,7.1l-6.4,1.7l-0.4,6.3l-10.9-4.3l1.6,6.9l-5.7,0.1l-4.7-6.3l-0.6-4.9l5.2-0.3
	l-4.4-8.8l-1.8-4.9l10.5,6.6L1721.2,265.6z"/>
<path id="KZ" class="st0" d="M1338.3,207.5l4.4-0.3l9.2-5.8l-0.8,2l8.4,4.7l18.3,15.6l1.1-3.2l8.4,3.5l6.2-1.6l3.3,1.1l4.1,3.6
	l4,1.2l3.3,2.7l6-0.9l4.4,3.8l-1.9,4.2l-3.8,0.6l2.5,6.2l-1.6,2.9l-10.8-2.1l1,11.3l-2,1.4l-9.1,2.5l8.8,11l-2.9,1.6l1.7,3.7l-3.5-1
	l-3.4-2.3l-7.9-0.6l-8.6-0.2l-1.6,0.7l-8.2-2.7l-2.5,1.4l0.5,3.7l-9.2-2.2l-3.1,0.9l-0.3,2.8l-2.6,1.2l-5.4,4.4l-0.9,4.6h-2l-2.3-3
	l-6.7-0.2l-2.5-5.2l-2.6-0.1l-1.5-6.4l-7.6-4.6l-8.6,0.5l-5.7,0.9l-6.6-5.7l-4.8-2.4l-9.2-4.5l-1.1-0.5l-12,3.7l6.2,23.4l-2.6,0.3
	l-4.8-5l-3.9-1.8l-5.6,1.3l-1.8,2.2l-0.6-1.6l0.6-2.6l-1.5-2.2l-6.5-2.2l-3.7-5.7l-3.2-1.6l-0.6-2.1l5.1,0.6l-1-4.6l4.1-1l4.7,0.9
	l-0.7-6.1l-1.9-3.9l-5,0.3l-4.7-1.5l-5.1,2.7l-4.4,1.4l-2.8-1.1l-0.2-3.2l-4.3-4.2l-3.6,0.2l-5.3-4.2l1.7-4.8l-1.8-1.2l2.2-6.9
	l6,3.6l-0.6-4.5l8.1-6.7l7.6-0.2l12,4.3l6.6,2.5l4.4-2.6l7.7-0.1l7.3,3.2l0.8-1.9l7,0.3l0.2-2.9l-9.4-4.3l3.5-3l-1.5-1.6l4-1.6
	l-5.1-4.2l1.4-2.1l17-2.1l1.7-1.5l10.9-2.3l3.1-2.5l9.1,1.3l4.4,6.3l4.3-1.5l7.1,2.1L1338.3,207.5L1338.3,207.5z"/>
<path id="KE" class="st0" d="M1223.5,523.7l-4.9,7.2l0.2,23.4l3.3,5.3l-4,2.6l-1.4,2.7l-2.2,0.4l-0.8,4.6l-1.9,2.6l-1.1,4.2
	l-2.3,2.1l-8.1-6.4l-0.3-3.7l-20.5-13.1l0.4-4.7l-1.4-2.5v-0.3l1.6-2.6l2.8-4.2l2.1-4.7l-2.6-7.4l-0.7-3.2l-2.7-4.5l3.4-3.8l3.8-4.2
	l2.9,1.1l0.1,3.6l1.9,2.1h4l7.2,5.4l1.8,0.1l1.3-0.2l1.3,0.7l3.8,0.6l1.6-2.7l5.2-2.7l2.3,2.2L1223.5,523.7L1223.5,523.7z"/>
<path id="KG" class="st0" d="M1400.5,277.2l-0.2,1.4l-6.9,3.4l-1,2.6l-6.4,0.7l-0.6,4.1l-5.8-0.9l-3.2,1.3l-4.1,3l1.2,1.5l-1.1,1.4
	l-9.6,1l-7.1-2.1l-5.5,0.5l-0.6-3.6l6,1l1.4-1.9l4.1,0.6l5.3-4.6l-7.2-3.4l-3.2,1.6l-4.6-2.4l3-4.1l-1.7-0.6l0.3-2.8l3.1-0.9
	l9.2,2.2l-0.5-3.7l2.5-1.4l8.2,2.7l1.6-0.7l8.6,0.2l7.9,0.6l3.4,2.3L1400.5,277.2L1400.5,277.2z"/>
<path id="KH" class="st0" d="M1589.8,457.6l1.8,4.3l0.1,7.7l-9,5l2.8,3.8l-5.9,0.5l-4.6,2.6l-4.8-0.9l-2.6-3.4l-3.5-6.6l-2.1-7.8
	l3.1-5.3l7.1-1.2l5.3,0.9l5,2.5l2-4.4L1589.8,457.6L1589.8,457.6z"/>
<path id="KR" class="st0" d="M1652.9,306.5v-0.6l2.5,0.2l0.6-2.8l3.6-0.4l2-0.4V301l8.3,7.5l3.3,4.2l3.4,7.4l-0.5,3.5l-4.3,1.2
	l-3.1,2.7l-4.6,0.5l-2.1-3.5l-1.1-4.8l-5.3-6.6l3.4-1.1L1652.9,306.5L1652.9,306.5z"/>
<path id="KW" class="st0" d="M1247.5,356.4l1.5,2.8l-0.3,1.5l2.4,4.8l-3.9,0.2l-1.7-3.1l-5-0.6l3.3-6.2L1247.5,356.4L1247.5,356.4z"
	/>
<path id="LA" class="st0" d="M1589.8,457.6l-5.3-2.3l-2,4.4l-5-2.5l1.5-2.9l-0.4-5.4l-5.3-5.6l-1.3-6.4l-5-5.2l-4.3-0.4l-0.8,2.2
	l-3.2,0.2l-1.9-1.1l-5.3,3.8l-1-5.8l0.4-6.7l-3.8-0.3l-0.9-3.9l-2.7-2l0.8-2.3l4.1-4.2l0.8,1.5l3,0.2l-2-7.4l2.7-0.9l4,5.1l3.5,5.8
	h6.8l3,5.6l-3.3,1.7l-1.2,2.3l7.3,3.9l5.7,7.6l4.4,5.6l4.9,4.5l2,4.5L1589.8,457.6L1589.8,457.6z"/>
<path id="LB" class="st0" d="M1179.1,335.2l-1.4,0.1l-0.4,1.1h-1.8l1.3-5.3l2.2-4.5v-0.2l2.5,0.3l1.2,2.5l-2.7,2.5L1179.1,335.2
	L1179.1,335.2z"/>
<path id="LR" class="st0" d="M938.6,499.5l-0.2,1.8l0.5,3.1l-1.2,2.9l1.6,1.8l1.8,0.4l2.4,2.7l0.2,2.5l-0.6,0.8l-0.4,5.3l-1.5,0.1
	l-5.8-3.1l-5.2-4.9l-4.8-3.5l-3.8-4.1l1.4-2.1l0.3-1.9l2.6-3.4l2.6-3l1.3-0.2l1.4-0.7l2.4,3.9l-0.4,2.6l1.1,1.4h1.6l1.1-2.6
	L938.6,499.5L938.6,499.5z"/>
<path id="LY" class="st0" d="M1122.6,346.1l-1.7,3.1l1,2.8l-1.1,3.9l2,5.2l1.3,22.8l1,23.7l0.5,12.8h-6.4v2.7l-22.6-12.3l-22.5-12.3
	l-5.5,3.5l-3.8,2.4l-3.2-3.5l-8.8-2.8l-2.5-4l-4.5-3l-2.5,1.2l-2.1-3.6l-0.2-2.7l-3.4-4.7l2.2-2.7l-0.6-4l0.6-3.5l-0.4-3l0.8-5.2
	l-0.4-3l-1.9-5.7l2.6-1.4l0.4-2.8l-0.6-2.6l3.6-2.5l1.6-2.1l2.6-1.8l0.1-4.9l6.4,2.2l2.3-0.6l4.5,1.1l7.3,2.9l2.8,5.7l4.9,1.2
	l7.8,2.7l6,3.2l2.5-1.7l2.5-2.9l-1.6-4.9l1.5-3.2l3.7-3l3.7-0.8l7.4,1.3l2,2.8l2,0.1l1.8,1.1l5.4,0.7L1122.6,346.1L1122.6,346.1z"/>
<path id="LK" class="st0" d="M1445.9,509l-4.8,1.5l-2.9-5.1l-1.4-9.2l2-10.4l4.1,3.5l2.8,4.5l3.1,6.7l-0.6,6.7L1445.9,509
	L1445.9,509z"/>
<path id="LT" class="st0" d="M1111.1,194.6l1,2.7l-3.6,2l-0.5,3.4l-4.8,2.3h-4.7l-1.4-1.9l-2.5-0.7l-0.6-1.5l0.2-1.7l-2.2-0.9
	l-5.1-1.1l-1.7-5.1l5.1-1.8l7.9,0.4l4.5-0.6l0.9,1.2l2.5,0.4L1111.1,194.6L1111.1,194.6z"/>
<path id="LU" class="st0" d="M1016.9,232.4l-1.4,0.1l-1.1-0.5l0.4-3.5l1.3-0.2l1,1.4L1016.9,232.4z"/>
<path id="LV" class="st0" d="M1112.8,183.5l2.5,1.3l1,2.9l2.1,3.6l-4.6,2.3l-2.7,1l-5-2.9l-2.5-0.4l-0.9-1.2l-4.5,0.6l-7.9-0.4
	l-5.1,1.8l-0.5-4.5l1.7-3.8l4.1-2l4.4,4.5l3.7-0.2l0.1-4.6l3.8-1l2.1,0.7l4.4,2.2L1112.8,183.5L1112.8,183.5z"/>
<path id="MA" class="st0" d="M974.8,323l1.9,4.1l0.3,3.9l1.9,6.8l1.4,1.4l-1,2.5l-7.1,1.1l-2.5,2.3l-3.1,0.6l-0.3,4.8l-6.4,2.5
	l-2.1,3.2l-4.5,1.7l-5.4,1l-8.9,4.8l-0.1,7.6H938l0.1,3.4l-3.4,0.2l-1.8,1.5h-2.5l-2-0.9l-4.6,0.7l-1.9,5l-1.8,0.5l-2.7,8.1
	l-7.9,6.9l-2,8.9l-2.4,2.9l-0.7,2.3l-12.5,0.5h-0.1l0.3-3l2.2-1.7l1.9-3.4l-0.3-2.2l2-4.5l3.2-4.1l1.9-1l1.6-3.7l0.2-3.5l2.1-3.9
	l3.8-2.4l3.6-6.5l0.1-0.1l2.9-2.5l5.1-0.7l4.4-4.4l2.8-1.7l4.7-5.4l-1.2-7.9l2.2-5.6l0.9-3.4l3.6-4.3l5.4-2.9l4.1-2.7l3.7-6.6l1.8-4
	l3.9,0.1l3.1,2.7l5.1-0.4l5.5,1.4L974.8,323L974.8,323z"/>
<path id="MD" class="st0" d="M1129.4,257.3l-1.3-2.9l0.2-2.7l-0.6-2.7l-3.4-3.8l-2-2.6l-1.8-1.8l-1.6-0.7l1.1-0.9l3.2-0.6l4,1.9
	l2,0.3l2.6,1.7l-0.1,2.1l2,1l1.1,2.6l2,1.6l-0.2,1l1,0.6l-1.3,0.5l-3-0.2l-0.6-0.9l-1,0.5l0.6,1.1l-1.1,2.1l-0.6,2.1L1129.4,257.3
	L1129.4,257.3z"/>
<path id="MX" class="st0" d="M449.3,382.9l2.2-0.2l-3.2,5.7l-1.8,4.6l-1.8,8.6l-1.1,3.1l0.4,3.5l1.3,3.2l0.4,4.9l3,4.8l0.8,3.7
	l1.7,3.1l5.7,1.7l1.9,2.7l5.2-1.8l4.3-0.6l4.4-1.2l3.6-1.1l3.9-2.6l1.8-3.7l1.2-5.4l1.2-1.9l4-1.7l6.1-1.5l4.9,0.3l3.4-0.6l1.2,1.4
	l-0.6,3.1l-3.5,3.8l-1.8,3.9l0.9,1.1l-1.2,2.8l-2.1,5l-1.2-1.7l-1.1,0.1l-1.1,0.1l-2.5,3.9l-0.9-0.8l-0.7,0.3l-0.1,1l-5.2-0.1h-5.2
	l-0.5,3.6l-2.5,0.1l1.8,2.1l1.9,1.5l0.5,1.4l0.8,0.4l-0.4,2.2h-7.2l-3.3,5.2l0.7,1.2l-0.8,1.5l-0.4,1.9l-5.6-6.9l-2.6-2.1l-4.4-1.7
	l-3.2,0.5l-4.8,2.4l-2.9,0.6l-3.7-1.7l-4.1-1.2l-4.8-2.9l-4.1-0.9l-5.9-3l-4.3-3.1l-1.1-1.7l-3.1-0.4l-5.4-2l-1.9-2.9l-5.4-3.7
	l-2.2-4l-0.8-3.2l1.9-0.6l-0.3-1.8l1.6-1.7l0.4-2.2l-1.5-2.9v-2.5l-1.3-3.3l-3.8-6.4l-4.6-5l-1.9-4l-4.1-2.6l-0.7-1.6l1.7-3.9
	l-2.4-1.5l-2.5-3.2l-0.2-4.4l-2.8-0.6l-2.3-3.3l-1.7-3.2l0.3-2l-1.5-4.8l-0.3-4.9l0.8-2.5l-3.1-2.6l-1.9,0.3l-2.4-1.7l-1.8,2.6
	l-0.1,3l-1,4.9l1,2.6l2.8,4.4l0.4,1.6l0.7,0.4l0.1,2.2l1-0.1v4.2l1.3,1.6l0.5,2.3l2.7,3.2l0.4,6l1,2.8l0.9,3l-0.3,3.4l2.6,0.2
	l1.6,2.9l1.5,2.9l-0.3,1.2l-2.8,2.3h-1l-0.7-3.9l-2.9-3.7l-3.4-3.1l-2.5-1.6l1.2-4.7l-0.1-3.5l-2.1-2L363,377l-0.9,0.8l-1-1.7
	l-3-1.5l-2.2-3.8l0.5-0.4l2.1,0.3l2.7-2.4l1-2.9l-2.9-4.6l-2.6-1.7l-0.8-4l-0.6-4.3l-0.8-5.1l-0.2-5.8l6.3-0.5l7.1-0.7l-0.9,1.3
	l7,3.1l10.9,4.5h10.8h4.3l0.8-2.7h9.4l1.3,2.3l2.1,2.1l2.4,2.8l0.8,3.3l0.4,3.6l2.3,1.9l4,1.9l4.8-5l4.5-0.2l3.2,2.6l1.6,4.4
	l0.9,3.8l2.4,3.6l0.2,4.5l0.9,3l3.9,2L449.3,382.9L449.3,382.9z"/>
<path id="MK" class="st0" d="M1105.5,283.6l-1,0.2l-0.8,1.1l-2.8-0.1l-1.8,1.4l-3.4,0.5l-2.3-1.5l-1-2.7l0.5-2.2l0.7,0.1l0.1-1.3
	l2.9-1l1.2-0.3l1.7-0.3l2.4-0.2l2.8,2.1L1105.5,283.6L1105.5,283.6z"/>
<path id="ML" class="st0" d="M1010.2,425.8l0.1,14.8l-3.1,4.3l-0.4,4l-5,1l-7.7,0.5l-2,2.3l-3.6,0.3h-3.6l-1.4-1.2l-3.1,0.9
	l-5.3,2.7l-1.1,2l-4.3,2.8l-0.8,1.7l-2.4,1.3l-2.7-0.9l-1.5,1.6l-0.9,4.4l-4.5,5.3l0.2,2.2l-1.6,2.7l0.4,3.7l-2.4,1l-1.3,0.8
	l-0.9-2.7l-1.6,0.7l-1-0.1l-1,1.8h-4.4l-1.5-1l-0.8,0.6l-1.7-1.9l0.3-1.9l-0.7-0.7l-1.2,0.6l0.3-2.1l1.1-1.6l-2.3-2.7l-0.6-1.8
	l-1.3-1.4l-1.1-0.2l-1.3,0.9l-1.9,0.9l-1.5,1.4l-2.4-0.5l-1.6-1.7l-0.9-0.2l-1.5,0.9h-0.9l-0.3-2.4l0.3-2l-0.5-2.4l-2-1.8l-1.1-3.7
	l-0.2-4l1.9-1.2l1-3.8l1.8-0.1l3.9,1.8l3.2-1.3l2.1,0.4l0.9-1.4l22.5-0.1l1.3-4.5l-1-0.8l-2.5-27.7l-2.4-27.7l8.5-0.1l18.6,14
	l18.7,14l1.3,3l3.5,1.8l2.6,1.1l0.1,4.1L1010.2,425.8L1010.2,425.8z"/>
<path id="MM" class="st0" d="M1548.4,411.2l-4.1,4.2l-0.8,2.3l-3,1.5l-2.8,2.8l-3.9,0.3l-1.5,6.9l-2.2,1.2l3.5,5.6l4.1,4.7l2.9,4.3
	l-1.4,5.5l-1.8,1.2l1.8,3.2l4.3,5.1l1,3.6l0.2,3l2.7,5.9l-2.6,6l-2.2,6.6l-0.9-4.8l1.3-4.9l-2.2-3.8l-0.2-7l-2.6-3.4l-2.7-7.6
	l-2-8.1l-3.1-5.4l-3.2,3.3l-5.8,4.5l-3.3-0.5l-3.6-1.5l0.9-8l-2-6l-5.3-7.4l0.3-2.3l-3.4-0.9l-4.6-5.2l-1.1-5.2l2.1,1l-0.6-4.6
	l2.5-1.5l-1-2.7l1-2.2l-0.9-6.7l4.6,1.5l1.6-5.3l-0.3-3.1l2-5.4l-0.9-3.7l6.2-4.4l4.2,1.1l-1.4-3.9l1.7-1.2l-1-2.4l3.1-0.5l2.7,3.8
	l2.7,1.5l1.3,4.9l0.9,5.3l-4.2,5.4l0.7,7.6l5.6-1.1l2.4,5.9l3.7,1.3l-0.8,5.3l4.5,2.4l2.6,1.2l3.8-1.9L1548.4,411.2L1548.4,411.2z"
	/>
<path id="ME" class="st0" d="M1090.6,274.2l-0.8,1.4l-1.4,0.6l-0.4-1.2l-1.9,3.1l0.5,2.1l-1.1-0.5l-1.7-2.1l-2.3-1.3l0.5-1l0.4-3.5
	l1.6-1.5l0.9-0.6l1.4,1.1l0.9,0.9l1.7,0.7l2.1,1.3L1090.6,274.2L1090.6,274.2z"/>
<path id="MN" class="st0" d="M1496.2,228.5l4-1.2l5.7-0.8l5.4,0.9l6.6,2.9l4.9,3.2h4.6l6.8,1l3.6-1.6l5.9-1l4.4-4.4l3.4,0.7l3.9,2.1
	l5.6-0.6l0.6,4.7l0.3,6.3l2.8,2.5l2.3-0.8l5.5,1l2.5-2.3l5.2,2l7.2,4.4l0.8,2.2l-4.4-0.7l-6.8,0.8l-2.5,1.8l-1.3,4.2l-6.4,2.4
	l-3.2,3.4l-5.9-1.3l-3.2-0.6l-0.5,4.1l2.9,2.4l1.9,2.1l-2.4,2.2l-2,3.4l-4.9,2.2l-7.6,0.2l-7.2,2.2l-4.4,3.4l-3.3-1.9h-6.2l-9.4-3.9
	l-5.6-0.9l-6.4,0.9l-11.3-1.5l-5.6,0.2l-4.7-3.8l-5-5.8l-3.4-0.7l-8-4l-7.2-0.8l-6.5-1.1l-3-2.8l-1.4-7.3l-5.8-5.1l-8.2-2.3
	l-5.7-3.3l-3.3-4.4l4.7-1.1l6.7-5.3l5.9-2.9l5.3,1.9l5.2,0.1l4.8,2.9l5,0.2l8,1.6l2.4-4.4l-4-3.6l1.3-6.4l7,2.5l4.8,0.8l6.7,1.6
	l3.6,4.6L1496.2,228.5L1496.2,228.5z"/>
<path id="MR" class="st0" d="M959.2,388.5l-8.5,0.1l2.4,27.7l2.5,27.7l1,0.8l-1.3,4.5l-22.5,0.1l-0.9,1.4l-2.1-0.4l-3.2,1.3
	l-3.9-1.8l-1.8,0.1l-1,3.8L918,455l-3.6-4.4l-3.4-4.8l-3.6-1.7l-2.7-1.8h-3.1l-2.8,1.4l-2.7-0.5l-2,2l-0.4-3.4l1.6-3.2l0.8-6
	l-0.4-6.4l-0.6-3.2l0.6-3.2l-1.4-3l-2.8-2.8l1.3-2.1h21.7l-0.9-9.3l1.5-3.3l5.2-0.5l0.2-16.5l18,0.4l0.2-9.8L959.2,388.5
	L959.2,388.5z"/>
<path class="st0" d="M1564.3,508.9l1.4,0.6l3.5,3.9l2.5,4.3l0.6,4.3l-0.5,2.9l0.6,2.2l0.5,3.8l2.1,1.8l2.3,5.7v2.1l-4,0.5l-5.5-4.8
	l-6.8-5.1l-0.8-3.3l-3.4-4.3l-1-5.3l-2.2-3.5l0.4-4.7l-1.4-2.7l0.9-1.1l4.8,2.8l0.6,3.3l3.7-0.8L1564.3,508.9z"/>
<path class="st0" d="M1654.1,522.3l-5-1.1h-6.5l-1.7,7.3l-2.1,2.2l-2.6,8.9l-4.6,1.4l-5.4-1.8l-2.7,0.6l-3.3,3.2l-3.6-0.4l-3.7,1.3
	l-3.9-3.7l-1-4.3l4.2,2.2l4.3-1.2l1-5.4l2.4-1.2l6.8-1.4l3.8-5.1l2.6-4l2.8,3.3l1.1-2.2l2.7,0.2l0.1-4.1l0.1-3.2l4.1-4.4l2.6-5
	l2.3-0.1l3.1,3.3l0.4,2.8l3.8,1.8l4.8,1.9l-0.2,2.5l-3.8,0.3l1.1,3.2L1654.1,522.3z"/>
<path id="NE" class="st0" d="M1068.6,402l1.6,10l2.2,1.7l0.1,2l2.4,2.2l-1.2,2.8l-1.8,13l-0.2,8.4l-7,6l-2.3,8.5l2.4,2.4v4.1
	l3.7,0.1l-0.6,3.1l-1.5,0.3l-0.2,2.1l-1,0.1l-3.9-7l-1.4-0.3l-4.3,3.6l-4.4-1.9l-3-0.3l-1.6,0.9l-3.3-0.2l-3.3,2.7l-2.9,0.2
	l-6.8-3.3l-2.7,1.5l-2.9-0.1l-2.1-2.4l-5.6-2.4l-6.1,0.8l-1.4,1.3l-0.8,3.7l-1.6,2.6l-0.4,5.8l-4.3-3.7h-2l-1.9,1.9l0.1-4.4
	l-6.5-1.5l-0.2-3.1l-3.1-4.2l-0.8-2.9l0.5-3.1l3.6-0.3l2-2.3l7.7-0.5l5-1l0.4-4l3.1-4.3l-0.1-14.8l7.8-2.8l16-12.6l18.8-12.3
	l8.8,2.8l3.2,3.5L1068.6,402L1068.6,402z"/>
<path id="NG" class="st0" d="M1066.2,468.7l2.3,2.5l-0.6,1.2l-0.3,2.1l-4.7,5l-1.4,4.1l-0.8,3.3l-1.2,1.5l-1.1,4.5l-3,2.6l-0.8,3.2
	l-1.3,2.6l-0.5,2.7l-3.9,2.2l-3.2-2.7l-2.1,0.1l-3.4,3.8h-1.6l-2.7,6.2l-1.4,4.6l-5.9,2.3l-2.1-0.3l-2.2,1.4l-4.5-0.1l-3.1-4.1
	l-1.9-4.6l-4-4.2h-4.2h-5l0.3-10.3l-0.2-4.1l1.1-4l1.7-2l2.8-4l-0.6-1.7l1.1-2.6l-1.3-3.8l0.2-2.1l0.4-5.8l1.6-2.6l0.8-3.7l1.4-1.3
	l6.1-0.8l5.6,2.4l2.1,2.4l2.9,0.1l2.7-1.5l6.8,3.3l2.9-0.2l3.3-2.7l3.3,0.2l1.6-0.9l3,0.3l4.4,1.9l4.3-3.6l1.4,0.3l3.9,7
	L1066.2,468.7L1066.2,468.7z"/>
<path id="NI" class="st0" d="M519.6,452.5l-0.5,0.7l-0.5,1.4l0.4,2.3l-1.5,2.2l-0.8,2.6l-0.5,2.8l0.2,1.7l-0.1,2.9l-0.9,0.6
	l-0.7,2.8l0.2,1.7l-1.2,1.6l0.1,1.7l0.8,1.1l-1.4,1.4l-1.7-0.5l-0.8-1.3l-1.8-0.5l-1.3,0.8l-3.6-1.7l-0.9,0.8l-1.8-2l-2.5-2.6
	l-1.1-2.1l-2.2-2.1l-2.5-2.9l0.7-1l0.8,1l0.5-0.4l1.8-0.3l0.8-1.5h0.8l0.2-3.2l1.3-0.1h1.2l1.4-1.7l1.5,1.3l0.6-0.8l1.2-0.8l2.1-1.7
	l0.2-1.4l0.5,0.1l0.9-1.5l0.6-0.2l0.9,1l1.1,0.2l1.3-0.8h1.4l2-0.8l0.9-0.9L519.6,452.5L519.6,452.5z"/>
<path class="st0" d="M1113.7,114.5l-6.4,2.1l-3.2,0.5l0.8-3.8l-5.8-2.1l-5.9,1.8l-1.1,4l-3.4,2.4l-4.7-1.3l-5.3,0.2l-5.1-2.8
	l-2.2,1.4l-2.6,0.2l0.1,3.6l-8-0.9l-0.6,3.1h-4l-2.3,3.9l-3.4,6.1l-5.7,7.9l1.8,2l-1.3,2.2l-4.3-0.1l-2.4,5.4l1,7.7l3.1,2.9
	l-0.8,6.9l-3.4,4l-1.8,3.4l-3.3-3.6l-8.6,6.8l-6.1,1.4l-6.5-3l-1.8-6.3l-2-13.5l4-3.7l11.3-4.9l8.1-5.9l7.2-7.8l8.9-10.7l6.4-4.1
	l10.3-6.8l8.5-2.4l6.7,0.3l5.2-4.4l7.4,0.2l7-1l13.7,3.9l-4.9,1.4L1113.7,114.5z"/>
<path class="st0" d="M1076.6,72.2l-7.6,1.9l-6.8-1.1l2.2-1.2l-2.6-1.5l7.3-0.9l1.9,1.7L1076.6,72.2z"/>
<path class="st0" d="M1051,63.7l12.6,3.4l-8.6,1.8l-1.2,3.4l-3,0.9l-0.9,4l-4.4,0.2l-8.5-2.9l3-1.7l-5.7-1.4l-7.7-3.9l-3.2-3.5
	l9.3-1.6l2.3,1.5h5l1-1.5l5.2-0.2L1051,63.7z"/>
<path class="st0" d="M1075.4,60.7l7.4,1.5l-4.4,2.4l-10.1,0.5l-10.7-0.8l-1-1.2h-5.1l-4.3-2l10.5-1.2l5.4,1l3.1-1.3L1075.4,60.7z"/>
<path id="NP" class="st0" d="M1469,369.9l0.2,2.7l1.5,4.1l-0.1,2.5l-4.6,0.1l-6.9-1.5l-4.3-0.6l-3.8-3.2l-7.7-0.9l-7.8-3.6l-5.8-3.1
	l-5.8-2.4l0.9-6l2.8-3l1.9-1.5l4.8,2l6.4,4.2l3.3,0.9l2.5,3.1l4.5,1.2l5,2.9l6.5,1.4L1469,369.9L1469,369.9z"/>
<path class="st0" d="M1283.8,441.9l-2.2-4.5l-5.2-10.6l16.3-6.4l2.6-12.8l-3-4.6v-2.6l1.3-2.6l-0.2-2.6l2.4-1.3l-1.1-0.9v-4.2h2.8
	l3,4.4l3.3,2.3l4.1,0.9l3.4,1.1l2.9,3.7l1.7,2.1l2,0.9l0.2,1.4l-1.7,3.8l-0.7,1.8l-2.2,2.1l-1.7,4.4l-2.5-0.4l-1,1.6l-0.7,3.2
	l1.1,4.3l-0.5,0.8h-2.5l-3.3,2.4l-0.3,3.1l-1.2,1.4l-3.5-0.1l-2,1.6l0.2,2.6l-2.6,1.8l-3.1-0.6l-3.6,2.2L1283.8,441.9z"/>
<path class="st0" d="M1296.2,383.7l-1.3-2.2l1.4-2.1l0.7,0.5l-0.2,2.7L1296.2,383.7z"/>
<path id="PK" class="st0" d="M1401.6,320.9l-3.8,5.4l-5.7,1l-8.5-1.6l-2,2.8l3.3,5.6l2.9,4.4l5.1,3.1l-3.8,3.7l1,4.6l-3.9,6.5
	l-2.2,6.5l-4.5,6.7l-6.5-0.5l-4.9,6.8l4,2.8l1.4,5l3.5,3.2l1.8,5.5h-12.1l-3.2,4.3l-4.2-1.6l-2.2-4.6l-4.9-4.9l-10,1.2l-9,0.1
	l-7.6,0.9l1.1-7.4l7.5-3.4l-0.9-2.9l-2.7-1.1l-1-5.6l-5.7-2.8l-2.8-3.9l-3.2-3.4l9.6,3.3l5.3-1l3.4,0.8l0.9-1.4l3.9,0.6l6.6-2.7
	l-0.8-5.4l2.3-3.7h4.1l0.2-1.7l4-0.9l2.1,0.6l1.8-1.8l-1.1-3.9l1.4-3.8l3.1-1.7l-3.1-4.2l5.2,0.2l0.9-2.3l-0.8-2.5l2-2.7l-1.4-3.2
	l-1.9-2.7l2.4-2.8l5.3-1.3l5.9-0.8l2.4-1.1l2.9-0.8l4.7,3l2.9,5L1401.6,320.9L1401.6,320.9z"/>
<path id="PA" class="st0" d="M549.3,493.2l-0.7,0.9l1.1,3.8l-1.1,1.9l-1.8-0.5l-0.9,3.1l-1.8-1.8l-1-3.5l1.4-1.7l-1.4-0.4l-0.9-2.1
	l-2.8-1.8l-2.4,0.4l-1.3,2.2l-2.4,1.6l-1.2,0.2l-0.6,1.4l2.5,3.5l-1.6,0.8l-0.8,0.9l-2.7,0.4l-0.8-3.9l-0.8,1.1l-1.8-0.4l-1-2.5
	l-2.3-0.5l-1.5-0.7h-2.4l-0.2,1.4l-0.6-1l0.3-1.3l0.6-1.3l-0.2-1.1l0.9-0.8l-1.1-0.9l0.1-2.6l2.2-0.6l1.9,2.3l-0.2,1.4l2.2,0.3
	l0.6-0.6l1.5,1.6l2.8-0.5l2.5-1.6l3.5-1.3l2-1.9l3.1,0.4l-0.2,0.6l3.1,0.2l2.4,1.2l1.8,1.9L549.3,493.2L549.3,493.2z"/>
<polygon class="st0" points="590.5,576.4 585.4,576.1 584.6,577.1 580,578.3 573.7,582.7 573.4,585.7 572,587.9 572,587.9 
	526.8,587.9 528.3,585.4 525.3,579.2 527,574.7 531.4,570.7 532.1,573.4 530.5,574.9 530.8,577.2 533.1,576.7 535.4,577.4 
	537.9,580.7 541,578 541.9,573.7 545.3,568.1 552,565.6 558.1,558.8 559.8,554.7 559,549.8 560.5,549.2 564.3,552.2 566.1,555.3 
	568.7,556.9 572.2,563.6 576.4,564.5 579.5,562.8 581.6,563.9 585,563.3 589.4,566.3 585.9,572.9 587.6,573 "/>
<path class="st0" d="M1700.5,494.8l0.9,4.3l0.6,3.6l-1.6,5.8l-2.5-6.5l-2.4,3.3l2.1,4.7l-1.4,3l-6.9-3.7l-1.9-4.7l1.5-3l-3.8-3.1
	l-1.6,2.7l-2.6-0.3l-4,3.6l-1-1.9l1.8-5.4l3.4-1.8l2.9-2.4l2.2,2.9l4.2-1.7l0.7-2.9l4-0.2l-0.8-4.9l4.9,3l0.7,3.2L1700.5,494.8z"/>
<path class="st0" d="M1685.9,482.8l-1.8,2.1l-1.4,4.1l-1.6,1.9l-3.9-4.4l1-1.8l1.3-1.8l0.2-3.9l3.1-0.4l-0.5,4.3l3.6-6.2
	L1685.9,482.8L1685.9,482.8z"/>
<path class="st0" d="M1655.6,489l-7.1,6.1l2.4-4.5l3.8-4l3-4.4l2.3-6.4l1.6,5.3l-3.5,3.5L1655.6,489z"/>
<path class="st0" d="M1673.1,472.5l3.6,2h3.5l0.2,2.6l-2.3,2.8l-3.4,1.9l-0.5-3l0.1-3.3L1673.1,472.5z"/>
<path class="st0" d="M1693.2,470.7l2.4,7.2l-4.5-1.7l0.3,2.2l1.8,3.9l-2.6,1.5l-0.6-4.6l-1.8-0.3l-1.2-3.9l3.3,0.5l-0.3-2.4l-4-4.9
	l5.4,0.1L1693.2,470.7z"/>
<path class="st0" d="M1670.2,464.9l-0.9,5.6l-2.7-3.2l-3.5-4.9l4.8,0.2L1670.2,464.9z"/>
<path class="st0" d="M1663.7,430l3.8,1.9l1.4-1.7l0.8,1.6l-0.4,2.7l2.6,4.6l-0.6,5.3l-2.9,2.1l-0.1,5.2l2,5.1l3,0.7l2.4-0.7l7.5,3.5
	l-0.1,3.5l2.1,1.6l-0.3,2.9l-4.7-3.1l-2.5-3.4l-1.2,2.4l-4-3.9l-5,1l-3-1.4l-0.1-2.7l1.6-1.6l-1.9-1.5l-0.4,2.3l-3.3-3.7l-1.3-2.8
	l-1.1-6.1l2.6,2.1l-1.1-10.1l0.8-5.8H1663.7z"/>
<polygon class="st0" points="1866.1,587.9 1862.7,587.9 1862,586.7 1861.2,581.8 1862,581.2 1862.5,583.1 1864.1,584.6 "/>
<polygon class="st0" points="1849.2,576.5 1848.8,580.1 1846.7,584 1843.7,584.5 1842.7,586.3 1839.5,587.9 1839.5,587.9 
	1829.9,587.9 1828.9,587.5 1825.8,585.7 1826.4,583.7 1831.4,584.7 1834.6,584.2 1835.6,581.1 1836.5,580.9 1836.8,584.3 
	1840,583.9 1841.8,581.7 1845.1,579.4 1844.7,575.6 1848.1,575.5 "/>
<polygon class="st0" points="1821.9,587.9 1821.9,587.9 1784.4,587.9 1784.5,586.4 1785.5,565.5 1795.1,569.9 1805.4,573.6 
	1809.1,576.9 1812.1,580.1 1812.7,583.9 "/>
<path class="st0" d="M1853.6,577.7l-1.8,1.7l-0.9-3.8l-1.1-2.4l-2.5-2.1l-3.1-2.8l-4-1.9l1.6-1.5l3,1.8l1.9,1.4l2.3,1.5l2.1,2.7
	l2.1,2.1L1853.6,577.7z"/>
<path id="PL" class="st0" d="M1079.9,201.8l5.9,0.7l8.8-0.1l2.5,0.7l1.4,1.9l0.6,2.7l1.7,2.3l0.4,2.4l-2.8,1.3l1.9,2.8l0.5,2.8
	l3.2,5.4l-0.3,1.7l-2.3,0.7l-3.8,5.2l1.6,2.8l-1.1-0.4l-5-2.4l-3.5,0.9l-2.4-0.6l-2.8,1.3l-2.7-2.2l-1.9,0.9l-0.3-0.4l-2.6-3.1
	l-3.7-0.3l-0.7-2l-3.4-0.7l-0.6,1.6l-2.8-1.3l0.2-1.7l-3.7-0.5l-2.5-2l-2.4-3.9l0.2-2.2l-1.5-3.3l-1.9-2.1l1.2-1.7l-1.4-3.1l3.1-1.8
	l7.1-2.8l5.8-2l4.8,1l0.6,1.5L1079.9,201.8L1079.9,201.8z"/>
<path id="KP" class="st0" d="M1660.3,276.9l1.4,1.1l-2.2-0.4l-1,2.2l-0.3,2.1l2.8,4.6l-1.9,1.4l-0.3,1.1l-0.9,1.9l-2.9,1.1l-1.4,1.7
	l1.3,2.7l-0.3,0.7l2.6,1.1l4.4,2.8v1.5l-2,0.4l-3.6,0.4l-0.6,2.8l-2.5-0.2v0.6l-3.2-1.2l-0.1,1.2l-1.3,0.5l-0.7-1.2l-1.7-0.6l-1.9-1
	l0.1-2.8l0.9-0.8l-1-1.1l-0.4-3.5l-0.9-1l-3.4-0.7l-3.4-1.7l2.1-4.1l3.9-3.4l1.1-4.6l3.6,2l4.6,0.3l-2.8-3.4l6.4-2.7v-3.6
	L1660.3,276.9L1660.3,276.9z"/>
<path id="PS" class="st0" d="M1178.3,340.8l0.4,4l-0.6,1.9l-2.5,0.8l0.1-1.7l1.3-0.9l-1.5-0.7l0.7-4.2L1178.3,340.8L1178.3,340.8z"
	/>
<path id="QA" class="st0" d="M1270.1,390.7l-1.5,0.5l-1.8-1.3l-0.8-4.7l1.1-3.3l1.5-0.7l1.8,2l0.5,3.7L1270.1,390.7L1270.1,390.7z"
	/>
<path id="RO" class="st0" d="M1118.9,240.1l1.6,0.7l1.8,1.8l2,2.6l3.4,3.8l0.6,2.7l-0.2,2.7l1.3,2.9l2.4,1.2l2.3-1.1l2.4,1.1
	l0.4,1.7l-2.3,1.3l-1.6-0.6l-0.4,7.7l-3.1-0.7l-4-2.3l-5.9,1.5l-2.3,1.6l-7.6-0.4l-4-0.9l-1.9,0.4l-1.8-2.6l-1-1.1l1-1.1l-1.3-0.7
	l-1.5,1.4l-3.1-1.9l-0.7-2.6l-3.2-1.4l-0.8-2.1l-3-2.4l3.9-1.2l2.6-4.3l1.9-4.2l2.9-1.3l2-1.4l3.2,0.7h3.2l2.5,1.6l1.6-1l3.6-0.6
	l1-1.5L1118.9,240.1L1118.9,240.1z"/>
<path id="RW" class="st0" d="M1158.8,556.1l2.2,3.6l-0.3,3.8l-1.6,0.8l-3.1-0.4l-1.7,3.7l-3.5-0.5l0.6-3.6l0.8-0.5l0.2-3.8l1.6-1.8
	l1.4,0.7L1158.8,556.1L1158.8,556.1z"/>
<path id="EH" class="st0" d="M938.9,371.3l-0.1,0.4l-0.1,1.2l-0.2,9.8l-18-0.4l-0.2,16.5l-5.2,0.5l-1.5,3.3l0.9,9.3h-21.7l-1.3,2.1
	l0.3-2.7h0.1l12.5-0.5l0.7-2.3l2.4-2.9l2-8.9l7.9-6.9l2.7-8.1l1.8-0.5l1.9-5l4.6-0.7l2,0.9h2.5l1.8-1.5l3.4-0.2l-0.1-3.4
	L938.9,371.3L938.9,371.3z"/>
<path id="SA" class="st0" d="M1240.5,362l5,0.6l1.7,3.1l3.9-0.2l2.7,5.6l2.9,1.4l1.2,2.3l4,2.7l0.7,2.6l-0.4,2.2l0.9,2.1l1.8,1.8
	l0.9,2.1l1,1.6l1.8,1.3l1.5-0.5l1.3,2.5l0.3,1.4l2.7,6.6l16.9,3.2l1-1.4l3,4.6l-2.6,12.8l-16.3,6.4l-15.9,2.5l-5,2.9l-3.5,6.7
	l-2.6,1.1l-1.5-2.1l-2.1,0.3l-5.5-0.7l-1.1-0.6l-6.4,0.1l-1.5,0.6l-2.4-1.6l-1.3,3.1l0.8,2.7l-2.4,2.1l-0.9-2.8l-1.8-1.9l-0.5-2.6
	l-3.1-2.3l-3.3-5.4l-1.9-5.2l-4.1-4.4l-2.5-1.1l-4.1-6.1l-0.9-4.4v-3.8l-3.6-7.2l-2.8-2.5l-3-1.3l-2.1-3.7l0.2-1.4l-1.8-3.4
	l-1.7-1.4l-2.5-4.8l-3.8-5.1l-3.1-4.4h-2.7l0.5-3.5l0.1-2.3l0.4-2.6l6.2,1.1l2.1-2l1.1-2.3l4.1-0.9l0.7-2.2l1.6-1l-6-6.5l10.4-3.2
	l0.9-1l6.8,1.8l8.6,4.5l16.8,12.9L1240.5,362L1240.5,362z"/>
<path id="SD" class="st0" d="M1191,456.2l-0.7,5.5l-2,6.4l-3.3,3.1l-2.3,5l-0.5,2.6l-2.6,1.8l-1.5,6.7v0.8l-0.8-0.2l0.1-3.2
	l-0.8-2.2l-2.9-2.5l-0.9-4.6l0.6-4.8l-2.6-0.4l-0.4,1.4l-3.4,0.4l1.5,1.8l0.5,3.9l-3,3.5l-2.7,4.6l-2.9,0.7l-4.8-3.7l-2.1,1.3
	l-0.5,1.8l-2.9,1.3l-0.2,1.3h-5.6l-0.8-1.3l-4.1-0.3l-2,1.1l-1.6-0.5l-2.9-3.8l-1-1.7l-4.1,0.9l-1.5,2.9l-1.3,5.8l-2,1.2l-1.7,0.7
	l-0.5-0.3l-1.9-1.9l-0.4-2l0.8-2.6V484l-3.3-4l-0.7-2.7v-1.6l-2.1-1.9l-0.1-3.7l-1.3-2.5l-1.9,0.4l0.5-2.4l1.4-2.6l-0.7-2.7l1.8-2
	l-1.2-1.5l1.3-3.9l2.5-4.8l4.8,0.5l-1.1-25.5v-2.7h6.4l-0.5-12.8h22.3h21.5h22.1l2.1,6.3l-1.2,1.1l1.2,6.7l2.5,7.6l2.2,1.6l3.2,2.4
	l-2.7,3.6l-4,1.1l-1.7,2l-0.3,4.2l-2,9.5L1191,456.2L1191,456.2z"/>
<path id="SS" class="st0" d="M1178.1,488.1l0.2,5l-0.8,1.9l-3,0.2l-1.9,3.6l3.5,0.5l3,3.1l1,2.6l2.6,1.5l3.5,7l-3.8,4.2l-3.4,3.8
	l-3.5,3h-4l-4.5,1.5l-3.6-1.5l-2.3,1.8l-5.1-4.3l-1.4-2.7l-3.1,1.3l-2.6-0.4l-1.5,1.1l-2.6-0.8l-3.5-5.3l-0.9-2l-4.3-2.6l-1.4-3.8
	l-2.4-2.8l-3.9-3.3l-0.1-2.1l-3.1-2.6l-3.9-2.5l1.7-0.7l2-1.2l1.3-5.8l1.5-2.9l4.1-0.9l1,1.7l2.9,3.8l1.6,0.5l2-1.1l4.1,0.3l0.8,1.3
	h5.6l0.2-1.3l2.9-1.3l0.5-1.8l2.1-1.3l4.8,3.7l2.9-0.7l2.7-4.6l3-3.5l-0.5-3.9l-1.5-1.8l3.4-0.4l0.4-1.4l2.6,0.4l-0.6,4.8l0.9,4.6
	l2.9,2.5l0.8,2.2l-0.1,3.2L1178.1,488.1L1178.1,488.1z"/>
<path id="SN" class="st0" d="M918,455l0.2,4l1.1,3.7l2,1.8l0.5,2.4l-0.3,2l-0.8,0.4l-3.1-0.5l-0.4,0.7l-1.2,0.1l-4.1-1.5l-2.7-0.1
	l-10.4-0.3l-1.5,0.8l-1.9-0.2l-3,1l-0.8-4.9l5.1,0.1l1.4-0.9h1l2.1-1.5l2.4,1.3l2.4,0.2l2.5-1.5l-1.1-1.8l-1.9,1h-1.7l-2.2-1.6
	l-1.8,0.1l-1.3,1.6l-6.1,0.1l-2.3-5l-2.7-2.2l2.5-1.3l2.8-4.5l1.4-3.3l2-2l2.7,0.5l2.8-1.4h3.1l2.7,1.8l3.6,1.7l3.4,4.8L918,455
	L918,455z"/>
<path id="SL" class="st0" d="M928.5,494.9l-2.6,3l-2.6,3.4l-0.3,1.9l-1.4,2.1l-1.5-0.5l-4-2.6l-3-3.4l-0.9-2.4l-0.7-4.7l3.1-2.9
	l0.6-1.7l1-1.4l1.6-0.2l1.3-1.2h4.5l1.6,2.3l1.2,2.7l-0.2,1.9l0.9,1.7l-0.1,2.3L928.5,494.9L928.5,494.9z"/>
<path id="SV" class="st0" d="M492.5,462.9l-0.7,1.5l-3.3-0.1l-2-0.6l-2.2-1.3l-3-0.4l-1.5-1.4l0.3-0.9l2-1.6l1.2-0.7l-0.3-0.8
	l1.4-0.4l1.6,0.6l1.1,1.2l1.6,1.1l0.1,0.8l2.5-0.7l1.2,0.4l0.7,0.7L492.5,462.9L492.5,462.9z"/>
<path id="RS" class="st0" d="M1102,265.2l-1.1,1.4l0.7,2.4l2.8,2.7l-1.8,2l-0.6,2l0.6,0.8l-0.7,0.8l-2.4,0.2l-1.7,0.3l-0.3-0.5
	l0.6-0.7l0.4-1.6l-0.7,0.1l-1.1-1.2l-0.9-0.3l-0.8-1l-1-0.4l-0.8-0.9l-0.9,0.4l-0.5,2.1l-1.2,0.4l0.4-0.5l-2.1-1.3l-1.7-0.7
	l-0.9-0.9l-1.4-1.1l1.1-0.3l0.5-2.9l-2.7-2.5l1.1-2.8l-1.9,0.1l1.7-2.4l-1.7-1.8l-1.5-2.5l3.7-1.6l3.2,0.3l3,2.4l0.8,2.1l3.2,1.4
	l0.7,2.6l3.1,1.9l1.5-1.4l1.3,0.7l-1,1.1L1102,265.2L1102,265.2z"/>
<path id="SR" class="st0" d="M681,511.9l-3.1,5.5l0.3,4.4l2.2,3.8l-1.1,2.7l-0.5,3l-1.5,2.7l-3.2-1.4l-2.7,0.7l-2.3-0.6l-0.6,1.9
	l1,1.2l-0.6,1.4l-3.1-0.6l-3.3-5.6l-0.7-3.6H660l-2.4-4.6l1.1-3.4l-0.3-1.5l3.5-1.6l1-5.8l6.8,1.3l0.6-1.2l4.6-0.5L681,511.9
	L681,511.9z"/>
<path id="SK" class="st0" d="M1098.1,234.7l-1.2,1.7l-0.7,2.5l-1,0.6l-5.5-1.9l-1.6,0.4l-1,1.5l-2.3,0.8l-0.6-0.4l-2.3,0.9l-1.9,0.2
	l-0.3,1.3l-4.1,0.7l-1.9-0.6l-2.7-1.7l-0.7-2.1l0.3-0.8l0.6-1.4l2.2,0.1l1.6-0.6l0.1-0.6l0.9-0.3l0.2-1.4l1.1-0.3l0.7-1.1h1.5
	l0.3,0.4l1.9-0.9l2.7,2.2l2.8-1.3l2.4,0.6l3.5-0.9L1098.1,234.7L1098.1,234.7z"/>
<path id="SI" class="st0" d="M1069.8,250.9l-3.9,1.7l-0.3,2.5l-1.7,0.7l0.1,1.7l-2-0.1l-1.8-1l-0.8,1l-3.6-0.2l1.1-0.5l-1.4-2.7
	l0.4-3.1l4.2,0.5l2.4-1.5l4.4-0.1l0.9-1.1l0.8,0.1L1069.8,250.9L1069.8,250.9z"/>
<path id="SE" class="st0" d="M1088.2,134l-7,1.6l-3.5,3.9l1.3,3.5l-6.2,4.5l-7.8,5l-2.1,8.1l3.7,4.1l4.8,3.3l-3.3,6.6l-4.6,1.4
	l-0.6,10l-2.1,5.7l-5.7-0.6l-2.2,4.8l-5.5,0.3l-1.9-5.7l-4.5-6.9l-4.2-8.4l1.8-3.4l3.4-4l0.8-6.9l-3.1-2.9l-1-7.7l2.4-5.4l4.3,0.1
	l1.3-2.2l-1.8-2l5.7-7.9l3.4-6.1l2.3-3.9h4l0.6-3.1l8,0.9l-0.1-3.6l2.6-0.2l6,2.7l7.2,3.7l1.8,8.5L1088.2,134L1088.2,134z"/>
<path id="SY" class="st0" d="M1195,334.5l-9.7,6.9l-6.3-2.6h-0.1l0.6-1l-0.4-2.6l0.9-3.5l2.7-2.5l-1.2-2.5l-2.5-0.3l-1.1-4.9l1-2.7
	l1.3-1.4l1.2-1.4l-0.2-3.5l1.9,1.2l5.6-1.8l3,1.2h4.4l5.7-2.4l2.9,0.1l5.9-1l-2.1,4l-2.7,1.6l1.2,4.7l-1,7.7L1195,334.5L1195,334.5z
	"/>
<path id="TD" class="st0" d="M1119.2,423.1l1.1,25.5l-4.8-0.5l-2.5,4.8l-1.3,3.9l1.2,1.5l-1.8,2l0.7,2.7l-1.4,2.6l-0.5,2.4l1.9-0.4
	l1.3,2.5l0.1,3.7l2.1,1.9v1.6l-3.6,1.1l-2.8,2.6l-4,7l-5.2,3l-5.5-0.4l-1.6,0.6l0.6,2.2l-2.9,2.3l-2.4,2.5l-7.1,2.4l-1.4-1.4l-1-0.2
	l-1,1.7l-4.6,0.5l0.8-1.8l-1.8-4.4l-0.8-2.6l-2.5-1.1l-3.4-3.8l1.2-3l2.6,0.6l1.6-0.4h3.2l-3.2-5.8l0.2-4.3l-0.5-4.2l-2.3-4.1
	l0.6-3.1l-3.7-0.1V459l-2.4-2.4l2.3-8.5l7-6l0.2-8.4l1.8-13l1.2-2.8l-2.4-2.2l-0.1-2l-2.2-1.7l-1.6-10l5.5-3.5l22.5,12.3
	L1119.2,423.1L1119.2,423.1z"/>
<path id="TG" class="st0" d="M991.4,478.2l-0.7,3.4l1.7,1.9l2,2.2l0.2,3.2l1.2,1.3l-0.3,14.8l1.4,4.4l-4.5,1.4l-1.3-2.3l-1.5-4.1
	l-0.5-3.2l1.3-5.7l-1.4-2.4l-0.6-5v-4.7l-2.3-3.3l0.4-2L991.4,478.2L991.4,478.2z"/>
<path id="TH" class="st0" d="M1577.5,457.2l-5.3-0.9l-7.1,1.2l-3.1,5.3l2.1,7.8l-5.3-3l-4.8,0.2l0.3-5.1h-4.9l0.2,7.1l-2.2,9.4
	l-1.4,5.7l0.7,4.6l3.7,0.2l2.7,5.9l1.3,5.5l3.4,3.7l3.4,0.7l3.1,3.4l-1.7,2.6l-3.7,0.8l-0.6-3.3l-4.8-2.8l-0.9,1.1l-2.3-2.4
	l-1.2-3.2l-3.2-3.6l-2.9-3.1l-0.7,3.8l-1.3-3.6l0.4-4l1.2-6.1l2.2-6.6l2.6-6l-2.7-5.9l-0.2-3l-1-3.6l-4.3-5.1l-1.8-3.2l1.8-1.2
	l1.4-5.5l-2.9-4.3l-4.1-4.7l-3.5-5.6l2.2-1.2l1.5-6.9l3.9-0.3l2.8-2.8l3-1.5l2.7,2l0.9,3.9l3.8,0.3l-0.4,6.7l1,5.8l5.3-3.8l1.9,1.1
	l3.2-0.2l0.8-2.2l4.3,0.4l5,5.2l1.3,6.4l5.3,5.6l0.4,5.4L1577.5,457.2L1577.5,457.2z"/>
<path id="TJ" class="st0" d="M1357,290.6l-1.4,1.9l-6-1l0.6,3.6l5.5-0.5l7.1,2.1l9.6-1l3.1,6l1.5-0.7l3.7,1.5l0.5,2.5l1.8,3.6h-5.4
	l-3.8-0.5l-2.5,2.9l-2.2,0.6l-1.5,1.4l-2.7-2.1l-0.9-5.4l-1.7-0.3l0.1-2l-3.3-1.4l-1.7,2.2l0.2,2.6l-0.6,0.9l-3.2-0.1l-0.9,2.9
	l-2.1-1.2l-3.4,2l-1.8-0.7l1.3-6.5l-2.4-4.8l-4.2-1.5l0.6-2.8l4.4,0.3l1.5-3.5l0.5-4.1l6.5-1.5l-0.2,3l1.3,1.7L1357,290.6
	L1357,290.6z"/>
<path id="TM" class="st0" d="M1338.3,309l-1.6-0.2l-2.9-1.7l-0.3,2.2l-4.2,1.3l0.2,5.1l-2.6,2l-4,0.9l-0.4,2.9l-3.9,0.9l-5.9-2.5
	l-1.7-5.3l-4-0.3l-7.3-5.6l-4.3-0.7l-6.6-3.3l-3.9-0.6l-2,1.2l-3.6-0.2l-3,3.7l-4.4,1.2l-1.9-4.5l-0.6-6.7l-4.6-2.2l0.4-4.3
	l-3.5-0.4l-0.1-5.4l5.3,1.6l4.1-2l-4.7-3.9l-2.4-3.6l-3.8,1.6l0.6,4.7l-2.6-4.1l1.8-2.2l5.6-1.3l3.9,1.8l4.8,5l2.6-0.3l5.9-0.1
	l-1.7-3.2l3.8-2.2l3.4-3.7l7.9,3.4l1.9,5l2.3,1.3l5.5-0.3l2.1,1.2l4.3,6.6l7.1,4.4l4.2,3l6.3,3.1l7.7,2.8L1338.3,309L1338.3,309z"/>
<path id="TN" class="st0" d="M1048.2,336.1l-0.1,4.9l-2.6,1.8l-1.6,2.1l-3.6,2.5l0.6,2.6l-0.4,2.8l-2.6,1.4l-2.6-11.5l-3.4-2.6
	l-0.1-1.5l-4.5-3.9l-0.6-4.8l3.2-3.6l1.1-5.3l-1-6.1l1-3.3l5.7-2.5l3.7,0.7v3.3l4.4-2.4l0.4,1.2l-2.5,3.2l0.1,2.9l1.9,1.6l-0.5,5.6
	l-3.5,3.2l1.2,3.5l2.8,0.1l1.4,3.1L1048.2,336.1L1048.2,336.1z"/>
<path class="st0" d="M1201.7,282.3l5.5-0.3l5.6,3.2l1.3,2.2l0.1,3.1l4.2,1.6l2.4,1.8l-3.3,1.9l2.9,7.3l-0.7,2l3.8,5.1l-2.4,1.1
	l-2.1-1.6l-6.3-0.9l-2.1,1l-5.9,1l-2.9-0.1l-5.7,2.4h-4.4l-3-1.2l-5.6,1.8l-1.9-1.2l0.2,3.5l-1.2,1.4l-1.3,1.4l-2.3-2.9l1.7-2.4
	l-3.2,0.6l-4.6-1.5l-3.2,3.7l-8,0.7l-4.7-3.4l-5.7-0.2l-1,2.6l-3.6,0.8l-5.4-3.4l-5.8,0.1l-3.8-6.4l-4.2-3.5l2-5l-3.6-3.1l5.1-6.1
	l8-0.2l1.6-4.9l10,0.9l5.6-4.1l5.8-1.8l8.5-0.2l9.8,4.5l7.9,2.5l5.8-1l4.6,0.6L1201.7,282.3z"/>
<path class="st0" d="M1121.9,286.9l1.2-0.7l1.1-4l-2.7-1.7l5-2l4.6,0.8l0.9,2.5l4.8,2l-0.7,1.6l-6.2,0.3l-2,2l-3.9,3.4l-2-2.9
	L1121.9,286.9z"/>
<path id="TW" class="st0" d="M1657.9,402.5l-1.4,5.3l-4-5.5l-1.5-4.7l1.9-6.3l3.3-4.9l3,1.9l-0.1,3.9L1657.9,402.5L1657.9,402.5z"/>
<polygon class="st0" points="1205.6,586.8 1205.7,587.9 1155.1,587.9 1155.9,586.5 1154.8,583.9 1155,581.2 1154,580.3 
	1154.3,577.5 1154.9,577.4 1156.9,575.1 1159.2,571.7 1160.6,570.4 1160.6,568.3 1159.4,566.8 1159.1,564.3 1160.7,563.5 
	1161,559.7 1158.8,556.1 1160.8,555.3 1167,555.4 1166.8,559.3 1165.7,563.8 1167.3,566.3 1169.8,564.8 1173.1,564.4 1173.8,565.2 
	1177.1,563.6 1174.8,561.4 1176.7,558.5 1179.5,555.6 1200,568.7 1200.3,572.4 1208.4,578.8 "/>
<path id="UG" class="st0" d="M1179,521.5l2.7,4.5l0.7,3.2l2.6,7.4l-2.1,4.7l-2.8,4.2l-1.6,2.6v0.3l-0.2-0.4l-3-1.3l-2.4,1.6
	l-3.6,0.9l-2.6,3.7l0.3,2.5l-6.2-0.1l-2,0.8l-3.4,2l-1.4-0.7l0.1-4.8l1.3-2.5l0.3-5.1l1.2-3l2.2-3.3l2.1-1.8l1.9-2.2l-2.3-0.9
	l0.3-7.5l2.3-1.8l3.6,1.5l4.5-1.5h4L1179,521.5L1179,521.5z"/>
<path id="UA" class="st0" d="M1157.2,221.6l2.3,2.7l0.1,1.2l6.7,2.2l3.6-1l3.6,2.9l2.9-0.1l7.7,2l0.4,1.9l-1.3,3.2l1.8,3.5l-0.3,2.1
	l-4.8,0.4l-2.2,1.8l0.4,2.7l-3.9,0.5l-3,2.1l-4.6,0.3l-4,2.4l1,3.9l2.8,1.5l5.1-0.4l-0.6,2.3l-5.4,1.1l-6.3,3.6l-3.1-1.3l0.7-2.9
	l-5.9-1.9l0.7-1.2l4.6-2.1l-1.7-1.4l-8.1-1.6l-0.8-2.4l-4.5,0.8l-1.3,3.5l-3.3,4.6l-2.4-1.1l-2.3,1.1l-2.4-1.2l1.2-0.7l0.6-2.1
	l1.1-2.1l-0.6-1.1l1-0.5l0.6,0.9l3,0.2l1.3-0.5l-1-0.6l0.2-1l-2-1.6l-1.1-2.6l-2-1l0.1-2.1l-2.6-1.7l-2-0.3l-4-1.9l-3.2,0.6
	l-1.1,0.9h-2.1l-1,1.5l-3.6,0.6l-1.6,1l-2.5-1.6h-3.2l-3.2-0.7l-2,1.4l-0.5-1.7l-3-1.7l0.7-2.5l1.2-1.7l1.1,0.4l-1.6-2.8l3.8-5.2
	l2.3-0.7l0.3-1.7l-3.2-5.4l2.3-0.3l2.4-1.6l3.8-0.2l4.9,0.5l5.7,1.5l3.9,0.1l1.9,0.9l1.7-1.1l1.5,1.5l4.3-0.3l2.1,0.6l-0.3-3.1
	l1.3-1.4l4.1-0.3l1.8,0.2l1-1.4l1.5,0.3l4.9-0.6l3.8,3.5l-0.9,1.3l0.8,1.9L1157.2,221.6L1157.2,221.6z"/>
<path id="UZ" class="st0" d="M1352.7,277.7l1.7,0.6l-3,4.1l4.6,2.4l3.2-1.6l7.2,3.4l-5.3,4.6l-4.1-0.6l-2.1,0.1l-1.3-1.7l0.2-3
	l-6.5,1.5l-0.5,4.1l-1.5,3.5l-4.4-0.3l-0.6,2.8l4.2,1.5l2.4,4.8l-1.3,6.5l-4.3-1.4h-3l-0.8-3.9l-7.7-2.8l-6.3-3.1l-4.2-3l-7.1-4.4
	l-4.3-6.6l-2.1-1.2l-5.5,0.3l-2.3-1.3l-1.9-5l-7.9-3.4l-3.4,3.7l-3.8,2.2l1.7,3.2l-5.9,0.1l-6.2-23.4l12-3.7l1.1,0.5l9.2,4.5
	l4.8,2.4l6.6,5.7l5.7-0.9l8.6-0.5l7.6,4.6l1.5,6.4l2.6,0.1l2.5,5.2l6.7,0.2l2.3,3h2l0.9-4.6l5.4-4.4L1352.7,277.7L1352.7,277.7z"/>
<path id="VE" class="st0" d="M648.7,495.1l-4.7,3.8l-0.5,2.3l1.8,2.4l-1.4,1.2l-3.5,1v3l-1.6,1.8l3.7,4.8l0.7,1.8l-2.1,2.5l-6.4,2.4
	l-4.1,1l-1.7,1.5l-4.5-1.6l-4.1-0.8l-1.1,0.6l2.5,1.6l-0.3,4.3l0.7,4.1l4.8,0.5l0.3,1.4l-4.1,1.8l-0.7,2.7l-2.4,1.1l-4.2,1.5l-1.1,2
	l-4.4,0.4l-3.1-3.4l-1.6-6.4l-1.5-2.3l-2-1.4l2.9-3.2l-0.2-1.4l-1.5-1.9l-1.1-4.3l0.6-4.6l1.3-2.2l1.2-3.4l-2-1.1l-3.2,0.7L596,509
	l-2.3,0.7l-3.8-5.6l-3.3-0.8l-7.3,0.6l-1.2-2.2l-1.4-0.5l-0.1-1.4l0.7-2.4l-0.3-2.5l-1.2-1.5l-0.6-2.9l-2.9-0.4l1.8-3.8l0.9-4.6
	l1.8-2.4l2.3-1.8l1.6-3.2l3.7-1.1l-0.2,1.5l-3.4,0.8l1.7,2.9l-0.3,3.4l-2.7,3.7l1.9,5.1l2.5-0.4l1.5-4.7l-1.7-2.2v-4.9l7.2-2.6
	l-0.6-3l2.1-2.1l1.7,4.6l4,0.1l3.4,3.5l0.2,2.2h5l6.1-0.6l3.1,2.8l4.2,0.8l3.3-2l0.1-1.6l7.1-0.4l6.7-0.1l-4.9,1.9l1.8,3.1l4.5,0.4
	l4.2,3.2l0.7,5.1l2.9-0.1L648.7,495.1L648.7,495.1z"/>
<path id="VN" class="st0" d="M1586.5,410.5l-6.5,5.4l-3.7,6.1l-0.6,4.5l5.3,6.7l6.5,8.4l5.7,4l4.1,5.1l4,11.9l0.4,11.3l-4.3,4.2
	l-6.1,4.2l-4.2,5.3l-6.6,6l-2.3-4.1l1.2-4.4l-4.4-3.6l4.6-2.6l5.9-0.5l-2.8-3.8l9-5l-0.1-7.7l-1.8-4.3l0.2-6.4l-2-4.5l-4.9-4.5
	l-4.4-5.6l-5.7-7.6l-7.3-3.9l1.2-2.3l3.3-1.7l-3-5.6h-6.8l-3.5-5.8l-4-5.1l2.7-1.6l4.4,0.1l5.3-0.8l4.1-3.4l3.1,2.4l5.3,1.2
	l-0.3,3.7l3.1,2.6L1586.5,410.5L1586.5,410.5z"/>
<path id="YE" class="st0" d="M1283.8,441.9l-4,1.7l-0.9,2.9v2.2l-5.4,2.7l-8.8,3l-4.7,4.5l-2.5,0.4l-1.7-0.4l-3.2,2.7l-3.5,1.2
	l-4.7,0.3l-1.4,0.4l-1.1,1.7l-1.5,0.5l-0.8,1.6l-2.8-0.2l-1.7,0.9l-4-0.3l-1.6-3.8v-3.5l-1-1.9l-1.3-4.7l-1.8-2.6l1.1-0.4l-0.7-2.9
	l0.6-1.2l-0.4-2.8l2.4-2.1l-0.8-2.7l1.3-3.1l2.4,1.6l1.5-0.6l6.4-0.1l1.1,0.6l5.5,0.7l2.1-0.3l1.5,2.1l2.6-1.1l3.5-6.7l5-2.9
	l15.9-2.5l5.2,10.6L1283.8,441.9L1283.8,441.9z"/>
<path id="SO" class="st0" d="M1222.1,559.6l-3.3-5.3l-0.2-23.4l4.9-7.2l1.5-2.1l3.6-0.1l5-4.5l7.3-0.3l15.6-19.3l-4.8,0.1l-18.7-7.6
	l-2.2-2.3l-2.2-3.1l-2.2-3.6l1.2-2.2l1.9-3.5l1.9,1.2l1.2,2.7l2.7,2.7h2.8l5.2-1.7l6.1-0.7l4.9-2l2.8-0.4l2-1.2l3.2-0.2l1.8-0.2
	l2.5-0.9l3-0.7l2.5-2.2h2.2l0.2,1.8l-0.4,3.7l0.2,3.4l-1.1,2.3l-1.4,7l-2.4,7.1l-3.3,8.2l-4.6,9.4l-4.7,7.2l-6.6,8.8l-5.6,5.2
	l-8.4,6.4l-5.3,4.8l-6.2,7.8l-1.3,3.4L1222.1,559.6L1222.1,559.6z"/>
<path id="XK" class="st0" d="M1097.8,277.8l-1.2,0.3l-2.9,1l-0.1,1.3l-0.7-0.1l-0.6-2.3l-1.3-0.7l-1.2-1.7l0.8-1.4l1.2-0.4l0.5-2.1
	l0.9-0.4l0.8,0.9l1,0.4l0.8,1l0.9,0.3l1.1,1.2l0.7-0.1l-0.4,1.6l-0.6,0.7L1097.8,277.8L1097.8,277.8z"/>
<path id="NL" class="st0" d="M1016.5,224.1l-2.8-1.5l-3.1-2.7l-4.5,1.3l-3.6-0.5l2.5-1.7l4-9l6.5-2.6l4,0.2l0.9,2.1l-0.9,5.6
	l-1.2,2.3h-2.9L1016.5,224.1L1016.5,224.1z"/>
<path id="PT" class="st0" d="M946.9,310.7l-2.2,1.6l-2.8-0.9l-2.7,0.7l0.9-5l-0.3-3.9l-2.4-0.6l-1.1-2.4l0.5-4.2l2.2-2.3l0.5-2.6
	l1.2-3.8v-2.7l-0.9-2.3l-0.2-2.2l1.9-1.6l2.2-0.9l1.2,3.1h3l0.9-0.8l3.1,0.2l1.3,3.2l-2.4,1.7l-0.3,5l-0.8,0.9l-0.3,3.1l-2.3,0.5
	l2,3.8l-1.6,4.2l1.8,1.9l-0.8,1.7l-2,2.4L946.9,310.7L946.9,310.7z"/>
<path class="st0" d="M1689.5,224.4l13.7,11l-8.9-2l3.7,9l9.6,6.4l3,4.4l-6.5-3.8l0.1,4.9l-4.7-5.3l-3.8-6.1l-5.6-6.7l-2.4-4.8
	l-6.4-8.2l-8-6.1l-6.8-8.4l1.9-2.8l-4.4-2.8l1.3-0.9l4.9,4l6.9,5.9l5.2,6.1L1689.5,224.4z"/>
<path class="st0" d="M1094.6,202.4l-8.8,0.1l-5.9-0.7l0.7-2.6l6.3-2l5.1,1.1l2.2,0.9l-0.2,1.7L1094.6,202.4z"/>
<path class="st0" d="M1548.4,95.2l-5.9,0.1l-8.9-0.6l-1-0.3l0.7-2l4.2-0.5l8.4,2L1548.4,95.2z"/>
<path class="st0" d="M1561,85.7l-1.1,2l-6.9-0.4l-10.3-2l-1.8-1.6l8.3,0.7L1561,85.7z"/>
<path class="st0" d="M1535.5,83.3l3.1,3.8l-14.3-0.2l-4.6,1.2l-12.5-3.3l-3.4-3.4l3.5-0.9l10.2,0.2L1535.5,83.3z"/>
<path class="st0" d="M1218.8,108.3l-2.2,0.4l-13.5-0.7l-2.3-2.3l-7.9-1.4l-2-2.9l3.5-1.1l-1.6-2.8l5.4-4.4l-4-0.6l6.7-4.5l-2.5-2.3
	l6.8-2.6l10.3-3.2l11.7-0.9l5-1.8l6.7-0.6l4.2,1.9l-1.3,1.5l-11.4,2.5l-9.9,2.3l-8.7,4.8l-2.8,5l-3.3,5l3.1,4.3L1218.8,108.3z"/>
<path class="st0" d="M1661.7,278l-1.4-1.1l-1.9-3.3l2.5-0.1l-3.9-7.5l-4.7-5.4l2.9-2.2l6.9,1.1l-0.6-6.2l-2.8-6.8l0.3-2.3l-1.3-5.7
	l-6.9,1.9l-2.6,2.4h-7.6l-6-5.8l-9-4.5l-10-2l-6.2-6l-4.5-3.8l-3.8-2.7l-7.7-6.2l-6-2.2l-8.6-1.9l-6.2,0.2l-5.1,1.1l-1.7,3.1
	l3.7,1.4l2.5,3.4l-1.3,2l0.2,6.5l1.9,2.8l-4.4,3.9l-7.4-2.4l-5.6,0.6l-3.9-2.1l-3.4-0.7l-4.4,4.4l-5.9,1l-3.6,1.6l-6.8-1h-4.6
	l-4.9-3.2l-6.6-2.9l-5.4-0.9l-5.7,0.8l-4,1.2l-8.5-2.6l-3.6-4.6l-6.7-1.6l-4.8-0.8l-7-2.5l-1.3,6.4l4,3.6l-2.4,4.4l-8-1.6l-5-0.2
	l-4.8-2.9l-5.2-0.1l-5.3-1.9l-5.9,2.9l-6.7,5.3l-4.7,1.1l-1.7,0.5l-4.4-3.8l-6,0.9l-3.3-2.7l-4-1.2l-4.1-3.6l-3.3-1.1l-6.2,1.6
	l-8.4-3.5l-1.1,3.2l-18.3-15.6l-8.4-4.7l0.8-2l-9.2,5.8l-4.4,0.3l-1.1-3.3l-7.1-2.1l-4.3,1.5l-4.4-6.3l-9.1-1.3l-3.1,2.5l-10.9,2.3
	l-1.7,1.5l-17,2.1l-1.4,2.1l5.1,4.2l-4,1.6l1.5,1.6l-3.5,3l9.4,4.3l-0.2,2.9l-7-0.3l-0.8,1.9l-7.3-3.2l-7.7,0.1l-4.4,2.6l-6.6-2.5
	l-12-4.3l-7.6,0.2l-8.1,6.7l0.6,4.5l-6-3.6l-2.2,6.9l1.8,1.2l-1.7,4.8l5.3,4.2l3.6-0.2l4.3,4.2l0.2,3.2l2.8,1.1l-1.4,3.7l-4.6,1
	l-3.6,6.5l6,6.1l0.4,4.2l7.3,7.5l-2.5,2.6l-0.6,1.6l-2.4-0.5l-4.3-3.8l-1.5-0.2l-3.6-1.5l-2.1-2.6l-5.1-1.3l-2.9,1l-1.2-1.2
	l-7.6-3.1l-7.7-1l-4.6-1.1l-0.4,0.8l-7.6-5.4l-6.2-2.4l-5.1-3.7l3.6-1l3.2-5.2l-3.3-2.5l6.9-2.6l-0.4-1.4l-4.3,1l-0.4-2.7l2.2-1.8
	l4.8-0.4l0.3-2.1l-1.8-3.5l1.3-3.2l-0.4-1.9l-7.7-2l-2.9,0.1l-3.6-2.9l-3.6,1l-6.7-2.2l-0.1-1.2l-2.3-2.7l-3.9-0.3l-0.8-1.9l0.9-1.3
	l-3.8-3.5l-4.9,0.6l-1.5-0.3l-1,1.4l-1.8-0.2l-2-4l-1.5-2l0.8-0.6l3.9,0.2l1.6-1.3l-1.7-1.6l-3.4-1.1v-1.1l-2.1-1.1l-3.8-4l0.7-1.6
	l-1.1-2.9l-4.8-1.4l-2.4,0.7l-0.9-1.5l-5.3-1.5l-2.1-3.6l-1-2.9l-2.5-1.3l1.6-1.9l-2.4-5.6l2.6-3.4l-0.9-1l4.5-3.3l-5.4-2.8l8-7.4
	l3.4-3.4l0.9-2.9l-7.4-3.9l0.9-3.8l-4.9-4.2l1.7-4.8l-6.5-6.3l2.9-4.2l-7.3-3.7l-0.4-3.8l3.2-0.5l6.4-2.1l3.7-1.9l7.7,3.2l11.7,1.3
	l17.7,6.2l4.1,2.6l1.5,3.7l-3.7,2.9l-6.5,1.5l-20.2-4.2l-2.9,0.7l8.1,4.1l1,2.6l1.9,5.8l6.1,1.7l3.8,1.5l-0.2-2.8l-3.4-2.4l2.1-2.2
	l11.6,3.6l3.2-1.4l-4.3-4.2l8.1-5.4l4.1,0.3l4.6,1.9l1.1-3.8l-4.7-3.3l0.8-3.3l-4.3-3.4l12.3,1.8l3.6,3l-5.1,0.7l1.2,3.1l4.1,1.9
	l6-1.2l-0.4-3.5l7.7-2.7l12.4-4.6l3.2,0.2l-2.5,3.3l5.4,0.6l2.1-1.9l7.7-0.1l5-2.3l6.4,3.3l2.8-3.6l-6-3.1l1.2-1.8l13,1.6l6.6,1.7
	l18.6,6.2l1.1-2.8l-5.9-2.9l-0.8-1.1l-5.3-0.6l-0.2-2.5l-4.7-4.2l-1.1-1.7l4.3-4.7l-0.6-4.8l2.2-1l11.4,1.4l2.9,2.9l-0.9,4.2
	l3.7,1.7l3.8,3.7l3.8,7.4l6.7,3.3l0.5,3.7l-3.5,7.8l5.3,0.8l0.5-2l3.8-1.4l-0.5-2.7l1.9-2.7l-4.4-3.1l-0.4-3.6l-4.8-0.4l-2.9-3
	l-0.4-5.4l-8.2-4.3l4.7-3.5l-3.7-3.7l1.9-0.1l4.2,2.8l2.1,5.1l5,1l-4.6-3.8l5.1-2.1l8.1-0.3l9.6,3l-6.9-4.3l-4.9-5.5l5.9-1l9.5,0.2
	l7.8-0.7l-5.6-2.6l1.3-3.3l4.2-0.2l4.9-2.4l9.3-0.7l-0.2-1.4l9.3-0.4l4.3,1.1l5.4-2.6l7,0.1l-1.5-2.2l0.9-2l6.2-2l8.3,1.6l-3.5,1.2
	l9.4,0.7l4.1,2.4l1.9-1.2l10.9,0.1l11.6,2.4l5.5,1.8l2.5,2.6l-2.4,1.5l-6.6,2.8l-1.1,1.5l5.6,0.7l7.2,1.3l2.4-1l5.8,3.3l0.2-1.3
	l5.2-0.8l13.6,0.8l3.8,2.4l17.4,0.8l-4.8-3.9l9.5,0.9l6.1-0.1l9.9,2.7l6,3.3l0.4,2.2l10.1,4.2l9,2.1l-3-5.5l9.4,2.3l5-1.4l9.8,1.6
	l1-1.4l7.6,0.7l-9.4-4.9l2.1-2.2l40.4,3.4l7.9,3.1l16.3,4l14.8-1l9.3,0.9l6.6,2.2l5.1,3.9l7.3,1.5l3.9-1.1l7-0.1l9.3,1l6.9-0.6
	l14.3,4.8l2.5-1.7l-8.5-3.4l-1.8-2.4l15.3,1.5l8-0.3l15.8,2.5l9.5,2.4l33.2,22.1l-2,2.5l-6.2-0.4l8.2,3l9.1,4.7l4.2,1.5l3.8,2.4
	l1,1.5l-10-1.2l-6.6,4.3l-3,0.7l-1.6,4.1l-2,3.6l1.7,2.7l-11.5-4.1l-6.1,4.6l-4.7-2.2l-1.4,2.6l-7-0.9l3.1,3.9l1.1,5.8l2.9,2.4
	l6.8,1.3l9.1,8.7l-4.1,0.3l3.4,5l4.7,2.6l-5,3.1l5.4,7l-5.7,1.5l4.5,6.2l-1.7,5.8l-5.7-4.3l-10.5-8.9l-16.2-13.6l-6.5-8.3l0.1-3.6
	l-2.8-2.8l5.7-1.3l-0.2-7.5l0.7-6l2.5-4.7l-6.6-8.2l-4.7,0.5l3.2,4.8l-3.6,6.4l-12.3-7.2l-9.1,2v9.8l7.7,3.6l-8.5,1.6l-6.4,0.6
	l-4.3-4.3l-8-0.9l-2.5,2.9l-15.1-1l-13.2,1.7l-3.5,11.7l-5,14.2l8.2,0.8l5.7,3.8l5.8,1.3l0.4-3l5.6,0.4l12.8,6.7l4.7,5.2l1.4,6.2
	l5.5,7.4l5.3,9.9l-1,9.1l1.3,4.3l-2,7.4l-2.1,7.3l-0.9,3.7l-4.6,3.7l-3.1,0.1l-5.2-3.1l-4.1,4.7L1661.7,278z"/>
<path class="st0" d="M1367.1,70.1l-18.1,1.8l-1.3-6.1l2.2-0.5l3.1,0.3l12.6,2.6L1367.1,70.1z"/>
<path class="st0" d="M1164.8,60.1l-4.3,0.5l-2.9,0.4v0.7l-3.6,0.7l-4.5-1l1.1-1.4l-7.8-0.1l6.3-0.8h5.2l1.5,1.1l1.3-1l2.8-0.7
	l5.8,0.9L1164.8,60.1z"/>
<path class="st0" d="M1345.1,67.4L1338,68l-11.7-1.3l-8.1-1.7l-6.6-3.2l-5.9-0.8l5.4-2.9l6.2-0.9l9.6,2l13.7,4.2L1345.1,67.4z"/>
<path id="ES" class="st0" d="M976.6,270.4l2,2.4l9.5,2.9l1.9-1.4l5.8,2.9l5.9-0.8l0.4,3.7l-4.9,4.2l-6.6,1.4l-0.5,2.1l-3.2,3.5
	l-2,5.2l2,3.7l-3,2.8l-1.2,4.2l-4,1.3l-3.7,4.9l-6.8,0.1l-5-0.1l-3.4,2.2l-2.1,2.4l-2.6-0.5l-1.9-2.2l-1.4-3.6l-4.9-1l-0.4-2.2
	l2-2.4l0.8-1.7l-1.8-1.9l1.6-4.2l-2-3.8l2.3-0.5l0.3-3.1l0.8-0.9l0.3-5l2.4-1.7l-1.3-3.2l-3.1-0.2l-0.9,0.8h-3l-1.2-3.1l-2.2,0.9
	l-1.9,1.6l0.5-4.5l-2-2.7l7.4-4.6l6.2,1.1h6.9l5.4,1.1l4.3-0.4L976.6,270.4L976.6,270.4z"/>
<path class="st0" d="M1035.7,278.4l-1.5,4.9l-2.4-1.3l-1.3-4.2l0.9-2.4l3.2-2.4L1035.7,278.4z"/>
<path class="st0" d="M1014.4,232l1.1,0.5l1.4-0.1l2.4,1.6l7.2,1.2l-2.4,4.2l-0.4,4.5l-1.3,1.1l-2.3-0.6l0.2,1.6l-3.6,3.5v2.9l2.4-1
	l1.8,2.7l-0.1,1.8l1.5,2.4l-1.7,1.9l1.5,4.9l2.8,0.8l-0.5,2.7l-4.5,3.6l-10.2-1.7l-7.4,2.1l-0.6,3.8l-5.9,0.8l-5.8-2.9l-1.9,1.4
	l-9.5-2.9l-2-2.4l2.7-3.8l1-12.6l-5.1-6.6l-3.7-3.2l-7.6-2.4l-0.4-4.6l6.5-1.3l8.3,1.6l-1.5-7.1l4.7,2.7l11.4-4.8l1.5-5.1l4.2-1.3
	l0.8,2.2l2.2,0.1l2.4,2.5l3.5,2.9l2.5-0.5L1014.4,232z"/>
<path class="st0" d="M118.8,426.3l-1.1,1.1l-1.2-0.9l0.6-1.8l-0.4-2.4l0.5-0.7l1.2-1l-0.1-1.3l0.4-0.6l0.4,0.1l1.9,1.1l0.9,0.6
	l0.7,0.8l0.9,2.3l-0.2,0.3l-2.5,1.4L118.8,426.3z"/>
<path class="st0" d="M118.1,416.3l-2,0.4l-0.6-1.3l-0.5-0.5v-0.4l0.7-0.6l1.8,0.6l1.2,1L118.1,416.3z"/>
<path class="st0" d="M115.1,412.9l-0.3,0.7l-3-0.2l0.6-0.8L115.1,412.9z"/>
<path class="st0" d="M110.4,411.9l-0.4,0.4l-0.4-0.1l-1.9-0.2l-0.3-1.5l-0.2-0.2l1.7-0.9l0.4,0.4L110.4,411.9z"/>
<path class="st0" d="M102,407.7l-0.8,0.6l-1.6-1.1l0.4-0.5l1-0.6l1.3,0.1L102,407.7z"/>
<path class="st1" d="M539.5,241.5l-6.1,2l-4.7,2.5l-4.6,2.7l-0.5,0.9l5.7-1.3l2.1,2.1l4.6-1.5l4.9-2.1l5.4-2.1l-3.1,3.3l2.5,0.8
	l2.5,2.4l5.1-1.4l5.1-0.5l0.3,1.8l1.5,0.2l1.2,0.2l1.5,2.5l-4.7,0.6h-0.1l-3.7-0.7l-4.5,1.2l-3.7,0.6l-4.7,4.1l-3,2.3l0.4,0.7
	l5.5-4.1h0.7l-4.7,4.9l-2.9,4.4l-2.5,3.6l-0.6,3.1l-0.8,1.5l-0.6,1.7l0.1,3.3l0.3,0.5l1.8-0.1l1.6-0.7l1.4-0.8l3.3-3.1l1.8-4.2
	l-0.1-3.9l1.4-2.7l2.6-3.1l2.1-2.2l2.7-1.5l-0.4,2.1l2.2-3.1l1.3-0.6l1.7-2.4l3.8,1.3l2.8,2.4l-0.8,2.9l-1.6,2.9l-3.8,2.5l-0.4,1.6
	h1l4.3-2.7l1.6,0.6l-0.5,3.7l-0.7,2.6l-3.7,3.5l-2,2.2l-2.7,2.4l2.7,1.3l2.5,0.4l4-0.9l3.7-1.7l3-0.9l4.6-1.8l5.8-3.8l0.1-0.6
	l0.3-1.9l2.7-0.8l3.9,0.3l4,0.5l4.6-2.1l0.6-2.5l-0.2-0.9l6.8-4.4l2.7-1.1l7.8-0.1h9.3l1.1-1.5l1.7-0.3l2.5-1l2.8-2.9l3.2-4.9
	l5.5-4.7l1.1,1.6l3.7-1l1.6,1.8l-2.9,8.5l2.2,3.6l0.2,2.1l-6.4,3l-6,2.2l-6,1.9l-4,3.8l-1.3,1.4l-1.2,3.4l0.7,3.3l2.1,0.2l0.2-2.3
	l1.1,1.4l-1,1.8l-3.8,1l-2.5-0.1l-4.2,1.1l-2.3,0.3l-3.1,0.3l-5,1.9l8.1-1.2l1.1,1.2l-7.9,1.9H601l0.4-0.8l-2.1,1.8l1.4,0.3
	l-2.5,4.6l-5.3,4.9l0.1-1.7l-1.1-0.3l-1.2-1.6v3.5l1,1.1l-0.6,2.4l-2.4,2.5l-4.5,5.1l-0.4-0.2l2.9-4.4l-2-2.4l1-5.4l-1.9,2.8v4.1
	l-3.2-1l3,2l-1.5,6.1l1.4,0.5v2.2l-1,6.4l-4.6,4.7l-6.1,1.9l-4.4,3.8l-2.8,0.4l-3.4,2.4l-1.3,2.1l-6.9,4.2l-3.8,3.1l-3.5,3.8
	l-1.9,4.5v4.5l0.6,5.5l1.5,4.5l-0.5,2.8l1.3,7.4l-1,4.4l-0.6,2.5l-2,3.9l-1.8,0.8l-2.6-0.8l-0.4-2.8l-1.8-1.5l-2-5.5l-1.6-4.9
	l-0.4-2.5l2-4.3l-0.8-3.5l-3.1-5.4l-1.9-1l-6.1,3l-0.9-0.4l-2-3l-3-1.6l-6.4,0.9l-4.6-0.8l-4.3,0.5l-2.5,1l0.6,1.7l-0.7,2.6l0.8,1.3
	l-1.2,0.8l-1.8-0.9l-2.3,1.2l-3.9-0.2l-3.3-3.4l-4.9,0.8l-3.6-1.5l-3.5,0.5l-5,1.5l-6.1,4.7l-6.1,2.8l-3.7,3l-1.9,2.9l-1,4.5l-0.4,3
	l0.6,2.2l-2.2,0.2l-3.6-1.4l-3.9-2l-0.9-3l-0.2-4.5l-2.4-3.6l-0.9-3.8l-1.6-4.4l-3.2-2.6l-4.5,0.2l-4.8,5l-4-1.9L417,359l-0.4-3.6
	l-0.8-3.3l-2.4-2.8l-2.1-2.1l-1.3-2.3h-9.4l-0.8,2.7h-4.3h-10.8l-10.9-4.5l-7-3.1l0.9-1.3l-7.1,0.7l-6.3,0.5l0.3-3.2l-2.1-3.7
	l-2.2-0.8l0.1-1.8l-2.9-0.4l-1.2-1.7l-4.8-0.6l-0.9-1.1l0.8-3.5l-2.5-6.4l-0.5-8.9l0.9-1.5l-1.3-2.1l-1.5-5.4l1.8-5.2l-0.9-3.5
	l3.9-5.3l2.8-5.4l1.1-4.9l5.5-6l4-5.7l4-5.7l4.3-8.5l1.8-5.3l0.4-2.9l1.4-1.3l5.8,2.2l-1,5.9l2.2-1.7l2.5-5.1l1.6-5.1h14.1h14.7h4.8
	h15.1h14.7h14.8h14.9h16.8h17h10.2l1.3-2.4h1.7l-0.9,3.4l1,1l3.3,0.4l4.6,1l3.9,1.9l4.4-0.8L539.5,241.5z"/>
<path class="st1" d="M275,185.6l-7,2.3l-0.8-1.6l2.3-2.8l6.4-2.1l3.5-0.9l2.6,0.4v1.9L275,185.6z"/>
<path class="st1" d="M236,169l-3.9,0.9l-1.7-1.1l-0.8-1.6l5.7-1l3,0.6L236,169z"/>
<path class="st1" d="M237.2,146.6l1.2,1l3.5-0.5l1.6,1.5l3.3,0.7l-1.2,0.7l-4.9,1.2l-1.7-1.3l-0.3-1l-4.3,0.3l-0.3-0.5L237.2,146.6z
	"/>
<path class="st1" d="M410,113.6L385.4,134l-35.6,32.7l4.2,0.2l2.8,1.6l0.5,2.6l0.3,3.8l7.6-3.3l6.5-1.9l-0.6,3.1l0.8,2.4l1.6,2.7
	l-1.1,4.2L371,189l4.6,3.8l-3.2,3.8l-5.1,2.9l-0.6-2.2l-2.5-2l3.3-5.2l-1.6-4.9l2.7-5.6l-4.1-0.4l-7.1-0.1l-3.8-1.8l-3.3-6.1
	l-3.3-1.1l-5.7-2.1l-6.8,0.5l-6-2.7l-2.7-2.5l-6.3,1.2l-3.5,4.1l-2.9,0.4l-6.6,1.2l-6.2,2l-6.4,1.3l3.2-3.5l8.4-5.8l6.8-1.8l0.4-1.4
	l-9.4,3.2l-7.4,3.9l-11.2,4.2l0.2,2.9l-9,4.2l-7.7,2.5l-6.6,1.9l-4,2.6l-10.6,3.1l-4.5,2.8l-8.2,2.6l-2.7-0.4l-6.2,1.6l-7,2.1
	l-6.1,2l-10,1.8l0.4-1.1l8.2-2.8l6.6-1.9l8.6-3.3l6.5-0.6l5-2.5l10.4-3.6l2.3-1.2l5.7-2.1l5.8-4.5l6.2-3.5l-7.3,1.8l-0.3-1.1
	l-4.9,2.2l0.4-3l-3.6,2.1l1.6-2.9l-7.3,2.3h-2.8l3.7-3.5l3.3-2.2l-0.4-2.1l-7.2,1.2l-0.6-2.8l-1.3-1.4l4-3.3l-0.4-2.5l5.9-3.3
	l7.7-3.3l5.3-2.9l4.1-0.4l1.8,0.9l7.1-2.8l2.5,0.5l5.6-1.8l2.5-2.6l-1.1-1l6-2.2l-2.8,0.1l-6.2,1.2l-2.9,1.3l-1.8-1.3l-6.9,0.7
	l-4.6-1.4l1.2-2.3l-1-3.2l9.2-2.4l13.2-2.7h3.5l-4.3,2.8l9.2-0.2l1.2-3.5l-2.3-2.1l0.8-2.8l-0.7-2.3l-3.3-1.7l6.5-2.9l7.5-0.2
	l8.8-2.4l4.8-2.6l7.9-2.6l4.8-0.6l11.2-2.4l3.1,0.4l10.4-2.8l4.4,1.1l-0.5,2.4l3.3-1l6.3,0.3l-1.9,1.2l4.9,0.9l4.9-0.5l6.2,1.6
	l7.2,0.6l2.2,0.6l6.6-0.8l4.1,1.6L410,113.6z"/>
<path id="GF" class="st0" d="M677.3,534l1.5-2.8l0.5-2.9l1-2.7l-2.1-3.8l-0.3-4.4l3.1-5.5l1.9,0.7l4.1,1.5l5.9,5.4l0.8,2.6l-3.4,5.9
	l-1.8,4.7l-2.2,2.5l-2.7,0.4l-0.8-1.8l-1.3-0.2l-1.7,1.7L677.3,534L677.3,534z"/>
<path id="AW" class="st0" d="M592.9,469l-0.5-0.2l-0.5-0.5l0.1-0.6l0.2,0.3l0.4,0.4l0.3,0.5V469L592.9,469z"/>
<path id="AI" class="st0" d="M634.2,431.9H634l0.3-0.4h0.3l-0.2,0.3L634.2,431.9L634.2,431.9z"/>
<path class="st0" d="M640.7,438.9l0.6,0.3l-0.2,0.3h-0.2l-0.7,0.1l-0.2-0.1V439l0.3-0.1l0.1-0.3h0.2L640.7,438.9z"/>
<path class="st0" d="M640.7,435.2h0.2l0.2,0.2l0.1,0.4l-0.1,0.3l-0.2,0.1l-0.1-0.2l-0.3-0.2v-0.5L640.7,435.2z"/>
<path id="BH" class="st0" d="M1264.1,380.3l0.3,0.1l0.2-0.1l0.4,0.7l-0.1,0.2l0.1,0.9v0.7l-0.2,0.4l-0.1-0.4l-0.6-0.8l0.1-0.4
	l-0.2-0.7v-0.4L1264.1,380.3L1264.1,380.3z"/>
<path class="st0" d="M580.4,413l-0.4,0.5l-0.2,0.5l-0.6,0.3h-0.5l-0.1-0.1l-0.4,0.2l-0.5,0.1l-0.6-0.2l-0.4,0.1l-0.1-0.5l0.3-0.2
	l0.2-0.3l0.4-0.2l0.3-0.4h0.4l0.3-0.2l0.2,0.3l0.5,0.2l0.5-0.2l0.7-1h0.3v0.2L580.4,413z"/>
<path class="st0" d="M580.6,411.3l-0.2-0.6l0.6-0.3l0.3,0.3v0.2L581,411L580.6,411.3z"/>
<path class="st0" d="M581,404.8l0.2-0.1l0.5,0.3h0.4l0.4,0.1l0.3,0.2v0.3l-0.2,0.1l-0.5-0.4h-0.4l-0.1-0.1l-0.5,0.2l-0.5-0.2v-0.1
	l0.2-0.5L581,404.8z"/>
<path class="st0" d="M577.1,403l-0.2,0.4v0.7l-0.1,0.4l-0.4,0.3l-0.2,0.4l-0.4,0.3l-0.7,0.3L575,406l-0.2-0.2l0.1-0.2l0.4-0.1
	l0.2-0.2v-0.2l0.4-0.1l0.2-0.4l0.4-0.1l0.3-0.4l-0.2-0.3h-0.4l-0.2-0.2l0.4-0.5l0.1-0.1L577.1,403L577.1,403z"/>
<path class="st0" d="M575.2,402.7L575.2,402.7l0.5,0.1l0.4,0.2l-0.4,0.4l-0.1-0.2h-0.2l-0.4-0.1l-0.4-0.2l-0.3-0.6l0.3-0.1l0.4,0.1
	L575.2,402.7z"/>
<path class="st0" d="M566,396.8l0.6,0.7l0.3,0.2l0.3,0.5l-0.3-0.1l-0.1-0.2l-0.3-0.1l-0.4-0.4l-0.2-0.1l-0.2-0.4L566,396.8z"/>
<path class="st0" d="M569.7,396.8l0.3,0.6l0.2,0.5v0.4l0.2,0.2l0.2,0.7v0.9l0.2,0.3l0.5,0.2l0.4,0.6v0.8l-0.4-0.7v-0.2l-0.3-0.4
	l-0.6-0.2l0.2-0.2l-0.3-0.3v-0.3l0.2-0.3l-0.1-0.5l-0.3-0.4l0.1-0.1l-0.3-0.4l-0.1-0.6l-0.2,0.1L569.7,396.8z"/>
<path class="st0" d="M572.6,396.8l-0.3,0.2l-0.3-0.1l-0.1-0.2l0.6-0.2L572.6,396.8z"/>
<path class="st0" d="M564.4,394.9l-0.1-0.1l-0.3-0.7h0.2L564.4,394.9z"/>
<path class="st0" d="M574.9,394.4l-0.4,0.6h-0.4l0.2-0.3l0.1-0.6l0.4-0.3l0.1,0.4L574.9,394.4L574.9,394.4z"/>
<path class="st0" d="M556.4,393.2l-0.3,0.1l-0.2,0.3l-0.3-0.1l0.6-0.4L556.4,393.2z"/>
<path class="st0" d="M556.6,393.9l0.4,0.2l0.2-0.2l0.1-0.5l0.2-0.1l0.2,0.6v0.5l-0.1,0.3l0.1,0.6v0.3l-0.4,0.8l-0.2,0.1l-0.4-0.2
	l0.2-0.3l0.4-0.2l-0.1-0.1l-0.6,0.4l-0.2-0.2l0.4-0.3h-0.4l-0.2,0.1l-0.2-0.2v-0.7l0.1-0.2l-0.4-0.5v-0.2l0.4-0.2l0.1-0.3l0.3-0.1
	l0.1-0.2l0.6-0.3l0.1,0.4l-0.5,0.4L556.6,393.9z"/>
<path class="st0" d="M570.1,393.3l0.1,0.5l-0.2-0.1l-0.5,0.1l-0.4,0.1l-0.1-0.2l0.3-0.2l0.4-0.3V393l-0.4-0.2l-0.2-0.6l-0.1-0.6
	l-0.4-0.4V391l-0.5-0.5l0.3-0.3l0.4,0.4v0.5l0.2,0.3l0.1,0.5l0.3,0.5l0.4,0.3l0.1,0.3L570.1,393.3z"/>
<path class="st0" d="M559.8,387.8l0.3,0.2l-0.6,0.3l-0.3-0.1l-0.2,0.2l-0.5-0.1l0.2-0.3l0.4-0.2H559.8z"/>
<path class="st0" d="M555.6,387.3l0.4-0.2l0.3,0.3l-0.1,0.2l0.1,0.2l-0.2,0.4l0.3,0.3l0.2,0.9l0.2,0.3l0.4,0.5l-0.2,0.7l0.1,0.6
	l-0.2,0.3l-0.3,0.1l-0.4,0.4l-0.3,0.2h-0.3l-0.3,0.2H555v-0.4l-0.3-0.2l0.1-0.6l-0.3,0.3l-0.2-0.1l-0.6-0.4l-0.3-0.3l-0.2-0.3
	l0.7-0.3l0.5,0.7l0.1-0.6l-0.3-0.1l-0.1-0.3l0.1-0.3l0.6-0.6l0.2-0.4l-0.1-0.1l0.3-0.4v-0.5l-0.2-0.7l0.1-0.1h0.3L555.6,387.3z"/>
<path class="st0" d="M563.7,384.7l0.1,0.2l0.3,0.4l0.8,0.7l0.5,0.1l0.1,0.1l0.2,0.4l0.3,0.4l0.5,0.4v0.2l-0.2,0.8l-0.1,0.2v0.3
	l-0.1,0.5l-0.2,0.3l-0.1,0.7l-0.1,0.1l-0.2-0.6l-0.4-0.3l0.1-0.2l0.5,0.1l0.2-0.2l-0.1-0.2l0.1-0.4l0.3-0.4l0.1-0.5v-0.3l-0.5-0.4
	l-0.4-0.7l-0.3-0.2l-0.6-0.3l-0.3-0.3l-0.6-0.2l-0.4,0.2l0.4-0.9L563.7,384.7L563.7,384.7z"/>
<path class="st0" d="M554.9,377.2l0.5,0.2h0.1l0.7,0.1l0.2-0.2l0.2,0.1h0.5l0.4-0.2h0.4l0.3-0.2l0.1,0.5l-0.1,0.2h-0.3h-0.4
	l-1.1,0.2h-0.3l-1.5,0.4l-0.7,0.4h-0.4l-0.2-0.1l-0.3-0.3l-0.5-0.6l0.6,0.3l0.1,0.2h0.5l0.5-0.2l0.4-0.6l-0.3-0.1l0.2-0.3l0.1-0.3
	L554.9,377.2z"/>
<path class="st0" d="M559.2,375.9l0.8,0.2l0.2-0.1l0.4,0.3l0.9,1l0.2,0.6l0.4,0.1l0.7,0.5v0.2l-0.2,0.5l0.2,0.7h-0.4l-0.5,0.4
	l-0.1,0.2l-0.3,1l-0.1,0.9l-0.2,0.2l-0.3-0.2l-0.1-0.4l-0.4-0.1l0.3-0.5h0.2l0.5-0.4l-0.1-0.4l0.2-0.4v-0.3l0.2-0.3V379l0.2-0.1
	l0.2-0.3l0.1-0.3l-0.3-0.1l-0.5-0.1l-0.1-0.3v-0.2l-0.4-0.2v-0.3l-0.3-0.7l-0.2-0.1l-0.3,0.1l-0.5-0.1h-0.3l-0.6-0.4H559.2z"/>
<path id="BL" class="st0" d="M635.2,434l-0.1-0.3l0.3,0.1L635.2,434L635.2,434z"/>
<path id="BM" class="st1" d="M637.3,341H637l-0.1,0.1l0.1,0.2l-0.4,0.2l-0.1-0.1l0.2-0.1h0.1l0.1-0.3l0.3-0.1L637.3,341L637.3,341z"
	/>
<path id="BB" class="st0" d="M651.5,465l-0.6-0.2l-0.1-0.5v-0.8l0.2-0.4l0.2,0.2l0.2,0.6l0.5,0.3l0.1,0.4L651.5,465L651.5,465z"/>
<path class="st0" d="M847.8,453.5l-0.2,0.3l-0.2-0.2v-0.3l0.3-0.1L847.8,453.5z"/>
<path class="st0" d="M849.7,453.6l-0.2,0.1l-0.4-0.1l-0.3-0.3l-0.1-0.3l0.2-0.4l0.5-0.3h0.4l0.2,0.7l-0.1,0.4L849.7,453.6z"/>
<path class="st0" d="M853.2,450.5l0.2,0.1v0.2l0.2,0.2l0.4,0.5h0.2l0.2,0.3l0.2,0.5l0.2,0.2l-0.3,0.5l-0.3,0.1l-0.5-0.1l-0.3-0.1
	l-0.3-0.3v-0.2l-0.2-0.1l-0.1-0.4l0.1-0.2v-0.3l0.2-0.4l-0.2-0.5L853.2,450.5L853.2,450.5z"/>
<path class="st0" d="M856.3,450.5l0.3,0.1l0.1,0.6l-0.1,0.4l-0.4,0.2l-0.4-0.4l0.2-0.4l-0.1-0.2L856.3,450.5z"/>
<path class="st0" d="M858.3,444.8l0.3-0.2l0.5,0.2l0.1,0.2v0.7l-0.4,0.3l-0.3,0.2h-0.3l-0.5-0.2v-0.5l0.2-0.2v-0.6l0.1-0.1
	L858.3,444.8z"/>
<path class="st0" d="M850.3,442l0.4-0.1l0.3,0.2h0.4l0.3,0.2l0.1,0.2h-0.5l-0.7-0.3l-0.2,0.1l-0.3,0.6l-0.3-0.6l-0.1-0.1l-0.1-0.4
	l0.3-0.1L850.3,442z"/>
<path class="st0" d="M858.1,441.5l0.1,0.1l-0.1,0.6l-0.2,0.1v-0.5l-0.2-0.3v-0.3l-0.1-0.3l0.4-0.3l0.2,0.2L858.1,441.5L858.1,441.5
	L858.1,441.5z"/>
<path class="st0" d="M846.8,440.2l0.2,0.3l0.1,0.3l-0.7,0.3l-0.3-0.2l-0.2-0.2l0.4-0.4L846.8,440.2z"/>
<path class="st0" d="M846,438.4l0.3,0.1v0.2l0.3,0.3l-0.2,0.4l-0.6,0.3l-0.4,0.4l-0.7,0.1v-0.1v-0.5l-0.2-0.2v-0.2l0.2-0.2h0.2
	l0.2-0.2l0.7-0.4L846,438.4L846,438.4z"/>
<path id="CW" class="st0" d="M599,471.5h-0.3l-0.4-0.3l-0.3-0.1l-0.3-0.3l-0.1-0.2l-0.3-0.1l-0.2-0.4l-0.3-0.3l0.1-0.5l0.5,0.3
	l0.1,0.5l0.4,0.4l0.7,0.2l0.2,0.3l0.3,0.4L599,471.5L599,471.5z"/>
<path class="st0" d="M532.7,424.8l0.3,0.1l0.2-0.4l0.4,0.1h0.5l0.1,0.2L534,425l-0.2-0.1l-0.4,0.1l-0.2,0.1h-0.7L532.7,424.8z"/>
<path class="st0" d="M540.8,422.3l-0.7,0.3l0.2-0.3H540.8z"/>
<path class="st0" d="M541.4,422.4l-0.1-0.1l0.8-0.3l-0.2,0.3L541.4,422.4z"/>
<path class="st0" d="M1168.2,323.7l0.1,0.2l0.3,0.4l-0.4-0.1h-0.3l-0.4,0.2l-0.3-0.3v-0.3l0.3-0.1l0.2,0.1L1168.2,323.7z"/>
<path class="st0" d="M1166.5,324.2L1166.5,324.2l-0.2,0.3l-0.1,0.6l-0.1,0.2h-0.3l-0.2,0.2l-0.5,0.2l-0.2,0.1l-0.6,0.3l-0.4-0.1
	l-0.5,0.1l-0.3,0.4l-0.2-0.3l-0.3,0.1h-0.2l-0.3-0.3l-0.4,0.3h-0.5l-0.5-0.2l-0.5-0.1l-0.4-0.3l-0.3-0.6l-0.3-0.3l-0.2-0.7l-0.2-0.3
	l0.1-0.3l0.5,0.3l0.4-0.1l0.2-0.3l0.1-0.3l0.3-0.1l0.2,0.1l0.2-0.2h0.2l0.1,0.4l0.5,0.2l0.1,0.2h0.6l0.6-0.5l0.4,0.1l0.3-0.2
	l0.3,0.1l0.4,0.2l0.2-0.3h0.3l0.3,0.4v0.6l0.3-0.2l0.3,0.2l0.1-0.1L1166.5,324.2z"/>
<path id="DM" class="st0" d="M642,448.7l0.5,0.1l0.2,0.5v0.6l-0.1,0.8l-0.1,0.2l-0.2,0.1l-0.4,0.2l0.1-0.4l-0.1-0.2l-0.1-0.7
	l-0.3-0.5v-0.3l0.1-0.3v-0.3h0.2L642,448.7L642,448.7z"/>
<path class="st0" d="M955.6,159l0.4,0.2h0.3l0.1,0.2v0.4l0.2,0.3l-0.1,0.2l-0.6-0.4l-0.2-0.4l-0.2-0.2l-0.2-0.3H955.6z"/>
<path class="st0" d="M955.9,157.4l0.8,0.2l0.2,0.2l-0.1,0.4l-0.1,0.1l-0.4-0.5l-0.5-0.1l-0.2-0.4L955.9,157.4z"/>
<path class="st0" d="M954.6,156l0.1,0.2h0.3v0.3h-0.4l-0.2,0.2l-0.6-0.2l-0.2-0.1l-0.2-0.3l0.5-0.1l0.1-0.1L954.6,156l-0.3-0.2
	l0.2-0.8l0.5,0.1l0.3,0.5v0.1l0.6,0.2l0.3,0.5l0.3,0.2l-0.1,0.6l-0.5-0.4l-0.2-0.2l-0.2-0.1l-0.1-0.2l-0.2-0.2L954.6,156L954.6,156z
	"/>
<path class="st0" d="M958.3,155.4l-0.2-0.2l0.3-0.2L958.3,155.4z"/>
<path class="st0" d="M955.9,155.9l-0.4-0.2l-0.3-0.3l-0.1-0.3l0.1-0.1l0.4-0.1h0.3l0.6,0.4l-0.1,0.2l0.1,0.2l0.6,0.2v0.2l-0.4,0.3
	L955.9,155.9z"/>
<path class="st0" d="M958.1,155.3l-0.3,0.4l-0.3-0.2h-0.3l0.2-0.3l-0.1-0.4l0.1-0.1l0.2,0.4L958.1,155.3z"/>
<path class="st0" d="M957.2,155.3H957l-0.2-0.4l0.1-0.3l0.2,0.4L957.2,155.3z"/>
<path class="st0" d="M1909.4,514.7l-0.2,0.3l-0.5-0.1v-0.2l0.5-0.4L1909.4,514.7z"/>
<path class="st0" d="M1881.2,504.1h0.4l0.3,0.2l0.1,0.4l-0.2,0.1l0.1,0.2l-0.1,0.2h-0.6l-0.2-0.2v-0.2l-0.2-0.3v-0.3L1881.2,504.1z"
	/>
<path class="st0" d="M1766.5,487.5l0.1,0.3h-0.3l-0.3,0.5l-0.1-0.1l0.3-0.8l0.4-0.1L1766.5,487.5z"/>
<path id="GD" class="st0" d="M639.2,471.5l-0.4,0.3l-0.2-0.1l-0.1-0.5l0.2-0.5l0.3-0.4h0.3l0.1,0.3l-0.1,0.7L639.2,471.5z"/>
<path id="GU" class="st0" d="M1800.8,462.5l-0.1,0.4v0.6l-0.1,0.3h-0.3l-0.2-0.3l-0.1-0.5v-0.5l0.6-0.5l0.1-0.2l0.1-0.5l0.2-0.1
	l0.1,0.2l0.4,0.1l-0.2,0.5L1800.8,462.5z"/>
<path class="st0" d="M636.3,439H636l-0.1-0.2l0.2-0.4h0.2l0.1,0.2L636.3,439z"/>
<path class="st0" d="M635.6,437.5l-0.1,0.3h-0.2l-0.4-0.2l-0.2-0.2l0.3-0.4l0.5,0.4L635.6,437.5z"/>
<path id="LC" class="st0" d="M643.7,460.8l-0.2-0.2l-0.4-0.2l-0.1-0.2v-0.6l0.1-0.2l0.7-1.1l0.3,0.2v0.7L644,460l-0.1,0.4
	L643.7,460.8L643.7,460.8z"/>
<path id="MF" class="st0" d="M634.2,433l-0.4-0.1l0.2-0.3l0.3-0.1L634.2,433z"/>
<path id="MV" class="st0" d="M1402.9,521.8v0.2l-0.2-0.1L1402.9,521.8L1402.9,521.8z"/>
<path id="MH" class="st0" d="M1953.8,503l1,0.4h-0.2L1953.8,503z"/>
<path class="st0" d="M1063.9,318.7l-0.2,0.3l-0.5-0.2l-0.5-0.3V318l-0.1-0.1h0.6l0.4,0.3l0.2,0.2L1063.9,318.7z"/>
<path class="st0" d="M1062.3,317.6l-0.5-0.1v-0.2l0.4-0.1l0.4,0.3L1062.3,317.6z"/>
<path class="st0" d="M1802.5,458.1l-0.1,0.1l-0.2-0.1l-0.1-0.2l0.5-0.2l0.2,0.2L1802.5,458.1z"/>
<path class="st0" d="M1804,453h-0.2l-0.3-0.6l0.1-0.3h0.3v0.3l0.2,0.2L1804,453z"/>
<path class="st0" d="M1804.5,451.4l-0.2,0.2l0.1,0.3h-0.4v-0.7l0.1-0.2l0.4-0.2l-0.1,0.5L1804.5,451.4z"/>
<path class="st0" d="M1802.6,443.9h-0.3l-0.1-0.2h0.4V443.9z"/>
<path class="st0" d="M1800.7,432.9l-0.1-0.2v-0.5l0.3-0.1l0.2,0.3L1800.7,432.9z"/>
<path class="st0" d="M1799.5,428.6l-0.4-0.1v-0.3l0.2-0.1l0.2,0.2L1799.5,428.6L1799.5,428.6z"/>
<path id="MS" class="st0" d="M638.2,440.9l0.2,0.4v0.3l-0.2,0.2l-0.2-0.1l-0.1-0.3L638.2,440.9z"/>
<path id="NR" class="st0" d="M1933,552.3h-0.2l-0.1-0.3h0.3L1933,552.3L1933,552.3z"/>
<path id="PW" class="st0" d="M1747.7,500.1l-0.2,0.4l0.1,0.1l-0.2,0.6l0.1,0.2l-0.5,0.2l-0.2-0.7l0.3-0.2l-0.2-0.2l0.3-0.6l0.3-0.1
	L1747.7,500.1L1747.7,500.1z"/>
<path class="st0" d="M607.1,432.9l-0.3-0.2l0.1-0.2h0.3l0.1,0.1L607.1,432.9z"/>
<path class="st0" d="M621.7,432.4h-0.2l-0.9,0.3H620l0.2-0.2l0.4-0.2l0.4-0.1l0.6,0.1L621.7,432.4z"/>
<path class="st0" d="M612.2,430l0.6,0.1h0.6l0.3,0.1l0.6-0.1l0.3,0.1l0.4-0.1l0.2,0.1l0.5-0.1l0.4,0.1h0.3l0.8,0.2v-0.2l0.6,0.2
	l0.1-0.1l0.8,0.1l0.2,0.2h0.2l0.6,0.3l0.2-0.1l-0.1,0.7l0.2,0.3l-0.9,0.3l-0.3,0.4l-0.3,0.6l-0.3,0.2l-0.3,0.1h-0.4l-0.6,0.1
	l-0.3,0.2l-0.7-0.1l-0.2-0.2l-0.5,0.2l-0.3-0.3l-0.7,0.2l-0.9-0.1l-0.3,0.1l-0.6,0.1l-0.2,0.1l-0.2-0.2l-0.4-0.1l-0.3,0.2l-0.6-0.1
	l0.3-0.7v-0.4l0.2-0.4l-0.2-0.6l-0.2-0.1l-0.1-0.4l0.4-0.2l0.2-0.1v-0.5l0.4-0.2L612.2,430z"/>
<path class="st0" d="M1023.9,548.3h-0.2l-0.2,0.3h-0.2l-0.1-0.4l-0.2-0.8v-0.3l0.4-0.5l0.3-0.1l0.3-0.3l0.4,0.1l0.2,0.4l0.1,0.3
	l-0.1,0.4l-0.2,0.3l-0.3,0.4L1023.9,548.3z"/>
<path class="st0" d="M1028.5,538.5l-0.1,0.3l-0.2,0.1l-0.3-0.1v-0.3l0.2-0.1v-0.3l0.2-0.2l0.3,0.1L1028.5,538.5z"/>
<path id="SX" class="st0" d="M634.2,433v0.1l-0.4-0.1v-0.1L634.2,433z"/>
<path class="st0" d="M1300.4,578.5l0.4,0.4l-0.2,0.3l-0.2-0.3l-0.3-0.2l0.2-0.5L1300.4,578.5z"/>
<path class="st0" d="M587.7,408.6h0.7l0.3,0.4h-0.3l-0.3-0.1l-0.5,0.1l-0.1-0.3L587.7,408.6z"/>
<path class="st0" d="M585,408.5l0.3,0.4l0.6-0.1l-0.2,0.2h-0.6l-0.4-0.2L585,408.5z"/>
<path class="st0" d="M587.2,407.9v0.5l-0.5-0.2l-0.1-0.3l0.1-0.1L587.2,407.9z"/>
<path class="st0" d="M642.8,479.2l-0.2,0.5l-0.3,0.4l-0.2,0.1l-0.1,0.4l0.2,0.6l-0.2,0.1v0.7l0.2,0.3l0.2,0.2l-0.2,0.2l-0.1,0.3v0.7
	l-0.2,0.1l-0.4,0.2l-0.5,0.1h-0.3l-0.5,0.1l-0.5-0.1l-0.4,0.1l-0.3-0.1l-0.5,0.2l-0.4-0.2h-0.6l-0.3,0.2l-0.3-0.1l0.5-0.2l0.3-0.3
	l0.4-0.1l0.4-0.3l0.2-0.3l0.6,0.1l0.3-0.4l-0.2-0.8l0.2-0.4V481v-0.2l-0.3-0.4l-0.3-0.1l-0.4-0.1l-0.1-0.1l0.4-0.3l1.1-0.1l0.2-0.2
	h1.1l0.1-0.1l1.2-0.2L642.8,479.2L642.8,479.2z"/>
<path class="st0" d="M645.2,476l-0.1,0.5l-0.3,0.1l-0.4,0.3h-0.2l-0.7,0.4l-0.2-0.2l0.3-0.3l0.7-0.5L645.2,476z"/>
<path id="VC" class="st0" d="M642.2,464.4l-0.1,0.1l-0.5-0.3v-0.4l0.2-0.3l0.2-0.5h0.4l0.1,0.4l-0.1,0.8L642.2,464.4L642.2,464.4z"
	/>
<path id="VG" class="st0" d="M626.1,430.4l-0.4,0.2h-0.1l-0.3,0.2l-0.1-0.1l0.1-0.3l0.6-0.1L626.1,430.4L626.1,430.4z"/>
<path class="st0" d="M624.5,434.8l0.3,0.3l-1.1,0.2l-0.1-0.5l0.7-0.2L624.5,434.8z"/>
<path class="st0" d="M625.2,431l-0.2,0.2h-0.5V431l0.3-0.1L625.2,431z"/>
<path class="st0" d="M623.8,430.8l0.4,0.3l-0.2,0.2l-0.3-0.2h-0.5l0.2-0.2L623.8,430.8z"/>
<path id="BQBO" class="st0" d="M602,471.6h-0.2l-0.1-0.5l0.1-0.3l-0.1-0.3l-0.4-0.1l-0.3-0.3l0.1-0.3l1.2,0.6l-0.1,0.2v0.4l-0.2,0.2
	V471.6L602,471.6z"/>
<path id="BQSE" class="st0" d="M634.3,436.6l-0.2,0.1v-0.2l0.1-0.1L634.3,436.6L634.3,436.6z"/>
<path id="BQSA" class="st0" d="M632.8,435.7L632.8,435.7v-0.2l0.1,0.1L632.8,435.7z"/>
<path id="MQ" class="st0" d="M644,453.9v0.2l0.4-0.1l-0.2,0.5l0.2,0.2v0.2l0.2,0.2l0.2,0.9l-0.3,0.3l-0.1-0.4l-0.1,0.1l-0.6-0.1
	h-0.4l-0.2-0.3l0.6-0.5h-0.4l-0.4-0.4l-0.1-0.5l-0.2-0.5l0.3-0.4l0.4,0.1l0.5,0.3L644,453.9L644,453.9z"/>
<path class="st0" d="M888.4,370.4l-0.3,0.5l-0.4,0.5l-0.3-0.4H887l-0.2-0.2l0.2-0.3l0.4,0.1l0.4-0.4l0.3-0.2l0.2,0.1L888.4,370.4z"
	/>
<path class="st0" d="M902,368.1v0.5l0.2,0.4l-0.2,0.7l0.1,0.3l-0.4,0.4l-0.5,0.2l-0.2,0.2l-0.6-0.2l-0.5-0.5l-0.2-0.4v-0.6l0.6-0.4
	l0.1-0.5V368l0.6,0.1h0.4l0.3,0.1L902,368.1z"/>
<path class="st0" d="M892.1,368.9h-0.2l-0.3-0.2l-0.2-0.3l0.1-0.4l0.1-0.3h0.3h0.3l0.5,0.4l0.1,0.3l-0.5,0.5H892.1z"/>
<path class="st0" d="M898.2,365.4v0.2l-0.6,0.3l-0.4,0.5l-0.3,0.2v0.4l-0.4,0.7l-0.1,0.4l-0.5,0.6l-0.1,0.2h-0.2l-0.6,0.2l-0.1-0.1
	l-0.1-0.4l-0.3-0.4l-0.1-0.2l-0.2-0.3v-0.3l-0.4-0.6l0.5-0.3l0.3,0.2l0.6-0.2h0.4l0.5-0.2l0.5-0.4v-0.2l0.6-0.3h0.6L898.2,365.4
	L898.2,365.4z"/>
<path class="st0" d="M908.4,368.2l-0.3,0.4l-0.4,0.1l-0.3-0.1H907v-0.2h0.3l0.6-0.2l0.4-0.3l0.3-0.3l0.1-0.5l0.1-0.3l0.2-0.5
	l0.3-0.4l0.3-0.6l0.2-0.8l0.2-0.2l0.4-0.1l0.3,0.3l0.1,0.5l-0.1,0.5l-0.1,0.5v0.5l-0.1,0.1l-0.3,0.7l-0.3,0.3l-0.6,0.1l-0.7,0.3
	L908.4,368.2z"/>
<path class="st0" d="M888.8,363.7l0.3-0.1l0.2,0.3l0.2,0.5l-0.2,0.3l0.1,0.4l-0.6,1l-0.1-0.1l-0.1-0.4l-0.4-0.9l-0.1-0.3l-0.1-0.2
	l0.2-0.4l0.3-0.2L888.8,363.7z"/>
<path class="st0" d="M912.9,361.7v0.4l-0.2,0.5l-0.7,0.5l-0.5,0.1l-0.4,0.5l-0.5-0.2v-0.1l0.2-0.4v-0.4l0.2-0.3l0.3-0.2h0.3l0.3-0.3
	h0.5l0.1-0.1l0.2-0.5l0.2-0.1l0.2,0.2L912.9,361.7z"/>
<path class="st0" d="M643,446.9h-0.3l-0.2-0.4l0.1-0.2l0.3-0.3l0.3,0.2l0.1,0.3v0.2L643,446.9z"/>
<path class="st0" d="M641.2,444.3h0.3v0.2v0.1l-0.2,0.1v0.8v0.4l-0.2,0.2l-0.6,0.3v-0.2l-0.2-0.2l-0.1-0.5V445l-0.1-0.5v-0.3
	l0.2-0.3l0.3-0.1l0.5,0.3L641.2,444.3z"/>
<path class="st0" d="M642.6,443.9l0.4,0.1l0.5,0.4l-1.3,0.3l-0.3,0.1l-0.4-0.3l0.1-0.6l0.2-0.1l-0.1-0.6l0.1-0.2l0.3-0.2l0.3,0.4
	v0.4L642.6,443.9z"/>
<polygon id="_x30_" class="st0" points="997.9,236.1 997.9,236.1 997.9,236.1 "/>
<polygon id="_x31_" class="st1" points="673.5,771.1 673.5,771.1 673.5,771.1 "/>
<polygon id="_x32_" class="st1" points="1798.2,766.3 1798.2,766.3 1798.2,766.3 "/>
<circle class="st2" cx="358" cy="322.2" r="5"/>
<circle class="st2" cx="594.8" cy="255" r="5"/>
<circle class="st2" cx="530" cy="280.9" r="5"/>
<circle class="st2" cx="599.8" cy="286.8" r="5"/>
<circle class="st2" cx="659.8" cy="219" r="5"/>
<g>
	<circle class="st3" cx="381.4" cy="224.3" r="7.5"/>
	<path id="Icon_material-location-on" class="st2" d="M381.4,199.5c-4.8,0-8.7,3.9-8.8,8.7l0,0c0,6.6,8.8,16.2,8.8,16.2
		s8.8-9.7,8.8-16.2C390.1,203.4,386.2,199.5,381.4,199.5C381.4,199.4,381.4,199.4,381.4,199.5z M381.4,211.3c-1.7,0-3.1-1.4-3.1-3.1
		s1.4-3.1,3.1-3.1s3.1,1.4,3.1,3.1C384.5,209.9,383.1,211.3,381.4,211.3z"/>
</g>
</svg>
